<svg xmlns="http://www.w3.org/2000/svg" viewBox="0 0 2400 768" width="2400" height="768"><circle cx="384.00" cy="122.88" r="2.01" fill="#08090C"></circle><circle cx="346.70" cy="141.53" r="1.82" fill="#08090C"></circle><circle cx="384.00" cy="141.53" r="2.25" fill="#08090C"></circle><circle cx="402.65" cy="141.53" r="1.72" fill="#08090C"></circle><circle cx="421.30" cy="141.53" r="2.57" fill="#08090C"></circle><circle cx="439.95" cy="141.53" r="3.43" fill="#08090C"></circle><circle cx="458.61" cy="141.53" r="4.29" fill="#08090C"></circle><circle cx="477.26" cy="141.53" r="5.15" fill="#08090C"></circle><circle cx="272.09" cy="160.18" r="1.58" fill="#08090C"></circle><circle cx="290.74" cy="160.18" r="1.96" fill="#08090C"></circle><circle cx="402.65" cy="160.18" r="1.72" fill="#08090C"></circle><circle cx="421.30" cy="160.18" r="2.57" fill="#08090C"></circle><circle cx="439.95" cy="160.18" r="3.43" fill="#08090C"></circle><circle cx="458.61" cy="160.18" r="4.29" fill="#08090C"></circle><circle cx="477.26" cy="160.18" r="5.15" fill="#08090C"></circle><circle cx="495.91" cy="160.18" r="6.01" fill="#08090C"></circle><circle cx="514.56" cy="160.18" r="6.86" fill="#08090C"></circle><circle cx="272.09" cy="178.83" r="1.65" fill="#08090C"></circle><circle cx="346.70" cy="178.83" r="1.82" fill="#08090C"></circle><circle cx="384.00" cy="178.83" r="1.96" fill="#08090C"></circle><circle cx="402.65" cy="178.83" r="1.72" fill="#08090C"></circle><circle cx="421.30" cy="178.83" r="2.57" fill="#08090C"></circle><circle cx="439.95" cy="178.83" r="3.43" fill="#08090C"></circle><circle cx="458.61" cy="178.83" r="4.29" fill="#08090C"></circle><circle cx="477.26" cy="178.83" r="5.15" fill="#08090C"></circle><circle cx="495.91" cy="178.83" r="6.01" fill="#08090C"></circle><circle cx="514.56" cy="178.83" r="6.86" fill="#08090C"></circle><circle cx="533.21" cy="178.83" r="7.72" fill="#08090C"></circle><circle cx="309.39" cy="197.49" r="2.00" fill="#08090C"></circle><circle cx="328.05" cy="197.49" r="1.81" fill="#08090C"></circle><circle cx="384.00" cy="197.49" r="1.62" fill="#08090C"></circle><circle cx="402.65" cy="197.49" r="1.72" fill="#08090C"></circle><circle cx="421.30" cy="197.49" r="2.57" fill="#08090C"></circle><circle cx="439.95" cy="197.49" r="3.43" fill="#08090C"></circle><circle cx="458.61" cy="197.49" r="4.29" fill="#08090C"></circle><circle cx="477.26" cy="197.49" r="5.15" fill="#08090C"></circle><circle cx="495.91" cy="197.49" r="6.01" fill="#08090C"></circle><circle cx="514.56" cy="197.49" r="6.86" fill="#08090C"></circle><circle cx="533.21" cy="197.49" r="7.72" fill="#08090C"></circle><circle cx="551.86" cy="197.49" r="8.58" fill="#08090C"></circle><circle cx="253.44" cy="216.14" r="1.73" fill="#08090C"></circle><circle cx="346.70" cy="216.14" r="1.58" fill="#08090C"></circle><circle cx="402.65" cy="216.14" r="1.72" fill="#08090C"></circle><circle cx="421.30" cy="216.14" r="2.57" fill="#08090C"></circle><circle cx="439.95" cy="216.14" r="3.43" fill="#08090C"></circle><circle cx="458.61" cy="216.14" r="4.29" fill="#08090C"></circle><circle cx="477.26" cy="216.14" r="5.15" fill="#08090C"></circle><circle cx="495.91" cy="216.14" r="6.01" fill="#08090C"></circle><circle cx="514.56" cy="216.14" r="6.86" fill="#08090C"></circle><circle cx="533.21" cy="216.14" r="7.72" fill="#08090C"></circle><circle cx="551.86" cy="216.14" r="8.58" fill="#08090C"></circle><circle cx="570.51" cy="216.14" r="8.58" fill="#08090C"></circle><circle cx="234.79" cy="234.79" r="1.77" fill="#08090C"></circle><circle cx="253.44" cy="234.79" r="1.67" fill="#08090C"></circle><circle cx="290.74" cy="234.79" r="1.74" fill="#08090C"></circle><circle cx="309.39" cy="234.79" r="1.96" fill="#08090C"></circle><circle cx="384.00" cy="234.79" r="2.15" fill="#08090C"></circle><circle cx="402.65" cy="234.79" r="1.72" fill="#08090C"></circle><circle cx="421.30" cy="234.79" r="2.57" fill="#08090C"></circle><circle cx="439.95" cy="234.79" r="3.43" fill="#08090C"></circle><circle cx="458.61" cy="234.79" r="4.29" fill="#08090C"></circle><circle cx="477.26" cy="234.79" r="5.15" fill="#08090C"></circle><circle cx="495.91" cy="234.79" r="6.01" fill="#08090C"></circle><circle cx="514.56" cy="234.79" r="6.86" fill="#08090C"></circle><circle cx="533.21" cy="234.79" r="7.72" fill="#08090C"></circle><circle cx="551.86" cy="234.79" r="8.58" fill="#08090C"></circle><circle cx="570.51" cy="234.79" r="8.58" fill="#08090C"></circle><circle cx="589.17" cy="234.79" r="8.58" fill="#08090C"></circle><circle cx="272.09" cy="253.44" r="1.97" fill="#08090C"></circle><circle cx="365.35" cy="253.44" r="2.07" fill="#08090C"></circle><circle cx="402.65" cy="253.44" r="1.72" fill="#08090C"></circle><circle cx="421.30" cy="253.44" r="2.57" fill="#08090C"></circle><circle cx="439.95" cy="253.44" r="3.43" fill="#08090C"></circle><circle cx="458.61" cy="253.44" r="4.29" fill="#08090C"></circle><circle cx="477.26" cy="253.44" r="5.15" fill="#08090C"></circle><circle cx="495.91" cy="253.44" r="6.01" fill="#08090C"></circle><circle cx="514.56" cy="253.44" r="6.86" fill="#08090C"></circle><circle cx="533.21" cy="253.44" r="7.72" fill="#08090C"></circle><circle cx="551.86" cy="253.44" r="8.58" fill="#08090C"></circle><circle cx="570.51" cy="253.44" r="8.58" fill="#08090C"></circle><circle cx="589.17" cy="253.44" r="8.58" fill="#08090C"></circle><circle cx="607.82" cy="253.44" r="8.58" fill="#08090C"></circle><circle cx="253.44" cy="272.09" r="1.69" fill="#08090C"></circle><circle cx="290.74" cy="272.09" r="1.82" fill="#08090C"></circle><circle cx="309.39" cy="272.09" r="1.94" fill="#08090C"></circle><circle cx="346.70" cy="272.09" r="1.75" fill="#08090C"></circle><circle cx="402.65" cy="272.09" r="1.72" fill="#08090C"></circle><circle cx="421.30" cy="272.09" r="2.57" fill="#08090C"></circle><circle cx="439.95" cy="272.09" r="3.43" fill="#08090C"></circle><circle cx="458.61" cy="272.09" r="4.29" fill="#08090C"></circle><circle cx="477.26" cy="272.09" r="5.15" fill="#08090C"></circle><circle cx="495.91" cy="272.09" r="6.01" fill="#08090C"></circle><circle cx="514.56" cy="272.09" r="6.86" fill="#08090C"></circle><circle cx="533.21" cy="272.09" r="7.72" fill="#08090C"></circle><circle cx="551.86" cy="272.09" r="8.58" fill="#08090C"></circle><circle cx="570.51" cy="272.09" r="8.58" fill="#08090C"></circle><circle cx="589.17" cy="272.09" r="8.58" fill="#08090C"></circle><circle cx="607.82" cy="272.09" r="8.58" fill="#08090C"></circle><circle cx="216.14" cy="290.74" r="1.64" fill="#08090C"></circle><circle cx="290.74" cy="290.74" r="1.66" fill="#08090C"></circle><circle cx="309.39" cy="290.74" r="1.70" fill="#08090C"></circle><circle cx="328.05" cy="290.74" r="1.85" fill="#08090C"></circle><circle cx="346.70" cy="290.74" r="1.73" fill="#08090C"></circle><circle cx="365.35" cy="290.74" r="1.67" fill="#08090C"></circle><circle cx="384.00" cy="290.74" r="1.84" fill="#08090C"></circle><circle cx="402.65" cy="290.74" r="1.72" fill="#08090C"></circle><circle cx="421.30" cy="290.74" r="2.57" fill="#08090C"></circle><circle cx="439.95" cy="290.74" r="3.43" fill="#08090C"></circle><circle cx="458.61" cy="290.74" r="4.29" fill="#08090C"></circle><circle cx="477.26" cy="290.74" r="5.15" fill="#08090C"></circle><circle cx="495.91" cy="290.74" r="6.01" fill="#08090C"></circle><circle cx="514.56" cy="290.74" r="6.86" fill="#08090C"></circle><circle cx="533.21" cy="290.74" r="7.72" fill="#08090C"></circle><circle cx="551.86" cy="290.74" r="8.58" fill="#08090C"></circle><circle cx="570.51" cy="290.74" r="8.58" fill="#08090C"></circle><circle cx="589.17" cy="290.74" r="8.58" fill="#08090C"></circle><circle cx="607.82" cy="290.74" r="8.58" fill="#08090C"></circle><circle cx="626.47" cy="290.74" r="8.58" fill="#08090C"></circle><circle cx="160.18" cy="309.39" r="1.63" fill="#08090C"></circle><circle cx="197.49" cy="309.39" r="1.75" fill="#08090C"></circle><circle cx="253.44" cy="309.39" r="1.91" fill="#08090C"></circle><circle cx="309.39" cy="309.39" r="1.63" fill="#08090C"></circle><circle cx="346.70" cy="309.39" r="2.17" fill="#08090C"></circle><circle cx="365.35" cy="309.39" r="1.99" fill="#08090C"></circle><circle cx="402.65" cy="309.39" r="1.72" fill="#08090C"></circle><circle cx="421.30" cy="309.39" r="2.57" fill="#08090C"></circle><circle cx="439.95" cy="309.39" r="3.43" fill="#08090C"></circle><circle cx="458.61" cy="309.39" r="4.29" fill="#08090C"></circle><circle cx="477.26" cy="309.39" r="5.15" fill="#08090C"></circle><circle cx="495.91" cy="309.39" r="6.01" fill="#08090C"></circle><circle cx="514.56" cy="309.39" r="6.86" fill="#08090C"></circle><circle cx="533.21" cy="309.39" r="7.72" fill="#08090C"></circle><circle cx="551.86" cy="309.39" r="8.58" fill="#08090C"></circle><circle cx="570.51" cy="309.39" r="8.58" fill="#08090C"></circle><circle cx="589.17" cy="309.39" r="8.58" fill="#08090C"></circle><circle cx="607.82" cy="309.39" r="8.58" fill="#08090C"></circle><circle cx="626.47" cy="309.39" r="8.58" fill="#08090C"></circle><circle cx="197.49" cy="328.05" r="1.73" fill="#08090C"></circle><circle cx="234.79" cy="328.05" r="1.70" fill="#08090C"></circle><circle cx="309.39" cy="328.05" r="1.55" fill="#08090C"></circle><circle cx="328.05" cy="328.05" r="1.70" fill="#08090C"></circle><circle cx="346.70" cy="328.05" r="1.71" fill="#08090C"></circle><circle cx="365.35" cy="328.05" r="1.62" fill="#08090C"></circle><circle cx="402.65" cy="328.05" r="1.72" fill="#08090C"></circle><circle cx="421.30" cy="328.05" r="2.57" fill="#08090C"></circle><circle cx="439.95" cy="328.05" r="3.43" fill="#08090C"></circle><circle cx="458.61" cy="328.05" r="4.29" fill="#08090C"></circle><circle cx="477.26" cy="328.05" r="5.15" fill="#08090C"></circle><circle cx="495.91" cy="328.05" r="6.01" fill="#08090C"></circle><circle cx="514.56" cy="328.05" r="6.86" fill="#08090C"></circle><circle cx="533.21" cy="328.05" r="7.72" fill="#08090C"></circle><circle cx="551.86" cy="328.05" r="8.58" fill="#08090C"></circle><circle cx="570.51" cy="328.05" r="8.58" fill="#08090C"></circle><circle cx="589.17" cy="328.05" r="8.58" fill="#08090C"></circle><circle cx="607.82" cy="328.05" r="8.58" fill="#08090C"></circle><circle cx="626.47" cy="328.05" r="8.58" fill="#08090C"></circle><circle cx="234.79" cy="346.70" r="1.57" fill="#08090C"></circle><circle cx="253.44" cy="346.70" r="1.64" fill="#08090C"></circle><circle cx="402.65" cy="346.70" r="1.72" fill="#08090C"></circle><circle cx="421.30" cy="346.70" r="2.57" fill="#08090C"></circle><circle cx="439.95" cy="346.70" r="3.43" fill="#08090C"></circle><circle cx="458.61" cy="346.70" r="4.29" fill="#08090C"></circle><circle cx="477.26" cy="346.70" r="5.15" fill="#08090C"></circle><circle cx="495.91" cy="346.70" r="6.01" fill="#08090C"></circle><circle cx="514.56" cy="346.70" r="6.86" fill="#08090C"></circle><circle cx="533.21" cy="346.70" r="7.72" fill="#08090C"></circle><circle cx="551.86" cy="346.70" r="8.58" fill="#08090C"></circle><circle cx="570.51" cy="346.70" r="8.58" fill="#08090C"></circle><circle cx="589.17" cy="346.70" r="8.58" fill="#08090C"></circle><circle cx="607.82" cy="346.70" r="8.58" fill="#08090C"></circle><circle cx="626.47" cy="346.70" r="8.58" fill="#08090C"></circle><circle cx="346.70" cy="365.35" r="1.56" fill="#08090C"></circle><circle cx="365.35" cy="365.35" r="1.94" fill="#08090C"></circle><circle cx="384.00" cy="365.35" r="2.29" fill="#08090C"></circle><circle cx="402.65" cy="365.35" r="1.72" fill="#08090C"></circle><circle cx="421.30" cy="365.35" r="2.57" fill="#08090C"></circle><circle cx="439.95" cy="365.35" r="3.43" fill="#08090C"></circle><circle cx="458.61" cy="365.35" r="4.29" fill="#08090C"></circle><circle cx="477.26" cy="365.35" r="5.15" fill="#08090C"></circle><circle cx="495.91" cy="365.35" r="6.01" fill="#08090C"></circle><circle cx="514.56" cy="365.35" r="6.86" fill="#08090C"></circle><circle cx="533.21" cy="365.35" r="7.72" fill="#08090C"></circle><circle cx="551.86" cy="365.35" r="8.58" fill="#08090C"></circle><circle cx="570.51" cy="365.35" r="8.58" fill="#08090C"></circle><circle cx="589.17" cy="365.35" r="8.58" fill="#08090C"></circle><circle cx="607.82" cy="365.35" r="8.58" fill="#08090C"></circle><circle cx="626.47" cy="365.35" r="8.58" fill="#08090C"></circle><circle cx="234.79" cy="384.00" r="1.66" fill="#08090C"></circle><circle cx="272.09" cy="384.00" r="1.73" fill="#08090C"></circle><circle cx="328.05" cy="384.00" r="1.74" fill="#08090C"></circle><circle cx="346.70" cy="384.00" r="2.16" fill="#08090C"></circle><circle cx="365.35" cy="384.00" r="1.78" fill="#08090C"></circle><circle cx="402.65" cy="384.00" r="1.72" fill="#08090C"></circle><circle cx="421.30" cy="384.00" r="2.57" fill="#08090C"></circle><circle cx="439.95" cy="384.00" r="3.43" fill="#08090C"></circle><circle cx="458.61" cy="384.00" r="4.29" fill="#08090C"></circle><circle cx="477.26" cy="384.00" r="5.15" fill="#08090C"></circle><circle cx="495.91" cy="384.00" r="6.01" fill="#08090C"></circle><circle cx="514.56" cy="384.00" r="6.86" fill="#08090C"></circle><circle cx="533.21" cy="384.00" r="7.72" fill="#08090C"></circle><circle cx="551.86" cy="384.00" r="8.58" fill="#08090C"></circle><circle cx="570.51" cy="384.00" r="8.58" fill="#08090C"></circle><circle cx="589.17" cy="384.00" r="8.58" fill="#08090C"></circle><circle cx="607.82" cy="384.00" r="8.58" fill="#08090C"></circle><circle cx="626.47" cy="384.00" r="8.58" fill="#08090C"></circle><circle cx="645.12" cy="384.00" r="8.58" fill="#08090C"></circle><circle cx="253.44" cy="402.65" r="1.71" fill="#08090C"></circle><circle cx="309.39" cy="402.65" r="1.71" fill="#08090C"></circle><circle cx="328.05" cy="402.65" r="2.07" fill="#08090C"></circle><circle cx="365.35" cy="402.65" r="1.93" fill="#08090C"></circle><circle cx="384.00" cy="402.65" r="1.57" fill="#08090C"></circle><circle cx="402.65" cy="402.65" r="1.72" fill="#08090C"></circle><circle cx="421.30" cy="402.65" r="2.57" fill="#08090C"></circle><circle cx="439.95" cy="402.65" r="3.43" fill="#08090C"></circle><circle cx="458.61" cy="402.65" r="4.29" fill="#08090C"></circle><circle cx="477.26" cy="402.65" r="5.15" fill="#08090C"></circle><circle cx="495.91" cy="402.65" r="6.01" fill="#08090C"></circle><circle cx="514.56" cy="402.65" r="6.86" fill="#08090C"></circle><circle cx="533.21" cy="402.65" r="7.72" fill="#08090C"></circle><circle cx="551.86" cy="402.65" r="8.58" fill="#08090C"></circle><circle cx="570.51" cy="402.65" r="8.58" fill="#08090C"></circle><circle cx="589.17" cy="402.65" r="8.58" fill="#08090C"></circle><circle cx="607.82" cy="402.65" r="8.58" fill="#08090C"></circle><circle cx="626.47" cy="402.65" r="8.58" fill="#08090C"></circle><circle cx="272.09" cy="421.30" r="1.64" fill="#08090C"></circle><circle cx="290.74" cy="421.30" r="1.61" fill="#08090C"></circle><circle cx="365.35" cy="421.30" r="2.07" fill="#08090C"></circle><circle cx="402.65" cy="421.30" r="1.72" fill="#08090C"></circle><circle cx="421.30" cy="421.30" r="2.57" fill="#08090C"></circle><circle cx="439.95" cy="421.30" r="3.43" fill="#08090C"></circle><circle cx="458.61" cy="421.30" r="4.29" fill="#08090C"></circle><circle cx="477.26" cy="421.30" r="5.15" fill="#08090C"></circle><circle cx="495.91" cy="421.30" r="6.01" fill="#08090C"></circle><circle cx="514.56" cy="421.30" r="6.86" fill="#08090C"></circle><circle cx="533.21" cy="421.30" r="7.72" fill="#08090C"></circle><circle cx="551.86" cy="421.30" r="8.58" fill="#08090C"></circle><circle cx="570.51" cy="421.30" r="8.58" fill="#08090C"></circle><circle cx="589.17" cy="421.30" r="8.58" fill="#08090C"></circle><circle cx="607.82" cy="421.30" r="8.58" fill="#08090C"></circle><circle cx="626.47" cy="421.30" r="8.58" fill="#08090C"></circle><circle cx="253.44" cy="439.95" r="1.79" fill="#08090C"></circle><circle cx="272.09" cy="439.95" r="1.82" fill="#08090C"></circle><circle cx="346.70" cy="439.95" r="2.01" fill="#08090C"></circle><circle cx="365.35" cy="439.95" r="1.99" fill="#08090C"></circle><circle cx="402.65" cy="439.95" r="1.72" fill="#08090C"></circle><circle cx="421.30" cy="439.95" r="2.57" fill="#08090C"></circle><circle cx="439.95" cy="439.95" r="3.43" fill="#08090C"></circle><circle cx="458.61" cy="439.95" r="4.29" fill="#08090C"></circle><circle cx="477.26" cy="439.95" r="5.15" fill="#08090C"></circle><circle cx="495.91" cy="439.95" r="6.01" fill="#08090C"></circle><circle cx="514.56" cy="439.95" r="6.86" fill="#08090C"></circle><circle cx="533.21" cy="439.95" r="7.72" fill="#08090C"></circle><circle cx="551.86" cy="439.95" r="8.58" fill="#08090C"></circle><circle cx="570.51" cy="439.95" r="8.58" fill="#08090C"></circle><circle cx="589.17" cy="439.95" r="8.58" fill="#08090C"></circle><circle cx="607.82" cy="439.95" r="8.58" fill="#08090C"></circle><circle cx="626.47" cy="439.95" r="8.58" fill="#08090C"></circle><circle cx="197.49" cy="458.61" r="1.75" fill="#08090C"></circle><circle cx="216.14" cy="458.61" r="1.58" fill="#08090C"></circle><circle cx="253.44" cy="458.61" r="1.59" fill="#08090C"></circle><circle cx="309.39" cy="458.61" r="1.65" fill="#08090C"></circle><circle cx="365.35" cy="458.61" r="2.06" fill="#08090C"></circle><circle cx="402.65" cy="458.61" r="1.72" fill="#08090C"></circle><circle cx="421.30" cy="458.61" r="2.57" fill="#08090C"></circle><circle cx="439.95" cy="458.61" r="3.43" fill="#08090C"></circle><circle cx="458.61" cy="458.61" r="4.29" fill="#08090C"></circle><circle cx="477.26" cy="458.61" r="5.15" fill="#08090C"></circle><circle cx="495.91" cy="458.61" r="6.01" fill="#08090C"></circle><circle cx="514.56" cy="458.61" r="6.86" fill="#08090C"></circle><circle cx="533.21" cy="458.61" r="7.72" fill="#08090C"></circle><circle cx="551.86" cy="458.61" r="8.58" fill="#08090C"></circle><circle cx="570.51" cy="458.61" r="8.58" fill="#08090C"></circle><circle cx="589.17" cy="458.61" r="8.58" fill="#08090C"></circle><circle cx="607.82" cy="458.61" r="8.58" fill="#08090C"></circle><circle cx="626.47" cy="458.61" r="8.58" fill="#08090C"></circle><circle cx="346.70" cy="477.26" r="1.80" fill="#08090C"></circle><circle cx="402.65" cy="477.26" r="1.72" fill="#08090C"></circle><circle cx="421.30" cy="477.26" r="2.57" fill="#08090C"></circle><circle cx="439.95" cy="477.26" r="3.43" fill="#08090C"></circle><circle cx="458.61" cy="477.26" r="4.29" fill="#08090C"></circle><circle cx="477.26" cy="477.26" r="5.15" fill="#08090C"></circle><circle cx="495.91" cy="477.26" r="6.01" fill="#08090C"></circle><circle cx="514.56" cy="477.26" r="6.86" fill="#08090C"></circle><circle cx="533.21" cy="477.26" r="7.72" fill="#08090C"></circle><circle cx="551.86" cy="477.26" r="8.58" fill="#08090C"></circle><circle cx="570.51" cy="477.26" r="8.58" fill="#08090C"></circle><circle cx="589.17" cy="477.26" r="8.58" fill="#08090C"></circle><circle cx="607.82" cy="477.26" r="8.58" fill="#08090C"></circle><circle cx="626.47" cy="477.26" r="8.58" fill="#08090C"></circle><circle cx="234.79" cy="495.91" r="1.80" fill="#08090C"></circle><circle cx="253.44" cy="495.91" r="1.86" fill="#08090C"></circle><circle cx="328.05" cy="495.91" r="1.66" fill="#08090C"></circle><circle cx="346.70" cy="495.91" r="1.58" fill="#08090C"></circle><circle cx="365.35" cy="495.91" r="1.62" fill="#08090C"></circle><circle cx="384.00" cy="495.91" r="1.58" fill="#08090C"></circle><circle cx="402.65" cy="495.91" r="1.72" fill="#08090C"></circle><circle cx="421.30" cy="495.91" r="2.57" fill="#08090C"></circle><circle cx="439.95" cy="495.91" r="3.43" fill="#08090C"></circle><circle cx="458.61" cy="495.91" r="4.29" fill="#08090C"></circle><circle cx="477.26" cy="495.91" r="5.15" fill="#08090C"></circle><circle cx="495.91" cy="495.91" r="6.01" fill="#08090C"></circle><circle cx="514.56" cy="495.91" r="6.86" fill="#08090C"></circle><circle cx="533.21" cy="495.91" r="7.72" fill="#08090C"></circle><circle cx="551.86" cy="495.91" r="8.58" fill="#08090C"></circle><circle cx="570.51" cy="495.91" r="8.58" fill="#08090C"></circle><circle cx="589.17" cy="495.91" r="8.58" fill="#08090C"></circle><circle cx="607.82" cy="495.91" r="8.58" fill="#08090C"></circle><circle cx="178.83" cy="514.56" r="1.61" fill="#08090C"></circle><circle cx="216.14" cy="514.56" r="1.79" fill="#08090C"></circle><circle cx="309.39" cy="514.56" r="2.08" fill="#08090C"></circle><circle cx="328.05" cy="514.56" r="1.92" fill="#08090C"></circle><circle cx="384.00" cy="514.56" r="2.14" fill="#08090C"></circle><circle cx="402.65" cy="514.56" r="1.72" fill="#08090C"></circle><circle cx="421.30" cy="514.56" r="2.57" fill="#08090C"></circle><circle cx="439.95" cy="514.56" r="3.43" fill="#08090C"></circle><circle cx="458.61" cy="514.56" r="4.29" fill="#08090C"></circle><circle cx="477.26" cy="514.56" r="5.15" fill="#08090C"></circle><circle cx="495.91" cy="514.56" r="6.01" fill="#08090C"></circle><circle cx="514.56" cy="514.56" r="6.86" fill="#08090C"></circle><circle cx="533.21" cy="514.56" r="7.72" fill="#08090C"></circle><circle cx="551.86" cy="514.56" r="8.58" fill="#08090C"></circle><circle cx="570.51" cy="514.56" r="8.58" fill="#08090C"></circle><circle cx="589.17" cy="514.56" r="8.58" fill="#08090C"></circle><circle cx="607.82" cy="514.56" r="8.58" fill="#08090C"></circle><circle cx="234.79" cy="533.21" r="1.62" fill="#08090C"></circle><circle cx="253.44" cy="533.21" r="1.90" fill="#08090C"></circle><circle cx="272.09" cy="533.21" r="1.84" fill="#08090C"></circle><circle cx="309.39" cy="533.21" r="1.81" fill="#08090C"></circle><circle cx="365.35" cy="533.21" r="2.19" fill="#08090C"></circle><circle cx="384.00" cy="533.21" r="1.99" fill="#08090C"></circle><circle cx="402.65" cy="533.21" r="1.72" fill="#08090C"></circle><circle cx="421.30" cy="533.21" r="2.57" fill="#08090C"></circle><circle cx="439.95" cy="533.21" r="3.43" fill="#08090C"></circle><circle cx="458.61" cy="533.21" r="4.29" fill="#08090C"></circle><circle cx="477.26" cy="533.21" r="5.15" fill="#08090C"></circle><circle cx="495.91" cy="533.21" r="6.01" fill="#08090C"></circle><circle cx="514.56" cy="533.21" r="6.86" fill="#08090C"></circle><circle cx="533.21" cy="533.21" r="7.72" fill="#08090C"></circle><circle cx="551.86" cy="533.21" r="8.58" fill="#08090C"></circle><circle cx="570.51" cy="533.21" r="8.58" fill="#08090C"></circle><circle cx="589.17" cy="533.21" r="8.58" fill="#08090C"></circle><circle cx="216.14" cy="551.86" r="1.60" fill="#08090C"></circle><circle cx="234.79" cy="551.86" r="1.67" fill="#08090C"></circle><circle cx="253.44" cy="551.86" r="1.72" fill="#08090C"></circle><circle cx="290.74" cy="551.86" r="1.98" fill="#08090C"></circle><circle cx="328.05" cy="551.86" r="1.87" fill="#08090C"></circle><circle cx="402.65" cy="551.86" r="1.72" fill="#08090C"></circle><circle cx="421.30" cy="551.86" r="2.57" fill="#08090C"></circle><circle cx="439.95" cy="551.86" r="3.43" fill="#08090C"></circle><circle cx="458.61" cy="551.86" r="4.29" fill="#08090C"></circle><circle cx="477.26" cy="551.86" r="5.15" fill="#08090C"></circle><circle cx="495.91" cy="551.86" r="6.01" fill="#08090C"></circle><circle cx="514.56" cy="551.86" r="6.86" fill="#08090C"></circle><circle cx="533.21" cy="551.86" r="7.72" fill="#08090C"></circle><circle cx="551.86" cy="551.86" r="8.58" fill="#08090C"></circle><circle cx="570.51" cy="551.86" r="8.58" fill="#08090C"></circle><circle cx="272.09" cy="570.51" r="1.88" fill="#08090C"></circle><circle cx="309.39" cy="570.51" r="2.04" fill="#08090C"></circle><circle cx="365.35" cy="570.51" r="2.10" fill="#08090C"></circle><circle cx="402.65" cy="570.51" r="1.72" fill="#08090C"></circle><circle cx="421.30" cy="570.51" r="2.57" fill="#08090C"></circle><circle cx="439.95" cy="570.51" r="3.43" fill="#08090C"></circle><circle cx="458.61" cy="570.51" r="4.29" fill="#08090C"></circle><circle cx="477.26" cy="570.51" r="5.15" fill="#08090C"></circle><circle cx="495.91" cy="570.51" r="6.01" fill="#08090C"></circle><circle cx="514.56" cy="570.51" r="6.86" fill="#08090C"></circle><circle cx="533.21" cy="570.51" r="7.72" fill="#08090C"></circle><circle cx="551.86" cy="570.51" r="8.58" fill="#08090C"></circle><circle cx="234.79" cy="589.17" r="1.58" fill="#08090C"></circle><circle cx="290.74" cy="589.17" r="1.95" fill="#08090C"></circle><circle cx="402.65" cy="589.17" r="1.72" fill="#08090C"></circle><circle cx="421.30" cy="589.17" r="2.57" fill="#08090C"></circle><circle cx="439.95" cy="589.17" r="3.43" fill="#08090C"></circle><circle cx="458.61" cy="589.17" r="4.29" fill="#08090C"></circle><circle cx="477.26" cy="589.17" r="5.15" fill="#08090C"></circle><circle cx="495.91" cy="589.17" r="6.01" fill="#08090C"></circle><circle cx="514.56" cy="589.17" r="6.86" fill="#08090C"></circle><circle cx="533.21" cy="589.17" r="7.72" fill="#08090C"></circle><circle cx="290.74" cy="607.82" r="1.55" fill="#08090C"></circle><circle cx="309.39" cy="607.82" r="1.57" fill="#08090C"></circle><circle cx="328.05" cy="607.82" r="1.59" fill="#08090C"></circle><circle cx="402.65" cy="607.82" r="1.72" fill="#08090C"></circle><circle cx="421.30" cy="607.82" r="2.57" fill="#08090C"></circle><circle cx="439.95" cy="607.82" r="3.43" fill="#08090C"></circle><circle cx="458.61" cy="607.82" r="4.29" fill="#08090C"></circle><circle cx="477.26" cy="607.82" r="5.15" fill="#08090C"></circle><circle cx="495.91" cy="607.82" r="6.01" fill="#08090C"></circle><circle cx="514.56" cy="607.82" r="6.86" fill="#08090C"></circle><circle cx="365.35" cy="626.47" r="2.17" fill="#08090C"></circle><circle cx="384.00" cy="626.47" r="1.75" fill="#08090C"></circle><circle cx="402.65" cy="626.47" r="1.72" fill="#08090C"></circle><circle cx="421.30" cy="626.47" r="2.57" fill="#08090C"></circle><circle cx="439.95" cy="626.47" r="3.43" fill="#08090C"></circle><circle cx="458.61" cy="626.47" r="4.29" fill="#08090C"></circle><circle cx="477.26" cy="626.47" r="5.15" fill="#08090C"></circle><circle cx="384.00" cy="645.12" r="1.66" fill="#08090C"></circle><text x="814.08" y="500.28" font-family="&#39;Inter Tight&#39;,&#39;Helvetica Neue&#39;,Arial,sans-serif" font-weight="600" font-size="323" letter-spacing="-0.025em" fill="#08090C">dolunay<tspan opacity="0.55">.ai</tspan></text></svg>