<svg xmlns="http://www.w3.org/2000/svg" viewBox="0 0 1500 1500" width="1500" height="1500"><circle cx="750.00" cy="330.00" r="2.31" fill="#08090C"></circle><circle cx="707.14" cy="351.43" r="2.10" fill="#08090C"></circle><circle cx="750.00" cy="351.43" r="2.59" fill="#08090C"></circle><circle cx="771.43" cy="351.43" r="1.97" fill="#08090C"></circle><circle cx="792.86" cy="351.43" r="2.96" fill="#08090C"></circle><circle cx="814.29" cy="351.43" r="3.94" fill="#08090C"></circle><circle cx="835.71" cy="351.43" r="4.93" fill="#08090C"></circle><circle cx="857.14" cy="351.43" r="5.91" fill="#08090C"></circle><circle cx="621.43" cy="372.86" r="1.81" fill="#08090C"></circle><circle cx="642.86" cy="372.86" r="2.26" fill="#08090C"></circle><circle cx="771.43" cy="372.86" r="1.97" fill="#08090C"></circle><circle cx="792.86" cy="372.86" r="2.96" fill="#08090C"></circle><circle cx="814.29" cy="372.86" r="3.94" fill="#08090C"></circle><circle cx="835.71" cy="372.86" r="4.93" fill="#08090C"></circle><circle cx="857.14" cy="372.86" r="5.91" fill="#08090C"></circle><circle cx="878.57" cy="372.86" r="6.90" fill="#08090C"></circle><circle cx="900.00" cy="372.86" r="7.89" fill="#08090C"></circle><circle cx="621.43" cy="394.29" r="1.89" fill="#08090C"></circle><circle cx="707.14" cy="394.29" r="2.09" fill="#08090C"></circle><circle cx="750.00" cy="394.29" r="2.25" fill="#08090C"></circle><circle cx="771.43" cy="394.29" r="1.97" fill="#08090C"></circle><circle cx="792.86" cy="394.29" r="2.96" fill="#08090C"></circle><circle cx="814.29" cy="394.29" r="3.94" fill="#08090C"></circle><circle cx="835.71" cy="394.29" r="4.93" fill="#08090C"></circle><circle cx="857.14" cy="394.29" r="5.91" fill="#08090C"></circle><circle cx="878.57" cy="394.29" r="6.90" fill="#08090C"></circle><circle cx="900.00" cy="394.29" r="7.89" fill="#08090C"></circle><circle cx="921.43" cy="394.29" r="8.87" fill="#08090C"></circle><circle cx="664.29" cy="415.71" r="2.30" fill="#08090C"></circle><circle cx="685.71" cy="415.71" r="2.08" fill="#08090C"></circle><circle cx="750.00" cy="415.71" r="1.86" fill="#08090C"></circle><circle cx="771.43" cy="415.71" r="1.97" fill="#08090C"></circle><circle cx="792.86" cy="415.71" r="2.96" fill="#08090C"></circle><circle cx="814.29" cy="415.71" r="3.94" fill="#08090C"></circle><circle cx="835.71" cy="415.71" r="4.93" fill="#08090C"></circle><circle cx="857.14" cy="415.71" r="5.91" fill="#08090C"></circle><circle cx="878.57" cy="415.71" r="6.90" fill="#08090C"></circle><circle cx="900.00" cy="415.71" r="7.89" fill="#08090C"></circle><circle cx="921.43" cy="415.71" r="8.87" fill="#08090C"></circle><circle cx="942.86" cy="415.71" r="9.86" fill="#08090C"></circle><circle cx="600.00" cy="437.14" r="1.99" fill="#08090C"></circle><circle cx="707.14" cy="437.14" r="1.81" fill="#08090C"></circle><circle cx="771.43" cy="437.14" r="1.97" fill="#08090C"></circle><circle cx="792.86" cy="437.14" r="2.96" fill="#08090C"></circle><circle cx="814.29" cy="437.14" r="3.94" fill="#08090C"></circle><circle cx="835.71" cy="437.14" r="4.93" fill="#08090C"></circle><circle cx="857.14" cy="437.14" r="5.91" fill="#08090C"></circle><circle cx="878.57" cy="437.14" r="6.90" fill="#08090C"></circle><circle cx="900.00" cy="437.14" r="7.89" fill="#08090C"></circle><circle cx="921.43" cy="437.14" r="8.87" fill="#08090C"></circle><circle cx="942.86" cy="437.14" r="9.86" fill="#08090C"></circle><circle cx="964.29" cy="437.14" r="9.86" fill="#08090C"></circle><circle cx="578.57" cy="458.57" r="2.04" fill="#08090C"></circle><circle cx="600.00" cy="458.57" r="1.92" fill="#08090C"></circle><circle cx="642.86" cy="458.57" r="2.00" fill="#08090C"></circle><circle cx="664.29" cy="458.57" r="2.25" fill="#08090C"></circle><circle cx="750.00" cy="458.57" r="2.46" fill="#08090C"></circle><circle cx="771.43" cy="458.57" r="1.97" fill="#08090C"></circle><circle cx="792.86" cy="458.57" r="2.96" fill="#08090C"></circle><circle cx="814.29" cy="458.57" r="3.94" fill="#08090C"></circle><circle cx="835.71" cy="458.57" r="4.93" fill="#08090C"></circle><circle cx="857.14" cy="458.57" r="5.91" fill="#08090C"></circle><circle cx="878.57" cy="458.57" r="6.90" fill="#08090C"></circle><circle cx="900.00" cy="458.57" r="7.89" fill="#08090C"></circle><circle cx="921.43" cy="458.57" r="8.87" fill="#08090C"></circle><circle cx="942.86" cy="458.57" r="9.86" fill="#08090C"></circle><circle cx="964.29" cy="458.57" r="9.86" fill="#08090C"></circle><circle cx="985.71" cy="458.57" r="9.86" fill="#08090C"></circle><circle cx="621.43" cy="480.00" r="2.27" fill="#08090C"></circle><circle cx="728.57" cy="480.00" r="2.38" fill="#08090C"></circle><circle cx="771.43" cy="480.00" r="1.97" fill="#08090C"></circle><circle cx="792.86" cy="480.00" r="2.96" fill="#08090C"></circle><circle cx="814.29" cy="480.00" r="3.94" fill="#08090C"></circle><circle cx="835.71" cy="480.00" r="4.93" fill="#08090C"></circle><circle cx="857.14" cy="480.00" r="5.91" fill="#08090C"></circle><circle cx="878.57" cy="480.00" r="6.90" fill="#08090C"></circle><circle cx="900.00" cy="480.00" r="7.89" fill="#08090C"></circle><circle cx="921.43" cy="480.00" r="8.87" fill="#08090C"></circle><circle cx="942.86" cy="480.00" r="9.86" fill="#08090C"></circle><circle cx="964.29" cy="480.00" r="9.86" fill="#08090C"></circle><circle cx="985.71" cy="480.00" r="9.86" fill="#08090C"></circle><circle cx="1007.14" cy="480.00" r="9.86" fill="#08090C"></circle><circle cx="600.00" cy="501.43" r="1.94" fill="#08090C"></circle><circle cx="642.86" cy="501.43" r="2.09" fill="#08090C"></circle><circle cx="664.29" cy="501.43" r="2.23" fill="#08090C"></circle><circle cx="707.14" cy="501.43" r="2.01" fill="#08090C"></circle><circle cx="771.43" cy="501.43" r="1.97" fill="#08090C"></circle><circle cx="792.86" cy="501.43" r="2.96" fill="#08090C"></circle><circle cx="814.29" cy="501.43" r="3.94" fill="#08090C"></circle><circle cx="835.71" cy="501.43" r="4.93" fill="#08090C"></circle><circle cx="857.14" cy="501.43" r="5.91" fill="#08090C"></circle><circle cx="878.57" cy="501.43" r="6.90" fill="#08090C"></circle><circle cx="900.00" cy="501.43" r="7.89" fill="#08090C"></circle><circle cx="921.43" cy="501.43" r="8.87" fill="#08090C"></circle><circle cx="942.86" cy="501.43" r="9.86" fill="#08090C"></circle><circle cx="964.29" cy="501.43" r="9.86" fill="#08090C"></circle><circle cx="985.71" cy="501.43" r="9.86" fill="#08090C"></circle><circle cx="1007.14" cy="501.43" r="9.86" fill="#08090C"></circle><circle cx="557.14" cy="522.86" r="1.88" fill="#08090C"></circle><circle cx="642.86" cy="522.86" r="1.90" fill="#08090C"></circle><circle cx="664.29" cy="522.86" r="1.96" fill="#08090C"></circle><circle cx="685.71" cy="522.86" r="2.13" fill="#08090C"></circle><circle cx="707.14" cy="522.86" r="1.99" fill="#08090C"></circle><circle cx="728.57" cy="522.86" r="1.92" fill="#08090C"></circle><circle cx="750.00" cy="522.86" r="2.12" fill="#08090C"></circle><circle cx="771.43" cy="522.86" r="1.97" fill="#08090C"></circle><circle cx="792.86" cy="522.86" r="2.96" fill="#08090C"></circle><circle cx="814.29" cy="522.86" r="3.94" fill="#08090C"></circle><circle cx="835.71" cy="522.86" r="4.93" fill="#08090C"></circle><circle cx="857.14" cy="522.86" r="5.91" fill="#08090C"></circle><circle cx="878.57" cy="522.86" r="6.90" fill="#08090C"></circle><circle cx="900.00" cy="522.86" r="7.89" fill="#08090C"></circle><circle cx="921.43" cy="522.86" r="8.87" fill="#08090C"></circle><circle cx="942.86" cy="522.86" r="9.86" fill="#08090C"></circle><circle cx="964.29" cy="522.86" r="9.86" fill="#08090C"></circle><circle cx="985.71" cy="522.86" r="9.86" fill="#08090C"></circle><circle cx="1007.14" cy="522.86" r="9.86" fill="#08090C"></circle><circle cx="1028.57" cy="522.86" r="9.86" fill="#08090C"></circle><circle cx="492.86" cy="544.29" r="1.87" fill="#08090C"></circle><circle cx="535.71" cy="544.29" r="2.01" fill="#08090C"></circle><circle cx="600.00" cy="544.29" r="2.19" fill="#08090C"></circle><circle cx="664.29" cy="544.29" r="1.87" fill="#08090C"></circle><circle cx="707.14" cy="544.29" r="2.49" fill="#08090C"></circle><circle cx="728.57" cy="544.29" r="2.29" fill="#08090C"></circle><circle cx="771.43" cy="544.29" r="1.97" fill="#08090C"></circle><circle cx="792.86" cy="544.29" r="2.96" fill="#08090C"></circle><circle cx="814.29" cy="544.29" r="3.94" fill="#08090C"></circle><circle cx="835.71" cy="544.29" r="4.93" fill="#08090C"></circle><circle cx="857.14" cy="544.29" r="5.91" fill="#08090C"></circle><circle cx="878.57" cy="544.29" r="6.90" fill="#08090C"></circle><circle cx="900.00" cy="544.29" r="7.89" fill="#08090C"></circle><circle cx="921.43" cy="544.29" r="8.87" fill="#08090C"></circle><circle cx="942.86" cy="544.29" r="9.86" fill="#08090C"></circle><circle cx="964.29" cy="544.29" r="9.86" fill="#08090C"></circle><circle cx="985.71" cy="544.29" r="9.86" fill="#08090C"></circle><circle cx="1007.14" cy="544.29" r="9.86" fill="#08090C"></circle><circle cx="1028.57" cy="544.29" r="9.86" fill="#08090C"></circle><circle cx="535.71" cy="565.71" r="1.98" fill="#08090C"></circle><circle cx="578.57" cy="565.71" r="1.96" fill="#08090C"></circle><circle cx="664.29" cy="565.71" r="1.78" fill="#08090C"></circle><circle cx="685.71" cy="565.71" r="1.95" fill="#08090C"></circle><circle cx="707.14" cy="565.71" r="1.97" fill="#08090C"></circle><circle cx="728.57" cy="565.71" r="1.86" fill="#08090C"></circle><circle cx="771.43" cy="565.71" r="1.97" fill="#08090C"></circle><circle cx="792.86" cy="565.71" r="2.96" fill="#08090C"></circle><circle cx="814.29" cy="565.71" r="3.94" fill="#08090C"></circle><circle cx="835.71" cy="565.71" r="4.93" fill="#08090C"></circle><circle cx="857.14" cy="565.71" r="5.91" fill="#08090C"></circle><circle cx="878.57" cy="565.71" r="6.90" fill="#08090C"></circle><circle cx="900.00" cy="565.71" r="7.89" fill="#08090C"></circle><circle cx="921.43" cy="565.71" r="8.87" fill="#08090C"></circle><circle cx="942.86" cy="565.71" r="9.86" fill="#08090C"></circle><circle cx="964.29" cy="565.71" r="9.86" fill="#08090C"></circle><circle cx="985.71" cy="565.71" r="9.86" fill="#08090C"></circle><circle cx="1007.14" cy="565.71" r="9.86" fill="#08090C"></circle><circle cx="1028.57" cy="565.71" r="9.86" fill="#08090C"></circle><circle cx="578.57" cy="587.14" r="1.80" fill="#08090C"></circle><circle cx="600.00" cy="587.14" r="1.89" fill="#08090C"></circle><circle cx="771.43" cy="587.14" r="1.97" fill="#08090C"></circle><circle cx="792.86" cy="587.14" r="2.96" fill="#08090C"></circle><circle cx="814.29" cy="587.14" r="3.94" fill="#08090C"></circle><circle cx="835.71" cy="587.14" r="4.93" fill="#08090C"></circle><circle cx="857.14" cy="587.14" r="5.91" fill="#08090C"></circle><circle cx="878.57" cy="587.14" r="6.90" fill="#08090C"></circle><circle cx="900.00" cy="587.14" r="7.89" fill="#08090C"></circle><circle cx="921.43" cy="587.14" r="8.87" fill="#08090C"></circle><circle cx="942.86" cy="587.14" r="9.86" fill="#08090C"></circle><circle cx="964.29" cy="587.14" r="9.86" fill="#08090C"></circle><circle cx="985.71" cy="587.14" r="9.86" fill="#08090C"></circle><circle cx="1007.14" cy="587.14" r="9.86" fill="#08090C"></circle><circle cx="1028.57" cy="587.14" r="9.86" fill="#08090C"></circle><circle cx="707.14" cy="608.57" r="1.79" fill="#08090C"></circle><circle cx="728.57" cy="608.57" r="2.23" fill="#08090C"></circle><circle cx="750.00" cy="608.57" r="2.63" fill="#08090C"></circle><circle cx="771.43" cy="608.57" r="1.97" fill="#08090C"></circle><circle cx="792.86" cy="608.57" r="2.96" fill="#08090C"></circle><circle cx="814.29" cy="608.57" r="3.94" fill="#08090C"></circle><circle cx="835.71" cy="608.57" r="4.93" fill="#08090C"></circle><circle cx="857.14" cy="608.57" r="5.91" fill="#08090C"></circle><circle cx="878.57" cy="608.57" r="6.90" fill="#08090C"></circle><circle cx="900.00" cy="608.57" r="7.89" fill="#08090C"></circle><circle cx="921.43" cy="608.57" r="8.87" fill="#08090C"></circle><circle cx="942.86" cy="608.57" r="9.86" fill="#08090C"></circle><circle cx="964.29" cy="608.57" r="9.86" fill="#08090C"></circle><circle cx="985.71" cy="608.57" r="9.86" fill="#08090C"></circle><circle cx="1007.14" cy="608.57" r="9.86" fill="#08090C"></circle><circle cx="1028.57" cy="608.57" r="9.86" fill="#08090C"></circle><circle cx="578.57" cy="630.00" r="1.90" fill="#08090C"></circle><circle cx="621.43" cy="630.00" r="1.99" fill="#08090C"></circle><circle cx="685.71" cy="630.00" r="1.99" fill="#08090C"></circle><circle cx="707.14" cy="630.00" r="2.48" fill="#08090C"></circle><circle cx="728.57" cy="630.00" r="2.05" fill="#08090C"></circle><circle cx="771.43" cy="630.00" r="1.97" fill="#08090C"></circle><circle cx="792.86" cy="630.00" r="2.96" fill="#08090C"></circle><circle cx="814.29" cy="630.00" r="3.94" fill="#08090C"></circle><circle cx="835.71" cy="630.00" r="4.93" fill="#08090C"></circle><circle cx="857.14" cy="630.00" r="5.91" fill="#08090C"></circle><circle cx="878.57" cy="630.00" r="6.90" fill="#08090C"></circle><circle cx="900.00" cy="630.00" r="7.89" fill="#08090C"></circle><circle cx="921.43" cy="630.00" r="8.87" fill="#08090C"></circle><circle cx="942.86" cy="630.00" r="9.86" fill="#08090C"></circle><circle cx="964.29" cy="630.00" r="9.86" fill="#08090C"></circle><circle cx="985.71" cy="630.00" r="9.86" fill="#08090C"></circle><circle cx="1007.14" cy="630.00" r="9.86" fill="#08090C"></circle><circle cx="1028.57" cy="630.00" r="9.86" fill="#08090C"></circle><circle cx="1050.00" cy="630.00" r="9.86" fill="#08090C"></circle><circle cx="600.00" cy="651.43" r="1.96" fill="#08090C"></circle><circle cx="664.29" cy="651.43" r="1.97" fill="#08090C"></circle><circle cx="685.71" cy="651.43" r="2.38" fill="#08090C"></circle><circle cx="728.57" cy="651.43" r="2.22" fill="#08090C"></circle><circle cx="750.00" cy="651.43" r="1.80" fill="#08090C"></circle><circle cx="771.43" cy="651.43" r="1.97" fill="#08090C"></circle><circle cx="792.86" cy="651.43" r="2.96" fill="#08090C"></circle><circle cx="814.29" cy="651.43" r="3.94" fill="#08090C"></circle><circle cx="835.71" cy="651.43" r="4.93" fill="#08090C"></circle><circle cx="857.14" cy="651.43" r="5.91" fill="#08090C"></circle><circle cx="878.57" cy="651.43" r="6.90" fill="#08090C"></circle><circle cx="900.00" cy="651.43" r="7.89" fill="#08090C"></circle><circle cx="921.43" cy="651.43" r="8.87" fill="#08090C"></circle><circle cx="942.86" cy="651.43" r="9.86" fill="#08090C"></circle><circle cx="964.29" cy="651.43" r="9.86" fill="#08090C"></circle><circle cx="985.71" cy="651.43" r="9.86" fill="#08090C"></circle><circle cx="1007.14" cy="651.43" r="9.86" fill="#08090C"></circle><circle cx="1028.57" cy="651.43" r="9.86" fill="#08090C"></circle><circle cx="621.43" cy="672.86" r="1.88" fill="#08090C"></circle><circle cx="642.86" cy="672.86" r="1.85" fill="#08090C"></circle><circle cx="728.57" cy="672.86" r="2.38" fill="#08090C"></circle><circle cx="771.43" cy="672.86" r="1.97" fill="#08090C"></circle><circle cx="792.86" cy="672.86" r="2.96" fill="#08090C"></circle><circle cx="814.29" cy="672.86" r="3.94" fill="#08090C"></circle><circle cx="835.71" cy="672.86" r="4.93" fill="#08090C"></circle><circle cx="857.14" cy="672.86" r="5.91" fill="#08090C"></circle><circle cx="878.57" cy="672.86" r="6.90" fill="#08090C"></circle><circle cx="900.00" cy="672.86" r="7.89" fill="#08090C"></circle><circle cx="921.43" cy="672.86" r="8.87" fill="#08090C"></circle><circle cx="942.86" cy="672.86" r="9.86" fill="#08090C"></circle><circle cx="964.29" cy="672.86" r="9.86" fill="#08090C"></circle><circle cx="985.71" cy="672.86" r="9.86" fill="#08090C"></circle><circle cx="1007.14" cy="672.86" r="9.86" fill="#08090C"></circle><circle cx="1028.57" cy="672.86" r="9.86" fill="#08090C"></circle><circle cx="600.00" cy="694.29" r="2.05" fill="#08090C"></circle><circle cx="621.43" cy="694.29" r="2.09" fill="#08090C"></circle><circle cx="707.14" cy="694.29" r="2.31" fill="#08090C"></circle><circle cx="728.57" cy="694.29" r="2.28" fill="#08090C"></circle><circle cx="771.43" cy="694.29" r="1.97" fill="#08090C"></circle><circle cx="792.86" cy="694.29" r="2.96" fill="#08090C"></circle><circle cx="814.29" cy="694.29" r="3.94" fill="#08090C"></circle><circle cx="835.71" cy="694.29" r="4.93" fill="#08090C"></circle><circle cx="857.14" cy="694.29" r="5.91" fill="#08090C"></circle><circle cx="878.57" cy="694.29" r="6.90" fill="#08090C"></circle><circle cx="900.00" cy="694.29" r="7.89" fill="#08090C"></circle><circle cx="921.43" cy="694.29" r="8.87" fill="#08090C"></circle><circle cx="942.86" cy="694.29" r="9.86" fill="#08090C"></circle><circle cx="964.29" cy="694.29" r="9.86" fill="#08090C"></circle><circle cx="985.71" cy="694.29" r="9.86" fill="#08090C"></circle><circle cx="1007.14" cy="694.29" r="9.86" fill="#08090C"></circle><circle cx="1028.57" cy="694.29" r="9.86" fill="#08090C"></circle><circle cx="535.71" cy="715.71" r="2.01" fill="#08090C"></circle><circle cx="557.14" cy="715.71" r="1.82" fill="#08090C"></circle><circle cx="600.00" cy="715.71" r="1.82" fill="#08090C"></circle><circle cx="664.29" cy="715.71" r="1.89" fill="#08090C"></circle><circle cx="728.57" cy="715.71" r="2.37" fill="#08090C"></circle><circle cx="771.43" cy="715.71" r="1.97" fill="#08090C"></circle><circle cx="792.86" cy="715.71" r="2.96" fill="#08090C"></circle><circle cx="814.29" cy="715.71" r="3.94" fill="#08090C"></circle><circle cx="835.71" cy="715.71" r="4.93" fill="#08090C"></circle><circle cx="857.14" cy="715.71" r="5.91" fill="#08090C"></circle><circle cx="878.57" cy="715.71" r="6.90" fill="#08090C"></circle><circle cx="900.00" cy="715.71" r="7.89" fill="#08090C"></circle><circle cx="921.43" cy="715.71" r="8.87" fill="#08090C"></circle><circle cx="942.86" cy="715.71" r="9.86" fill="#08090C"></circle><circle cx="964.29" cy="715.71" r="9.86" fill="#08090C"></circle><circle cx="985.71" cy="715.71" r="9.86" fill="#08090C"></circle><circle cx="1007.14" cy="715.71" r="9.86" fill="#08090C"></circle><circle cx="1028.57" cy="715.71" r="9.86" fill="#08090C"></circle><circle cx="707.14" cy="737.14" r="2.07" fill="#08090C"></circle><circle cx="771.43" cy="737.14" r="1.97" fill="#08090C"></circle><circle cx="792.86" cy="737.14" r="2.96" fill="#08090C"></circle><circle cx="814.29" cy="737.14" r="3.94" fill="#08090C"></circle><circle cx="835.71" cy="737.14" r="4.93" fill="#08090C"></circle><circle cx="857.14" cy="737.14" r="5.91" fill="#08090C"></circle><circle cx="878.57" cy="737.14" r="6.90" fill="#08090C"></circle><circle cx="900.00" cy="737.14" r="7.89" fill="#08090C"></circle><circle cx="921.43" cy="737.14" r="8.87" fill="#08090C"></circle><circle cx="942.86" cy="737.14" r="9.86" fill="#08090C"></circle><circle cx="964.29" cy="737.14" r="9.86" fill="#08090C"></circle><circle cx="985.71" cy="737.14" r="9.86" fill="#08090C"></circle><circle cx="1007.14" cy="737.14" r="9.86" fill="#08090C"></circle><circle cx="1028.57" cy="737.14" r="9.86" fill="#08090C"></circle><circle cx="578.57" cy="758.57" r="2.06" fill="#08090C"></circle><circle cx="600.00" cy="758.57" r="2.14" fill="#08090C"></circle><circle cx="685.71" cy="758.57" r="1.90" fill="#08090C"></circle><circle cx="707.14" cy="758.57" r="1.81" fill="#08090C"></circle><circle cx="728.57" cy="758.57" r="1.86" fill="#08090C"></circle><circle cx="750.00" cy="758.57" r="1.82" fill="#08090C"></circle><circle cx="771.43" cy="758.57" r="1.97" fill="#08090C"></circle><circle cx="792.86" cy="758.57" r="2.96" fill="#08090C"></circle><circle cx="814.29" cy="758.57" r="3.94" fill="#08090C"></circle><circle cx="835.71" cy="758.57" r="4.93" fill="#08090C"></circle><circle cx="857.14" cy="758.57" r="5.91" fill="#08090C"></circle><circle cx="878.57" cy="758.57" r="6.90" fill="#08090C"></circle><circle cx="900.00" cy="758.57" r="7.89" fill="#08090C"></circle><circle cx="921.43" cy="758.57" r="8.87" fill="#08090C"></circle><circle cx="942.86" cy="758.57" r="9.86" fill="#08090C"></circle><circle cx="964.29" cy="758.57" r="9.86" fill="#08090C"></circle><circle cx="985.71" cy="758.57" r="9.86" fill="#08090C"></circle><circle cx="1007.14" cy="758.57" r="9.86" fill="#08090C"></circle><circle cx="514.29" cy="780.00" r="1.85" fill="#08090C"></circle><circle cx="557.14" cy="780.00" r="2.05" fill="#08090C"></circle><circle cx="664.29" cy="780.00" r="2.39" fill="#08090C"></circle><circle cx="685.71" cy="780.00" r="2.21" fill="#08090C"></circle><circle cx="750.00" cy="780.00" r="2.46" fill="#08090C"></circle><circle cx="771.43" cy="780.00" r="1.97" fill="#08090C"></circle><circle cx="792.86" cy="780.00" r="2.96" fill="#08090C"></circle><circle cx="814.29" cy="780.00" r="3.94" fill="#08090C"></circle><circle cx="835.71" cy="780.00" r="4.93" fill="#08090C"></circle><circle cx="857.14" cy="780.00" r="5.91" fill="#08090C"></circle><circle cx="878.57" cy="780.00" r="6.90" fill="#08090C"></circle><circle cx="900.00" cy="780.00" r="7.89" fill="#08090C"></circle><circle cx="921.43" cy="780.00" r="8.87" fill="#08090C"></circle><circle cx="942.86" cy="780.00" r="9.86" fill="#08090C"></circle><circle cx="964.29" cy="780.00" r="9.86" fill="#08090C"></circle><circle cx="985.71" cy="780.00" r="9.86" fill="#08090C"></circle><circle cx="1007.14" cy="780.00" r="9.86" fill="#08090C"></circle><circle cx="578.57" cy="801.43" r="1.86" fill="#08090C"></circle><circle cx="600.00" cy="801.43" r="2.18" fill="#08090C"></circle><circle cx="621.43" cy="801.43" r="2.12" fill="#08090C"></circle><circle cx="664.29" cy="801.43" r="2.08" fill="#08090C"></circle><circle cx="728.57" cy="801.43" r="2.51" fill="#08090C"></circle><circle cx="750.00" cy="801.43" r="2.29" fill="#08090C"></circle><circle cx="771.43" cy="801.43" r="1.97" fill="#08090C"></circle><circle cx="792.86" cy="801.43" r="2.96" fill="#08090C"></circle><circle cx="814.29" cy="801.43" r="3.94" fill="#08090C"></circle><circle cx="835.71" cy="801.43" r="4.93" fill="#08090C"></circle><circle cx="857.14" cy="801.43" r="5.91" fill="#08090C"></circle><circle cx="878.57" cy="801.43" r="6.90" fill="#08090C"></circle><circle cx="900.00" cy="801.43" r="7.89" fill="#08090C"></circle><circle cx="921.43" cy="801.43" r="8.87" fill="#08090C"></circle><circle cx="942.86" cy="801.43" r="9.86" fill="#08090C"></circle><circle cx="964.29" cy="801.43" r="9.86" fill="#08090C"></circle><circle cx="985.71" cy="801.43" r="9.86" fill="#08090C"></circle><circle cx="557.14" cy="822.86" r="1.84" fill="#08090C"></circle><circle cx="578.57" cy="822.86" r="1.91" fill="#08090C"></circle><circle cx="600.00" cy="822.86" r="1.98" fill="#08090C"></circle><circle cx="642.86" cy="822.86" r="2.28" fill="#08090C"></circle><circle cx="685.71" cy="822.86" r="2.15" fill="#08090C"></circle><circle cx="771.43" cy="822.86" r="1.97" fill="#08090C"></circle><circle cx="792.86" cy="822.86" r="2.96" fill="#08090C"></circle><circle cx="814.29" cy="822.86" r="3.94" fill="#08090C"></circle><circle cx="835.71" cy="822.86" r="4.93" fill="#08090C"></circle><circle cx="857.14" cy="822.86" r="5.91" fill="#08090C"></circle><circle cx="878.57" cy="822.86" r="6.90" fill="#08090C"></circle><circle cx="900.00" cy="822.86" r="7.89" fill="#08090C"></circle><circle cx="921.43" cy="822.86" r="8.87" fill="#08090C"></circle><circle cx="942.86" cy="822.86" r="9.86" fill="#08090C"></circle><circle cx="964.29" cy="822.86" r="9.86" fill="#08090C"></circle><circle cx="621.43" cy="844.29" r="2.16" fill="#08090C"></circle><circle cx="664.29" cy="844.29" r="2.34" fill="#08090C"></circle><circle cx="728.57" cy="844.29" r="2.41" fill="#08090C"></circle><circle cx="771.43" cy="844.29" r="1.97" fill="#08090C"></circle><circle cx="792.86" cy="844.29" r="2.96" fill="#08090C"></circle><circle cx="814.29" cy="844.29" r="3.94" fill="#08090C"></circle><circle cx="835.71" cy="844.29" r="4.93" fill="#08090C"></circle><circle cx="857.14" cy="844.29" r="5.91" fill="#08090C"></circle><circle cx="878.57" cy="844.29" r="6.90" fill="#08090C"></circle><circle cx="900.00" cy="844.29" r="7.89" fill="#08090C"></circle><circle cx="921.43" cy="844.29" r="8.87" fill="#08090C"></circle><circle cx="942.86" cy="844.29" r="9.86" fill="#08090C"></circle><circle cx="578.57" cy="865.71" r="1.82" fill="#08090C"></circle><circle cx="642.86" cy="865.71" r="2.24" fill="#08090C"></circle><circle cx="771.43" cy="865.71" r="1.97" fill="#08090C"></circle><circle cx="792.86" cy="865.71" r="2.96" fill="#08090C"></circle><circle cx="814.29" cy="865.71" r="3.94" fill="#08090C"></circle><circle cx="835.71" cy="865.71" r="4.93" fill="#08090C"></circle><circle cx="857.14" cy="865.71" r="5.91" fill="#08090C"></circle><circle cx="878.57" cy="865.71" r="6.90" fill="#08090C"></circle><circle cx="900.00" cy="865.71" r="7.89" fill="#08090C"></circle><circle cx="921.43" cy="865.71" r="8.87" fill="#08090C"></circle><circle cx="642.86" cy="887.14" r="1.78" fill="#08090C"></circle><circle cx="664.29" cy="887.14" r="1.81" fill="#08090C"></circle><circle cx="685.71" cy="887.14" r="1.83" fill="#08090C"></circle><circle cx="771.43" cy="887.14" r="1.97" fill="#08090C"></circle><circle cx="792.86" cy="887.14" r="2.96" fill="#08090C"></circle><circle cx="814.29" cy="887.14" r="3.94" fill="#08090C"></circle><circle cx="835.71" cy="887.14" r="4.93" fill="#08090C"></circle><circle cx="857.14" cy="887.14" r="5.91" fill="#08090C"></circle><circle cx="878.57" cy="887.14" r="6.90" fill="#08090C"></circle><circle cx="900.00" cy="887.14" r="7.89" fill="#08090C"></circle><circle cx="728.57" cy="908.57" r="2.49" fill="#08090C"></circle><circle cx="750.00" cy="908.57" r="2.01" fill="#08090C"></circle><circle cx="771.43" cy="908.57" r="1.97" fill="#08090C"></circle><circle cx="792.86" cy="908.57" r="2.96" fill="#08090C"></circle><circle cx="814.29" cy="908.57" r="3.94" fill="#08090C"></circle><circle cx="835.71" cy="908.57" r="4.93" fill="#08090C"></circle><circle cx="857.14" cy="908.57" r="5.91" fill="#08090C"></circle><circle cx="750.00" cy="930.00" r="1.90" fill="#08090C"></circle><text x="750" y="1230" text-anchor="middle" font-family="&#39;Inter Tight&#39;,&#39;Helvetica Neue&#39;,Arial,sans-serif" font-weight="600" font-size="128" letter-spacing="-0.025em" fill="#08090C">dolunay<tspan opacity="0.55">.ai</tspan></text></svg>