<svg xmlns="http://www.w3.org/2000/svg" viewBox="0 0 1584 396" width="1584" height="396"><rect width="1584" height="396" fill="#08090C"></rect><circle cx="1465.20" cy="0.00" r="1.52" fill="#F4F4F8"></circle><circle cx="1436.91" cy="14.14" r="1.38" fill="#F4F4F8"></circle><circle cx="1465.20" cy="14.14" r="1.71" fill="#F4F4F8"></circle><circle cx="1479.34" cy="14.14" r="1.30" fill="#F4F4F8"></circle><circle cx="1493.49" cy="14.14" r="1.95" fill="#F4F4F8"></circle><circle cx="1507.63" cy="14.14" r="2.60" fill="#F4F4F8"></circle><circle cx="1521.77" cy="14.14" r="3.25" fill="#F4F4F8"></circle><circle cx="1535.91" cy="14.14" r="3.90" fill="#F4F4F8"></circle><circle cx="1380.34" cy="28.29" r="1.20" fill="#F4F4F8"></circle><circle cx="1394.49" cy="28.29" r="1.49" fill="#F4F4F8"></circle><circle cx="1479.34" cy="28.29" r="1.30" fill="#F4F4F8"></circle><circle cx="1493.49" cy="28.29" r="1.95" fill="#F4F4F8"></circle><circle cx="1507.63" cy="28.29" r="2.60" fill="#F4F4F8"></circle><circle cx="1521.77" cy="28.29" r="3.25" fill="#F4F4F8"></circle><circle cx="1535.91" cy="28.29" r="3.90" fill="#F4F4F8"></circle><circle cx="1550.06" cy="28.29" r="4.55" fill="#F4F4F8"></circle><circle cx="1564.20" cy="28.29" r="5.20" fill="#F4F4F8"></circle><circle cx="1380.34" cy="42.43" r="1.25" fill="#F4F4F8"></circle><circle cx="1436.91" cy="42.43" r="1.38" fill="#F4F4F8"></circle><circle cx="1465.20" cy="42.43" r="1.49" fill="#F4F4F8"></circle><circle cx="1479.34" cy="42.43" r="1.30" fill="#F4F4F8"></circle><circle cx="1493.49" cy="42.43" r="1.95" fill="#F4F4F8"></circle><circle cx="1507.63" cy="42.43" r="2.60" fill="#F4F4F8"></circle><circle cx="1521.77" cy="42.43" r="3.25" fill="#F4F4F8"></circle><circle cx="1535.91" cy="42.43" r="3.90" fill="#F4F4F8"></circle><circle cx="1550.06" cy="42.43" r="4.55" fill="#F4F4F8"></circle><circle cx="1564.20" cy="42.43" r="5.20" fill="#F4F4F8"></circle><circle cx="1578.34" cy="42.43" r="5.86" fill="#F4F4F8"></circle><circle cx="1408.63" cy="56.57" r="1.52" fill="#F4F4F8"></circle><circle cx="1422.77" cy="56.57" r="1.37" fill="#F4F4F8"></circle><circle cx="1465.20" cy="56.57" r="1.23" fill="#F4F4F8"></circle><circle cx="1479.34" cy="56.57" r="1.30" fill="#F4F4F8"></circle><circle cx="1493.49" cy="56.57" r="1.95" fill="#F4F4F8"></circle><circle cx="1507.63" cy="56.57" r="2.60" fill="#F4F4F8"></circle><circle cx="1521.77" cy="56.57" r="3.25" fill="#F4F4F8"></circle><circle cx="1535.91" cy="56.57" r="3.90" fill="#F4F4F8"></circle><circle cx="1550.06" cy="56.57" r="4.55" fill="#F4F4F8"></circle><circle cx="1564.20" cy="56.57" r="5.20" fill="#F4F4F8"></circle><circle cx="1578.34" cy="56.57" r="5.86" fill="#F4F4F8"></circle><circle cx="1592.49" cy="56.57" r="6.51" fill="#F4F4F8"></circle><circle cx="1366.20" cy="70.71" r="1.31" fill="#F4F4F8"></circle><circle cx="1436.91" cy="70.71" r="1.19" fill="#F4F4F8"></circle><circle cx="1479.34" cy="70.71" r="1.30" fill="#F4F4F8"></circle><circle cx="1493.49" cy="70.71" r="1.95" fill="#F4F4F8"></circle><circle cx="1507.63" cy="70.71" r="2.60" fill="#F4F4F8"></circle><circle cx="1521.77" cy="70.71" r="3.25" fill="#F4F4F8"></circle><circle cx="1535.91" cy="70.71" r="3.90" fill="#F4F4F8"></circle><circle cx="1550.06" cy="70.71" r="4.55" fill="#F4F4F8"></circle><circle cx="1564.20" cy="70.71" r="5.20" fill="#F4F4F8"></circle><circle cx="1578.34" cy="70.71" r="5.86" fill="#F4F4F8"></circle><circle cx="1592.49" cy="70.71" r="6.51" fill="#F4F4F8"></circle><circle cx="1606.63" cy="70.71" r="6.51" fill="#F4F4F8"></circle><circle cx="1352.06" cy="84.86" r="1.34" fill="#F4F4F8"></circle><circle cx="1366.20" cy="84.86" r="1.27" fill="#F4F4F8"></circle><circle cx="1394.49" cy="84.86" r="1.32" fill="#F4F4F8"></circle><circle cx="1408.63" cy="84.86" r="1.49" fill="#F4F4F8"></circle><circle cx="1465.20" cy="84.86" r="1.63" fill="#F4F4F8"></circle><circle cx="1479.34" cy="84.86" r="1.30" fill="#F4F4F8"></circle><circle cx="1493.49" cy="84.86" r="1.95" fill="#F4F4F8"></circle><circle cx="1507.63" cy="84.86" r="2.60" fill="#F4F4F8"></circle><circle cx="1521.77" cy="84.86" r="3.25" fill="#F4F4F8"></circle><circle cx="1535.91" cy="84.86" r="3.90" fill="#F4F4F8"></circle><circle cx="1550.06" cy="84.86" r="4.55" fill="#F4F4F8"></circle><circle cx="1564.20" cy="84.86" r="5.20" fill="#F4F4F8"></circle><circle cx="1578.34" cy="84.86" r="5.86" fill="#F4F4F8"></circle><circle cx="1592.49" cy="84.86" r="6.51" fill="#F4F4F8"></circle><circle cx="1606.63" cy="84.86" r="6.51" fill="#F4F4F8"></circle><circle cx="1620.77" cy="84.86" r="6.51" fill="#F4F4F8"></circle><circle cx="1380.34" cy="99.00" r="1.50" fill="#F4F4F8"></circle><circle cx="1451.06" cy="99.00" r="1.57" fill="#F4F4F8"></circle><circle cx="1479.34" cy="99.00" r="1.30" fill="#F4F4F8"></circle><circle cx="1493.49" cy="99.00" r="1.95" fill="#F4F4F8"></circle><circle cx="1507.63" cy="99.00" r="2.60" fill="#F4F4F8"></circle><circle cx="1521.77" cy="99.00" r="3.25" fill="#F4F4F8"></circle><circle cx="1535.91" cy="99.00" r="3.90" fill="#F4F4F8"></circle><circle cx="1550.06" cy="99.00" r="4.55" fill="#F4F4F8"></circle><circle cx="1564.20" cy="99.00" r="5.20" fill="#F4F4F8"></circle><circle cx="1578.34" cy="99.00" r="5.86" fill="#F4F4F8"></circle><circle cx="1592.49" cy="99.00" r="6.51" fill="#F4F4F8"></circle><circle cx="1606.63" cy="99.00" r="6.51" fill="#F4F4F8"></circle><circle cx="1620.77" cy="99.00" r="6.51" fill="#F4F4F8"></circle><circle cx="1634.91" cy="99.00" r="6.51" fill="#F4F4F8"></circle><circle cx="1366.20" cy="113.14" r="1.28" fill="#F4F4F8"></circle><circle cx="1394.49" cy="113.14" r="1.38" fill="#F4F4F8"></circle><circle cx="1408.63" cy="113.14" r="1.47" fill="#F4F4F8"></circle><circle cx="1436.91" cy="113.14" r="1.33" fill="#F4F4F8"></circle><circle cx="1479.34" cy="113.14" r="1.30" fill="#F4F4F8"></circle><circle cx="1493.49" cy="113.14" r="1.95" fill="#F4F4F8"></circle><circle cx="1507.63" cy="113.14" r="2.60" fill="#F4F4F8"></circle><circle cx="1521.77" cy="113.14" r="3.25" fill="#F4F4F8"></circle><circle cx="1535.91" cy="113.14" r="3.90" fill="#F4F4F8"></circle><circle cx="1550.06" cy="113.14" r="4.55" fill="#F4F4F8"></circle><circle cx="1564.20" cy="113.14" r="5.20" fill="#F4F4F8"></circle><circle cx="1578.34" cy="113.14" r="5.86" fill="#F4F4F8"></circle><circle cx="1592.49" cy="113.14" r="6.51" fill="#F4F4F8"></circle><circle cx="1606.63" cy="113.14" r="6.51" fill="#F4F4F8"></circle><circle cx="1620.77" cy="113.14" r="6.51" fill="#F4F4F8"></circle><circle cx="1634.91" cy="113.14" r="6.51" fill="#F4F4F8"></circle><circle cx="1337.91" cy="127.29" r="1.24" fill="#F4F4F8"></circle><circle cx="1394.49" cy="127.29" r="1.26" fill="#F4F4F8"></circle><circle cx="1408.63" cy="127.29" r="1.29" fill="#F4F4F8"></circle><circle cx="1422.77" cy="127.29" r="1.41" fill="#F4F4F8"></circle><circle cx="1436.91" cy="127.29" r="1.32" fill="#F4F4F8"></circle><circle cx="1451.06" cy="127.29" r="1.27" fill="#F4F4F8"></circle><circle cx="1465.20" cy="127.29" r="1.40" fill="#F4F4F8"></circle><circle cx="1479.34" cy="127.29" r="1.30" fill="#F4F4F8"></circle><circle cx="1493.49" cy="127.29" r="1.95" fill="#F4F4F8"></circle><circle cx="1507.63" cy="127.29" r="2.60" fill="#F4F4F8"></circle><circle cx="1521.77" cy="127.29" r="3.25" fill="#F4F4F8"></circle><circle cx="1535.91" cy="127.29" r="3.90" fill="#F4F4F8"></circle><circle cx="1550.06" cy="127.29" r="4.55" fill="#F4F4F8"></circle><circle cx="1564.20" cy="127.29" r="5.20" fill="#F4F4F8"></circle><circle cx="1578.34" cy="127.29" r="5.86" fill="#F4F4F8"></circle><circle cx="1592.49" cy="127.29" r="6.51" fill="#F4F4F8"></circle><circle cx="1606.63" cy="127.29" r="6.51" fill="#F4F4F8"></circle><circle cx="1620.77" cy="127.29" r="6.51" fill="#F4F4F8"></circle><circle cx="1634.91" cy="127.29" r="6.51" fill="#F4F4F8"></circle><circle cx="1649.06" cy="127.29" r="6.51" fill="#F4F4F8"></circle><circle cx="1295.49" cy="141.43" r="1.23" fill="#F4F4F8"></circle><circle cx="1323.77" cy="141.43" r="1.32" fill="#F4F4F8"></circle><circle cx="1366.20" cy="141.43" r="1.45" fill="#F4F4F8"></circle><circle cx="1408.63" cy="141.43" r="1.23" fill="#F4F4F8"></circle><circle cx="1436.91" cy="141.43" r="1.65" fill="#F4F4F8"></circle><circle cx="1451.06" cy="141.43" r="1.51" fill="#F4F4F8"></circle><circle cx="1479.34" cy="141.43" r="1.30" fill="#F4F4F8"></circle><circle cx="1493.49" cy="141.43" r="1.95" fill="#F4F4F8"></circle><circle cx="1507.63" cy="141.43" r="2.60" fill="#F4F4F8"></circle><circle cx="1521.77" cy="141.43" r="3.25" fill="#F4F4F8"></circle><circle cx="1535.91" cy="141.43" r="3.90" fill="#F4F4F8"></circle><circle cx="1550.06" cy="141.43" r="4.55" fill="#F4F4F8"></circle><circle cx="1564.20" cy="141.43" r="5.20" fill="#F4F4F8"></circle><circle cx="1578.34" cy="141.43" r="5.86" fill="#F4F4F8"></circle><circle cx="1592.49" cy="141.43" r="6.51" fill="#F4F4F8"></circle><circle cx="1606.63" cy="141.43" r="6.51" fill="#F4F4F8"></circle><circle cx="1620.77" cy="141.43" r="6.51" fill="#F4F4F8"></circle><circle cx="1634.91" cy="141.43" r="6.51" fill="#F4F4F8"></circle><circle cx="1649.06" cy="141.43" r="6.51" fill="#F4F4F8"></circle><circle cx="1323.77" cy="155.57" r="1.31" fill="#F4F4F8"></circle><circle cx="1352.06" cy="155.57" r="1.29" fill="#F4F4F8"></circle><circle cx="1408.63" cy="155.57" r="1.17" fill="#F4F4F8"></circle><circle cx="1422.77" cy="155.57" r="1.29" fill="#F4F4F8"></circle><circle cx="1436.91" cy="155.57" r="1.30" fill="#F4F4F8"></circle><circle cx="1451.06" cy="155.57" r="1.22" fill="#F4F4F8"></circle><circle cx="1479.34" cy="155.57" r="1.30" fill="#F4F4F8"></circle><circle cx="1493.49" cy="155.57" r="1.95" fill="#F4F4F8"></circle><circle cx="1507.63" cy="155.57" r="2.60" fill="#F4F4F8"></circle><circle cx="1521.77" cy="155.57" r="3.25" fill="#F4F4F8"></circle><circle cx="1535.91" cy="155.57" r="3.90" fill="#F4F4F8"></circle><circle cx="1550.06" cy="155.57" r="4.55" fill="#F4F4F8"></circle><circle cx="1564.20" cy="155.57" r="5.20" fill="#F4F4F8"></circle><circle cx="1578.34" cy="155.57" r="5.86" fill="#F4F4F8"></circle><circle cx="1592.49" cy="155.57" r="6.51" fill="#F4F4F8"></circle><circle cx="1606.63" cy="155.57" r="6.51" fill="#F4F4F8"></circle><circle cx="1620.77" cy="155.57" r="6.51" fill="#F4F4F8"></circle><circle cx="1634.91" cy="155.57" r="6.51" fill="#F4F4F8"></circle><circle cx="1649.06" cy="155.57" r="6.51" fill="#F4F4F8"></circle><circle cx="1352.06" cy="169.71" r="1.19" fill="#F4F4F8"></circle><circle cx="1366.20" cy="169.71" r="1.25" fill="#F4F4F8"></circle><circle cx="1479.34" cy="169.71" r="1.30" fill="#F4F4F8"></circle><circle cx="1493.49" cy="169.71" r="1.95" fill="#F4F4F8"></circle><circle cx="1507.63" cy="169.71" r="2.60" fill="#F4F4F8"></circle><circle cx="1521.77" cy="169.71" r="3.25" fill="#F4F4F8"></circle><circle cx="1535.91" cy="169.71" r="3.90" fill="#F4F4F8"></circle><circle cx="1550.06" cy="169.71" r="4.55" fill="#F4F4F8"></circle><circle cx="1564.20" cy="169.71" r="5.20" fill="#F4F4F8"></circle><circle cx="1578.34" cy="169.71" r="5.86" fill="#F4F4F8"></circle><circle cx="1592.49" cy="169.71" r="6.51" fill="#F4F4F8"></circle><circle cx="1606.63" cy="169.71" r="6.51" fill="#F4F4F8"></circle><circle cx="1620.77" cy="169.71" r="6.51" fill="#F4F4F8"></circle><circle cx="1634.91" cy="169.71" r="6.51" fill="#F4F4F8"></circle><circle cx="1649.06" cy="169.71" r="6.51" fill="#F4F4F8"></circle><circle cx="1436.91" cy="183.86" r="1.18" fill="#F4F4F8"></circle><circle cx="1451.06" cy="183.86" r="1.47" fill="#F4F4F8"></circle><circle cx="1465.20" cy="183.86" r="1.74" fill="#F4F4F8"></circle><circle cx="1479.34" cy="183.86" r="1.30" fill="#F4F4F8"></circle><circle cx="1493.49" cy="183.86" r="1.95" fill="#F4F4F8"></circle><circle cx="1507.63" cy="183.86" r="2.60" fill="#F4F4F8"></circle><circle cx="1521.77" cy="183.86" r="3.25" fill="#F4F4F8"></circle><circle cx="1535.91" cy="183.86" r="3.90" fill="#F4F4F8"></circle><circle cx="1550.06" cy="183.86" r="4.55" fill="#F4F4F8"></circle><circle cx="1564.20" cy="183.86" r="5.20" fill="#F4F4F8"></circle><circle cx="1578.34" cy="183.86" r="5.86" fill="#F4F4F8"></circle><circle cx="1592.49" cy="183.86" r="6.51" fill="#F4F4F8"></circle><circle cx="1606.63" cy="183.86" r="6.51" fill="#F4F4F8"></circle><circle cx="1620.77" cy="183.86" r="6.51" fill="#F4F4F8"></circle><circle cx="1634.91" cy="183.86" r="6.51" fill="#F4F4F8"></circle><circle cx="1649.06" cy="183.86" r="6.51" fill="#F4F4F8"></circle><circle cx="1352.06" cy="198.00" r="1.26" fill="#F4F4F8"></circle><circle cx="1380.34" cy="198.00" r="1.31" fill="#F4F4F8"></circle><circle cx="1422.77" cy="198.00" r="1.32" fill="#F4F4F8"></circle><circle cx="1436.91" cy="198.00" r="1.63" fill="#F4F4F8"></circle><circle cx="1451.06" cy="198.00" r="1.35" fill="#F4F4F8"></circle><circle cx="1479.34" cy="198.00" r="1.30" fill="#F4F4F8"></circle><circle cx="1493.49" cy="198.00" r="1.95" fill="#F4F4F8"></circle><circle cx="1507.63" cy="198.00" r="2.60" fill="#F4F4F8"></circle><circle cx="1521.77" cy="198.00" r="3.25" fill="#F4F4F8"></circle><circle cx="1535.91" cy="198.00" r="3.90" fill="#F4F4F8"></circle><circle cx="1550.06" cy="198.00" r="4.55" fill="#F4F4F8"></circle><circle cx="1564.20" cy="198.00" r="5.20" fill="#F4F4F8"></circle><circle cx="1578.34" cy="198.00" r="5.86" fill="#F4F4F8"></circle><circle cx="1592.49" cy="198.00" r="6.51" fill="#F4F4F8"></circle><circle cx="1606.63" cy="198.00" r="6.51" fill="#F4F4F8"></circle><circle cx="1620.77" cy="198.00" r="6.51" fill="#F4F4F8"></circle><circle cx="1634.91" cy="198.00" r="6.51" fill="#F4F4F8"></circle><circle cx="1649.06" cy="198.00" r="6.51" fill="#F4F4F8"></circle><circle cx="1663.20" cy="198.00" r="6.51" fill="#F4F4F8"></circle><circle cx="1366.20" cy="212.14" r="1.30" fill="#F4F4F8"></circle><circle cx="1408.63" cy="212.14" r="1.30" fill="#F4F4F8"></circle><circle cx="1422.77" cy="212.14" r="1.57" fill="#F4F4F8"></circle><circle cx="1451.06" cy="212.14" r="1.47" fill="#F4F4F8"></circle><circle cx="1465.20" cy="212.14" r="1.19" fill="#F4F4F8"></circle><circle cx="1479.34" cy="212.14" r="1.30" fill="#F4F4F8"></circle><circle cx="1493.49" cy="212.14" r="1.95" fill="#F4F4F8"></circle><circle cx="1507.63" cy="212.14" r="2.60" fill="#F4F4F8"></circle><circle cx="1521.77" cy="212.14" r="3.25" fill="#F4F4F8"></circle><circle cx="1535.91" cy="212.14" r="3.90" fill="#F4F4F8"></circle><circle cx="1550.06" cy="212.14" r="4.55" fill="#F4F4F8"></circle><circle cx="1564.20" cy="212.14" r="5.20" fill="#F4F4F8"></circle><circle cx="1578.34" cy="212.14" r="5.86" fill="#F4F4F8"></circle><circle cx="1592.49" cy="212.14" r="6.51" fill="#F4F4F8"></circle><circle cx="1606.63" cy="212.14" r="6.51" fill="#F4F4F8"></circle><circle cx="1620.77" cy="212.14" r="6.51" fill="#F4F4F8"></circle><circle cx="1634.91" cy="212.14" r="6.51" fill="#F4F4F8"></circle><circle cx="1649.06" cy="212.14" r="6.51" fill="#F4F4F8"></circle><circle cx="1380.34" cy="226.29" r="1.24" fill="#F4F4F8"></circle><circle cx="1394.49" cy="226.29" r="1.22" fill="#F4F4F8"></circle><circle cx="1451.06" cy="226.29" r="1.57" fill="#F4F4F8"></circle><circle cx="1479.34" cy="226.29" r="1.30" fill="#F4F4F8"></circle><circle cx="1493.49" cy="226.29" r="1.95" fill="#F4F4F8"></circle><circle cx="1507.63" cy="226.29" r="2.60" fill="#F4F4F8"></circle><circle cx="1521.77" cy="226.29" r="3.25" fill="#F4F4F8"></circle><circle cx="1535.91" cy="226.29" r="3.90" fill="#F4F4F8"></circle><circle cx="1550.06" cy="226.29" r="4.55" fill="#F4F4F8"></circle><circle cx="1564.20" cy="226.29" r="5.20" fill="#F4F4F8"></circle><circle cx="1578.34" cy="226.29" r="5.86" fill="#F4F4F8"></circle><circle cx="1592.49" cy="226.29" r="6.51" fill="#F4F4F8"></circle><circle cx="1606.63" cy="226.29" r="6.51" fill="#F4F4F8"></circle><circle cx="1620.77" cy="226.29" r="6.51" fill="#F4F4F8"></circle><circle cx="1634.91" cy="226.29" r="6.51" fill="#F4F4F8"></circle><circle cx="1649.06" cy="226.29" r="6.51" fill="#F4F4F8"></circle><circle cx="1366.20" cy="240.43" r="1.35" fill="#F4F4F8"></circle><circle cx="1380.34" cy="240.43" r="1.38" fill="#F4F4F8"></circle><circle cx="1436.91" cy="240.43" r="1.53" fill="#F4F4F8"></circle><circle cx="1451.06" cy="240.43" r="1.51" fill="#F4F4F8"></circle><circle cx="1479.34" cy="240.43" r="1.30" fill="#F4F4F8"></circle><circle cx="1493.49" cy="240.43" r="1.95" fill="#F4F4F8"></circle><circle cx="1507.63" cy="240.43" r="2.60" fill="#F4F4F8"></circle><circle cx="1521.77" cy="240.43" r="3.25" fill="#F4F4F8"></circle><circle cx="1535.91" cy="240.43" r="3.90" fill="#F4F4F8"></circle><circle cx="1550.06" cy="240.43" r="4.55" fill="#F4F4F8"></circle><circle cx="1564.20" cy="240.43" r="5.20" fill="#F4F4F8"></circle><circle cx="1578.34" cy="240.43" r="5.86" fill="#F4F4F8"></circle><circle cx="1592.49" cy="240.43" r="6.51" fill="#F4F4F8"></circle><circle cx="1606.63" cy="240.43" r="6.51" fill="#F4F4F8"></circle><circle cx="1620.77" cy="240.43" r="6.51" fill="#F4F4F8"></circle><circle cx="1634.91" cy="240.43" r="6.51" fill="#F4F4F8"></circle><circle cx="1649.06" cy="240.43" r="6.51" fill="#F4F4F8"></circle><circle cx="1323.77" cy="254.57" r="1.33" fill="#F4F4F8"></circle><circle cx="1337.91" cy="254.57" r="1.20" fill="#F4F4F8"></circle><circle cx="1366.20" cy="254.57" r="1.20" fill="#F4F4F8"></circle><circle cx="1408.63" cy="254.57" r="1.25" fill="#F4F4F8"></circle><circle cx="1451.06" cy="254.57" r="1.56" fill="#F4F4F8"></circle><circle cx="1479.34" cy="254.57" r="1.30" fill="#F4F4F8"></circle><circle cx="1493.49" cy="254.57" r="1.95" fill="#F4F4F8"></circle><circle cx="1507.63" cy="254.57" r="2.60" fill="#F4F4F8"></circle><circle cx="1521.77" cy="254.57" r="3.25" fill="#F4F4F8"></circle><circle cx="1535.91" cy="254.57" r="3.90" fill="#F4F4F8"></circle><circle cx="1550.06" cy="254.57" r="4.55" fill="#F4F4F8"></circle><circle cx="1564.20" cy="254.57" r="5.20" fill="#F4F4F8"></circle><circle cx="1578.34" cy="254.57" r="5.86" fill="#F4F4F8"></circle><circle cx="1592.49" cy="254.57" r="6.51" fill="#F4F4F8"></circle><circle cx="1606.63" cy="254.57" r="6.51" fill="#F4F4F8"></circle><circle cx="1620.77" cy="254.57" r="6.51" fill="#F4F4F8"></circle><circle cx="1634.91" cy="254.57" r="6.51" fill="#F4F4F8"></circle><circle cx="1649.06" cy="254.57" r="6.51" fill="#F4F4F8"></circle><circle cx="1436.91" cy="268.71" r="1.37" fill="#F4F4F8"></circle><circle cx="1479.34" cy="268.71" r="1.30" fill="#F4F4F8"></circle><circle cx="1493.49" cy="268.71" r="1.95" fill="#F4F4F8"></circle><circle cx="1507.63" cy="268.71" r="2.60" fill="#F4F4F8"></circle><circle cx="1521.77" cy="268.71" r="3.25" fill="#F4F4F8"></circle><circle cx="1535.91" cy="268.71" r="3.90" fill="#F4F4F8"></circle><circle cx="1550.06" cy="268.71" r="4.55" fill="#F4F4F8"></circle><circle cx="1564.20" cy="268.71" r="5.20" fill="#F4F4F8"></circle><circle cx="1578.34" cy="268.71" r="5.86" fill="#F4F4F8"></circle><circle cx="1592.49" cy="268.71" r="6.51" fill="#F4F4F8"></circle><circle cx="1606.63" cy="268.71" r="6.51" fill="#F4F4F8"></circle><circle cx="1620.77" cy="268.71" r="6.51" fill="#F4F4F8"></circle><circle cx="1634.91" cy="268.71" r="6.51" fill="#F4F4F8"></circle><circle cx="1649.06" cy="268.71" r="6.51" fill="#F4F4F8"></circle><circle cx="1352.06" cy="282.86" r="1.36" fill="#F4F4F8"></circle><circle cx="1366.20" cy="282.86" r="1.41" fill="#F4F4F8"></circle><circle cx="1422.77" cy="282.86" r="1.26" fill="#F4F4F8"></circle><circle cx="1436.91" cy="282.86" r="1.19" fill="#F4F4F8"></circle><circle cx="1451.06" cy="282.86" r="1.23" fill="#F4F4F8"></circle><circle cx="1465.20" cy="282.86" r="1.20" fill="#F4F4F8"></circle><circle cx="1479.34" cy="282.86" r="1.30" fill="#F4F4F8"></circle><circle cx="1493.49" cy="282.86" r="1.95" fill="#F4F4F8"></circle><circle cx="1507.63" cy="282.86" r="2.60" fill="#F4F4F8"></circle><circle cx="1521.77" cy="282.86" r="3.25" fill="#F4F4F8"></circle><circle cx="1535.91" cy="282.86" r="3.90" fill="#F4F4F8"></circle><circle cx="1550.06" cy="282.86" r="4.55" fill="#F4F4F8"></circle><circle cx="1564.20" cy="282.86" r="5.20" fill="#F4F4F8"></circle><circle cx="1578.34" cy="282.86" r="5.86" fill="#F4F4F8"></circle><circle cx="1592.49" cy="282.86" r="6.51" fill="#F4F4F8"></circle><circle cx="1606.63" cy="282.86" r="6.51" fill="#F4F4F8"></circle><circle cx="1620.77" cy="282.86" r="6.51" fill="#F4F4F8"></circle><circle cx="1634.91" cy="282.86" r="6.51" fill="#F4F4F8"></circle><circle cx="1309.63" cy="297.00" r="1.22" fill="#F4F4F8"></circle><circle cx="1337.91" cy="297.00" r="1.35" fill="#F4F4F8"></circle><circle cx="1408.63" cy="297.00" r="1.58" fill="#F4F4F8"></circle><circle cx="1422.77" cy="297.00" r="1.46" fill="#F4F4F8"></circle><circle cx="1465.20" cy="297.00" r="1.62" fill="#F4F4F8"></circle><circle cx="1479.34" cy="297.00" r="1.30" fill="#F4F4F8"></circle><circle cx="1493.49" cy="297.00" r="1.95" fill="#F4F4F8"></circle><circle cx="1507.63" cy="297.00" r="2.60" fill="#F4F4F8"></circle><circle cx="1521.77" cy="297.00" r="3.25" fill="#F4F4F8"></circle><circle cx="1535.91" cy="297.00" r="3.90" fill="#F4F4F8"></circle><circle cx="1550.06" cy="297.00" r="4.55" fill="#F4F4F8"></circle><circle cx="1564.20" cy="297.00" r="5.20" fill="#F4F4F8"></circle><circle cx="1578.34" cy="297.00" r="5.86" fill="#F4F4F8"></circle><circle cx="1592.49" cy="297.00" r="6.51" fill="#F4F4F8"></circle><circle cx="1606.63" cy="297.00" r="6.51" fill="#F4F4F8"></circle><circle cx="1620.77" cy="297.00" r="6.51" fill="#F4F4F8"></circle><circle cx="1634.91" cy="297.00" r="6.51" fill="#F4F4F8"></circle><circle cx="1352.06" cy="311.14" r="1.23" fill="#F4F4F8"></circle><circle cx="1366.20" cy="311.14" r="1.44" fill="#F4F4F8"></circle><circle cx="1380.34" cy="311.14" r="1.40" fill="#F4F4F8"></circle><circle cx="1408.63" cy="311.14" r="1.37" fill="#F4F4F8"></circle><circle cx="1451.06" cy="311.14" r="1.66" fill="#F4F4F8"></circle><circle cx="1465.20" cy="311.14" r="1.51" fill="#F4F4F8"></circle><circle cx="1479.34" cy="311.14" r="1.30" fill="#F4F4F8"></circle><circle cx="1493.49" cy="311.14" r="1.95" fill="#F4F4F8"></circle><circle cx="1507.63" cy="311.14" r="2.60" fill="#F4F4F8"></circle><circle cx="1521.77" cy="311.14" r="3.25" fill="#F4F4F8"></circle><circle cx="1535.91" cy="311.14" r="3.90" fill="#F4F4F8"></circle><circle cx="1550.06" cy="311.14" r="4.55" fill="#F4F4F8"></circle><circle cx="1564.20" cy="311.14" r="5.20" fill="#F4F4F8"></circle><circle cx="1578.34" cy="311.14" r="5.86" fill="#F4F4F8"></circle><circle cx="1592.49" cy="311.14" r="6.51" fill="#F4F4F8"></circle><circle cx="1606.63" cy="311.14" r="6.51" fill="#F4F4F8"></circle><circle cx="1620.77" cy="311.14" r="6.51" fill="#F4F4F8"></circle><circle cx="1337.91" cy="325.29" r="1.21" fill="#F4F4F8"></circle><circle cx="1352.06" cy="325.29" r="1.26" fill="#F4F4F8"></circle><circle cx="1366.20" cy="325.29" r="1.31" fill="#F4F4F8"></circle><circle cx="1394.49" cy="325.29" r="1.50" fill="#F4F4F8"></circle><circle cx="1422.77" cy="325.29" r="1.42" fill="#F4F4F8"></circle><circle cx="1479.34" cy="325.29" r="1.30" fill="#F4F4F8"></circle><circle cx="1493.49" cy="325.29" r="1.95" fill="#F4F4F8"></circle><circle cx="1507.63" cy="325.29" r="2.60" fill="#F4F4F8"></circle><circle cx="1521.77" cy="325.29" r="3.25" fill="#F4F4F8"></circle><circle cx="1535.91" cy="325.29" r="3.90" fill="#F4F4F8"></circle><circle cx="1550.06" cy="325.29" r="4.55" fill="#F4F4F8"></circle><circle cx="1564.20" cy="325.29" r="5.20" fill="#F4F4F8"></circle><circle cx="1578.34" cy="325.29" r="5.86" fill="#F4F4F8"></circle><circle cx="1592.49" cy="325.29" r="6.51" fill="#F4F4F8"></circle><circle cx="1606.63" cy="325.29" r="6.51" fill="#F4F4F8"></circle><circle cx="1380.34" cy="339.43" r="1.42" fill="#F4F4F8"></circle><circle cx="1408.63" cy="339.43" r="1.54" fill="#F4F4F8"></circle><circle cx="1451.06" cy="339.43" r="1.59" fill="#F4F4F8"></circle><circle cx="1479.34" cy="339.43" r="1.30" fill="#F4F4F8"></circle><circle cx="1493.49" cy="339.43" r="1.95" fill="#F4F4F8"></circle><circle cx="1507.63" cy="339.43" r="2.60" fill="#F4F4F8"></circle><circle cx="1521.77" cy="339.43" r="3.25" fill="#F4F4F8"></circle><circle cx="1535.91" cy="339.43" r="3.90" fill="#F4F4F8"></circle><circle cx="1550.06" cy="339.43" r="4.55" fill="#F4F4F8"></circle><circle cx="1564.20" cy="339.43" r="5.20" fill="#F4F4F8"></circle><circle cx="1578.34" cy="339.43" r="5.86" fill="#F4F4F8"></circle><circle cx="1592.49" cy="339.43" r="6.51" fill="#F4F4F8"></circle><circle cx="1352.06" cy="353.57" r="1.20" fill="#F4F4F8"></circle><circle cx="1394.49" cy="353.57" r="1.48" fill="#F4F4F8"></circle><circle cx="1479.34" cy="353.57" r="1.30" fill="#F4F4F8"></circle><circle cx="1493.49" cy="353.57" r="1.95" fill="#F4F4F8"></circle><circle cx="1507.63" cy="353.57" r="2.60" fill="#F4F4F8"></circle><circle cx="1521.77" cy="353.57" r="3.25" fill="#F4F4F8"></circle><circle cx="1535.91" cy="353.57" r="3.90" fill="#F4F4F8"></circle><circle cx="1550.06" cy="353.57" r="4.55" fill="#F4F4F8"></circle><circle cx="1564.20" cy="353.57" r="5.20" fill="#F4F4F8"></circle><circle cx="1578.34" cy="353.57" r="5.86" fill="#F4F4F8"></circle><circle cx="1394.49" cy="367.71" r="1.18" fill="#F4F4F8"></circle><circle cx="1408.63" cy="367.71" r="1.19" fill="#F4F4F8"></circle><circle cx="1422.77" cy="367.71" r="1.21" fill="#F4F4F8"></circle><circle cx="1479.34" cy="367.71" r="1.30" fill="#F4F4F8"></circle><circle cx="1493.49" cy="367.71" r="1.95" fill="#F4F4F8"></circle><circle cx="1507.63" cy="367.71" r="2.60" fill="#F4F4F8"></circle><circle cx="1521.77" cy="367.71" r="3.25" fill="#F4F4F8"></circle><circle cx="1535.91" cy="367.71" r="3.90" fill="#F4F4F8"></circle><circle cx="1550.06" cy="367.71" r="4.55" fill="#F4F4F8"></circle><circle cx="1564.20" cy="367.71" r="5.20" fill="#F4F4F8"></circle><circle cx="1451.06" cy="381.86" r="1.64" fill="#F4F4F8"></circle><circle cx="1465.20" cy="381.86" r="1.33" fill="#F4F4F8"></circle><circle cx="1479.34" cy="381.86" r="1.30" fill="#F4F4F8"></circle><circle cx="1493.49" cy="381.86" r="1.95" fill="#F4F4F8"></circle><circle cx="1507.63" cy="381.86" r="2.60" fill="#F4F4F8"></circle><circle cx="1521.77" cy="381.86" r="3.25" fill="#F4F4F8"></circle><circle cx="1535.91" cy="381.86" r="3.90" fill="#F4F4F8"></circle><circle cx="1465.20" cy="396.00" r="1.26" fill="#F4F4F8"></circle>
      <text x="87.12" y="126.72" font-family="&#39;JetBrains Mono&#39;,&#39;Courier New&#39;,monospace" font-size="22" letter-spacing="4" fill="#F4F4F8" opacity="0.55">DOLUNAY.AI · İSTANBUL</text>
      <text x="87.12" y="229.67999999999998" font-family="&#39;Inter Tight&#39;,&#39;Helvetica Neue&#39;,Arial,sans-serif" font-weight="500" font-size="62" letter-spacing="-1.5" fill="#F4F4F8">Yapay zekâyı işinizin <tspan fill="#4F8BFF">doğal bir parçası</tspan> yapıyoruz.</text>
      <text x="87.12" y="308.88" font-family="&#39;Inter Tight&#39;,&#39;Helvetica Neue&#39;,Arial,sans-serif" font-weight="500" font-size="28" letter-spacing="-0.3" fill="#F4F4F8" opacity="0.7">otomasyon · eğitim · danışmanlık</text></svg>