<svg xmlns="http://www.w3.org/2000/svg" viewBox="0 0 800 800" width="800" height="800"><rect width="800" height="800" fill="#08090C"></rect><circle cx="400.00" cy="104.00" r="2.28" fill="#F4F4F8"></circle><circle cx="357.71" cy="125.14" r="2.07" fill="#F4F4F8"></circle><circle cx="400.00" cy="125.14" r="2.55" fill="#F4F4F8"></circle><circle cx="421.14" cy="125.14" r="1.95" fill="#F4F4F8"></circle><circle cx="442.29" cy="125.14" r="2.92" fill="#F4F4F8"></circle><circle cx="463.43" cy="125.14" r="3.89" fill="#F4F4F8"></circle><circle cx="484.57" cy="125.14" r="4.86" fill="#F4F4F8"></circle><circle cx="505.71" cy="125.14" r="5.84" fill="#F4F4F8"></circle><circle cx="273.14" cy="146.29" r="1.79" fill="#F4F4F8"></circle><circle cx="294.29" cy="146.29" r="2.23" fill="#F4F4F8"></circle><circle cx="421.14" cy="146.29" r="1.95" fill="#F4F4F8"></circle><circle cx="442.29" cy="146.29" r="2.92" fill="#F4F4F8"></circle><circle cx="463.43" cy="146.29" r="3.89" fill="#F4F4F8"></circle><circle cx="484.57" cy="146.29" r="4.86" fill="#F4F4F8"></circle><circle cx="505.71" cy="146.29" r="5.84" fill="#F4F4F8"></circle><circle cx="526.86" cy="146.29" r="6.81" fill="#F4F4F8"></circle><circle cx="548.00" cy="146.29" r="7.78" fill="#F4F4F8"></circle><circle cx="273.14" cy="167.43" r="1.87" fill="#F4F4F8"></circle><circle cx="357.71" cy="167.43" r="2.06" fill="#F4F4F8"></circle><circle cx="400.00" cy="167.43" r="2.22" fill="#F4F4F8"></circle><circle cx="421.14" cy="167.43" r="1.95" fill="#F4F4F8"></circle><circle cx="442.29" cy="167.43" r="2.92" fill="#F4F4F8"></circle><circle cx="463.43" cy="167.43" r="3.89" fill="#F4F4F8"></circle><circle cx="484.57" cy="167.43" r="4.86" fill="#F4F4F8"></circle><circle cx="505.71" cy="167.43" r="5.84" fill="#F4F4F8"></circle><circle cx="526.86" cy="167.43" r="6.81" fill="#F4F4F8"></circle><circle cx="548.00" cy="167.43" r="7.78" fill="#F4F4F8"></circle><circle cx="569.14" cy="167.43" r="8.75" fill="#F4F4F8"></circle><circle cx="315.43" cy="188.57" r="2.27" fill="#F4F4F8"></circle><circle cx="336.57" cy="188.57" r="2.05" fill="#F4F4F8"></circle><circle cx="400.00" cy="188.57" r="1.84" fill="#F4F4F8"></circle><circle cx="421.14" cy="188.57" r="1.95" fill="#F4F4F8"></circle><circle cx="442.29" cy="188.57" r="2.92" fill="#F4F4F8"></circle><circle cx="463.43" cy="188.57" r="3.89" fill="#F4F4F8"></circle><circle cx="484.57" cy="188.57" r="4.86" fill="#F4F4F8"></circle><circle cx="505.71" cy="188.57" r="5.84" fill="#F4F4F8"></circle><circle cx="526.86" cy="188.57" r="6.81" fill="#F4F4F8"></circle><circle cx="548.00" cy="188.57" r="7.78" fill="#F4F4F8"></circle><circle cx="569.14" cy="188.57" r="8.75" fill="#F4F4F8"></circle><circle cx="590.29" cy="188.57" r="9.73" fill="#F4F4F8"></circle><circle cx="252.00" cy="209.71" r="1.96" fill="#F4F4F8"></circle><circle cx="357.71" cy="209.71" r="1.79" fill="#F4F4F8"></circle><circle cx="421.14" cy="209.71" r="1.95" fill="#F4F4F8"></circle><circle cx="442.29" cy="209.71" r="2.92" fill="#F4F4F8"></circle><circle cx="463.43" cy="209.71" r="3.89" fill="#F4F4F8"></circle><circle cx="484.57" cy="209.71" r="4.86" fill="#F4F4F8"></circle><circle cx="505.71" cy="209.71" r="5.84" fill="#F4F4F8"></circle><circle cx="526.86" cy="209.71" r="6.81" fill="#F4F4F8"></circle><circle cx="548.00" cy="209.71" r="7.78" fill="#F4F4F8"></circle><circle cx="569.14" cy="209.71" r="8.75" fill="#F4F4F8"></circle><circle cx="590.29" cy="209.71" r="9.73" fill="#F4F4F8"></circle><circle cx="611.43" cy="209.71" r="9.73" fill="#F4F4F8"></circle><circle cx="230.86" cy="230.86" r="2.01" fill="#F4F4F8"></circle><circle cx="252.00" cy="230.86" r="1.90" fill="#F4F4F8"></circle><circle cx="294.29" cy="230.86" r="1.97" fill="#F4F4F8"></circle><circle cx="315.43" cy="230.86" r="2.22" fill="#F4F4F8"></circle><circle cx="400.00" cy="230.86" r="2.43" fill="#F4F4F8"></circle><circle cx="421.14" cy="230.86" r="1.95" fill="#F4F4F8"></circle><circle cx="442.29" cy="230.86" r="2.92" fill="#F4F4F8"></circle><circle cx="463.43" cy="230.86" r="3.89" fill="#F4F4F8"></circle><circle cx="484.57" cy="230.86" r="4.86" fill="#F4F4F8"></circle><circle cx="505.71" cy="230.86" r="5.84" fill="#F4F4F8"></circle><circle cx="526.86" cy="230.86" r="6.81" fill="#F4F4F8"></circle><circle cx="548.00" cy="230.86" r="7.78" fill="#F4F4F8"></circle><circle cx="569.14" cy="230.86" r="8.75" fill="#F4F4F8"></circle><circle cx="590.29" cy="230.86" r="9.73" fill="#F4F4F8"></circle><circle cx="611.43" cy="230.86" r="9.73" fill="#F4F4F8"></circle><circle cx="632.57" cy="230.86" r="9.73" fill="#F4F4F8"></circle><circle cx="273.14" cy="252.00" r="2.24" fill="#F4F4F8"></circle><circle cx="378.86" cy="252.00" r="2.35" fill="#F4F4F8"></circle><circle cx="421.14" cy="252.00" r="1.95" fill="#F4F4F8"></circle><circle cx="442.29" cy="252.00" r="2.92" fill="#F4F4F8"></circle><circle cx="463.43" cy="252.00" r="3.89" fill="#F4F4F8"></circle><circle cx="484.57" cy="252.00" r="4.86" fill="#F4F4F8"></circle><circle cx="505.71" cy="252.00" r="5.84" fill="#F4F4F8"></circle><circle cx="526.86" cy="252.00" r="6.81" fill="#F4F4F8"></circle><circle cx="548.00" cy="252.00" r="7.78" fill="#F4F4F8"></circle><circle cx="569.14" cy="252.00" r="8.75" fill="#F4F4F8"></circle><circle cx="590.29" cy="252.00" r="9.73" fill="#F4F4F8"></circle><circle cx="611.43" cy="252.00" r="9.73" fill="#F4F4F8"></circle><circle cx="632.57" cy="252.00" r="9.73" fill="#F4F4F8"></circle><circle cx="653.71" cy="252.00" r="9.73" fill="#F4F4F8"></circle><circle cx="252.00" cy="273.14" r="1.92" fill="#F4F4F8"></circle><circle cx="294.29" cy="273.14" r="2.06" fill="#F4F4F8"></circle><circle cx="315.43" cy="273.14" r="2.20" fill="#F4F4F8"></circle><circle cx="357.71" cy="273.14" r="1.99" fill="#F4F4F8"></circle><circle cx="421.14" cy="273.14" r="1.95" fill="#F4F4F8"></circle><circle cx="442.29" cy="273.14" r="2.92" fill="#F4F4F8"></circle><circle cx="463.43" cy="273.14" r="3.89" fill="#F4F4F8"></circle><circle cx="484.57" cy="273.14" r="4.86" fill="#F4F4F8"></circle><circle cx="505.71" cy="273.14" r="5.84" fill="#F4F4F8"></circle><circle cx="526.86" cy="273.14" r="6.81" fill="#F4F4F8"></circle><circle cx="548.00" cy="273.14" r="7.78" fill="#F4F4F8"></circle><circle cx="569.14" cy="273.14" r="8.75" fill="#F4F4F8"></circle><circle cx="590.29" cy="273.14" r="9.73" fill="#F4F4F8"></circle><circle cx="611.43" cy="273.14" r="9.73" fill="#F4F4F8"></circle><circle cx="632.57" cy="273.14" r="9.73" fill="#F4F4F8"></circle><circle cx="653.71" cy="273.14" r="9.73" fill="#F4F4F8"></circle><circle cx="209.71" cy="294.29" r="1.86" fill="#F4F4F8"></circle><circle cx="294.29" cy="294.29" r="1.88" fill="#F4F4F8"></circle><circle cx="315.43" cy="294.29" r="1.93" fill="#F4F4F8"></circle><circle cx="336.57" cy="294.29" r="2.10" fill="#F4F4F8"></circle><circle cx="357.71" cy="294.29" r="1.97" fill="#F4F4F8"></circle><circle cx="378.86" cy="294.29" r="1.89" fill="#F4F4F8"></circle><circle cx="400.00" cy="294.29" r="2.09" fill="#F4F4F8"></circle><circle cx="421.14" cy="294.29" r="1.95" fill="#F4F4F8"></circle><circle cx="442.29" cy="294.29" r="2.92" fill="#F4F4F8"></circle><circle cx="463.43" cy="294.29" r="3.89" fill="#F4F4F8"></circle><circle cx="484.57" cy="294.29" r="4.86" fill="#F4F4F8"></circle><circle cx="505.71" cy="294.29" r="5.84" fill="#F4F4F8"></circle><circle cx="526.86" cy="294.29" r="6.81" fill="#F4F4F8"></circle><circle cx="548.00" cy="294.29" r="7.78" fill="#F4F4F8"></circle><circle cx="569.14" cy="294.29" r="8.75" fill="#F4F4F8"></circle><circle cx="590.29" cy="294.29" r="9.73" fill="#F4F4F8"></circle><circle cx="611.43" cy="294.29" r="9.73" fill="#F4F4F8"></circle><circle cx="632.57" cy="294.29" r="9.73" fill="#F4F4F8"></circle><circle cx="653.71" cy="294.29" r="9.73" fill="#F4F4F8"></circle><circle cx="674.86" cy="294.29" r="9.73" fill="#F4F4F8"></circle><circle cx="146.29" cy="315.43" r="1.84" fill="#F4F4F8"></circle><circle cx="188.57" cy="315.43" r="1.98" fill="#F4F4F8"></circle><circle cx="252.00" cy="315.43" r="2.16" fill="#F4F4F8"></circle><circle cx="315.43" cy="315.43" r="1.85" fill="#F4F4F8"></circle><circle cx="357.71" cy="315.43" r="2.46" fill="#F4F4F8"></circle><circle cx="378.86" cy="315.43" r="2.26" fill="#F4F4F8"></circle><circle cx="421.14" cy="315.43" r="1.95" fill="#F4F4F8"></circle><circle cx="442.29" cy="315.43" r="2.92" fill="#F4F4F8"></circle><circle cx="463.43" cy="315.43" r="3.89" fill="#F4F4F8"></circle><circle cx="484.57" cy="315.43" r="4.86" fill="#F4F4F8"></circle><circle cx="505.71" cy="315.43" r="5.84" fill="#F4F4F8"></circle><circle cx="526.86" cy="315.43" r="6.81" fill="#F4F4F8"></circle><circle cx="548.00" cy="315.43" r="7.78" fill="#F4F4F8"></circle><circle cx="569.14" cy="315.43" r="8.75" fill="#F4F4F8"></circle><circle cx="590.29" cy="315.43" r="9.73" fill="#F4F4F8"></circle><circle cx="611.43" cy="315.43" r="9.73" fill="#F4F4F8"></circle><circle cx="632.57" cy="315.43" r="9.73" fill="#F4F4F8"></circle><circle cx="653.71" cy="315.43" r="9.73" fill="#F4F4F8"></circle><circle cx="674.86" cy="315.43" r="9.73" fill="#F4F4F8"></circle><circle cx="188.57" cy="336.57" r="1.96" fill="#F4F4F8"></circle><circle cx="230.86" cy="336.57" r="1.93" fill="#F4F4F8"></circle><circle cx="315.43" cy="336.57" r="1.76" fill="#F4F4F8"></circle><circle cx="336.57" cy="336.57" r="1.92" fill="#F4F4F8"></circle><circle cx="357.71" cy="336.57" r="1.94" fill="#F4F4F8"></circle><circle cx="378.86" cy="336.57" r="1.83" fill="#F4F4F8"></circle><circle cx="421.14" cy="336.57" r="1.95" fill="#F4F4F8"></circle><circle cx="442.29" cy="336.57" r="2.92" fill="#F4F4F8"></circle><circle cx="463.43" cy="336.57" r="3.89" fill="#F4F4F8"></circle><circle cx="484.57" cy="336.57" r="4.86" fill="#F4F4F8"></circle><circle cx="505.71" cy="336.57" r="5.84" fill="#F4F4F8"></circle><circle cx="526.86" cy="336.57" r="6.81" fill="#F4F4F8"></circle><circle cx="548.00" cy="336.57" r="7.78" fill="#F4F4F8"></circle><circle cx="569.14" cy="336.57" r="8.75" fill="#F4F4F8"></circle><circle cx="590.29" cy="336.57" r="9.73" fill="#F4F4F8"></circle><circle cx="611.43" cy="336.57" r="9.73" fill="#F4F4F8"></circle><circle cx="632.57" cy="336.57" r="9.73" fill="#F4F4F8"></circle><circle cx="653.71" cy="336.57" r="9.73" fill="#F4F4F8"></circle><circle cx="674.86" cy="336.57" r="9.73" fill="#F4F4F8"></circle><circle cx="230.86" cy="357.71" r="1.78" fill="#F4F4F8"></circle><circle cx="252.00" cy="357.71" r="1.86" fill="#F4F4F8"></circle><circle cx="421.14" cy="357.71" r="1.95" fill="#F4F4F8"></circle><circle cx="442.29" cy="357.71" r="2.92" fill="#F4F4F8"></circle><circle cx="463.43" cy="357.71" r="3.89" fill="#F4F4F8"></circle><circle cx="484.57" cy="357.71" r="4.86" fill="#F4F4F8"></circle><circle cx="505.71" cy="357.71" r="5.84" fill="#F4F4F8"></circle><circle cx="526.86" cy="357.71" r="6.81" fill="#F4F4F8"></circle><circle cx="548.00" cy="357.71" r="7.78" fill="#F4F4F8"></circle><circle cx="569.14" cy="357.71" r="8.75" fill="#F4F4F8"></circle><circle cx="590.29" cy="357.71" r="9.73" fill="#F4F4F8"></circle><circle cx="611.43" cy="357.71" r="9.73" fill="#F4F4F8"></circle><circle cx="632.57" cy="357.71" r="9.73" fill="#F4F4F8"></circle><circle cx="653.71" cy="357.71" r="9.73" fill="#F4F4F8"></circle><circle cx="674.86" cy="357.71" r="9.73" fill="#F4F4F8"></circle><circle cx="357.71" cy="378.86" r="1.77" fill="#F4F4F8"></circle><circle cx="378.86" cy="378.86" r="2.20" fill="#F4F4F8"></circle><circle cx="400.00" cy="378.86" r="2.59" fill="#F4F4F8"></circle><circle cx="421.14" cy="378.86" r="1.95" fill="#F4F4F8"></circle><circle cx="442.29" cy="378.86" r="2.92" fill="#F4F4F8"></circle><circle cx="463.43" cy="378.86" r="3.89" fill="#F4F4F8"></circle><circle cx="484.57" cy="378.86" r="4.86" fill="#F4F4F8"></circle><circle cx="505.71" cy="378.86" r="5.84" fill="#F4F4F8"></circle><circle cx="526.86" cy="378.86" r="6.81" fill="#F4F4F8"></circle><circle cx="548.00" cy="378.86" r="7.78" fill="#F4F4F8"></circle><circle cx="569.14" cy="378.86" r="8.75" fill="#F4F4F8"></circle><circle cx="590.29" cy="378.86" r="9.73" fill="#F4F4F8"></circle><circle cx="611.43" cy="378.86" r="9.73" fill="#F4F4F8"></circle><circle cx="632.57" cy="378.86" r="9.73" fill="#F4F4F8"></circle><circle cx="653.71" cy="378.86" r="9.73" fill="#F4F4F8"></circle><circle cx="674.86" cy="378.86" r="9.73" fill="#F4F4F8"></circle><circle cx="230.86" cy="400.00" r="1.88" fill="#F4F4F8"></circle><circle cx="273.14" cy="400.00" r="1.96" fill="#F4F4F8"></circle><circle cx="336.57" cy="400.00" r="1.97" fill="#F4F4F8"></circle><circle cx="357.71" cy="400.00" r="2.44" fill="#F4F4F8"></circle><circle cx="378.86" cy="400.00" r="2.02" fill="#F4F4F8"></circle><circle cx="421.14" cy="400.00" r="1.95" fill="#F4F4F8"></circle><circle cx="442.29" cy="400.00" r="2.92" fill="#F4F4F8"></circle><circle cx="463.43" cy="400.00" r="3.89" fill="#F4F4F8"></circle><circle cx="484.57" cy="400.00" r="4.86" fill="#F4F4F8"></circle><circle cx="505.71" cy="400.00" r="5.84" fill="#F4F4F8"></circle><circle cx="526.86" cy="400.00" r="6.81" fill="#F4F4F8"></circle><circle cx="548.00" cy="400.00" r="7.78" fill="#F4F4F8"></circle><circle cx="569.14" cy="400.00" r="8.75" fill="#F4F4F8"></circle><circle cx="590.29" cy="400.00" r="9.73" fill="#F4F4F8"></circle><circle cx="611.43" cy="400.00" r="9.73" fill="#F4F4F8"></circle><circle cx="632.57" cy="400.00" r="9.73" fill="#F4F4F8"></circle><circle cx="653.71" cy="400.00" r="9.73" fill="#F4F4F8"></circle><circle cx="674.86" cy="400.00" r="9.73" fill="#F4F4F8"></circle><circle cx="696.00" cy="400.00" r="9.73" fill="#F4F4F8"></circle><circle cx="252.00" cy="421.14" r="1.94" fill="#F4F4F8"></circle><circle cx="315.43" cy="421.14" r="1.94" fill="#F4F4F8"></circle><circle cx="336.57" cy="421.14" r="2.35" fill="#F4F4F8"></circle><circle cx="378.86" cy="421.14" r="2.19" fill="#F4F4F8"></circle><circle cx="400.00" cy="421.14" r="1.78" fill="#F4F4F8"></circle><circle cx="421.14" cy="421.14" r="1.95" fill="#F4F4F8"></circle><circle cx="442.29" cy="421.14" r="2.92" fill="#F4F4F8"></circle><circle cx="463.43" cy="421.14" r="3.89" fill="#F4F4F8"></circle><circle cx="484.57" cy="421.14" r="4.86" fill="#F4F4F8"></circle><circle cx="505.71" cy="421.14" r="5.84" fill="#F4F4F8"></circle><circle cx="526.86" cy="421.14" r="6.81" fill="#F4F4F8"></circle><circle cx="548.00" cy="421.14" r="7.78" fill="#F4F4F8"></circle><circle cx="569.14" cy="421.14" r="8.75" fill="#F4F4F8"></circle><circle cx="590.29" cy="421.14" r="9.73" fill="#F4F4F8"></circle><circle cx="611.43" cy="421.14" r="9.73" fill="#F4F4F8"></circle><circle cx="632.57" cy="421.14" r="9.73" fill="#F4F4F8"></circle><circle cx="653.71" cy="421.14" r="9.73" fill="#F4F4F8"></circle><circle cx="674.86" cy="421.14" r="9.73" fill="#F4F4F8"></circle><circle cx="273.14" cy="442.29" r="1.86" fill="#F4F4F8"></circle><circle cx="294.29" cy="442.29" r="1.83" fill="#F4F4F8"></circle><circle cx="378.86" cy="442.29" r="2.35" fill="#F4F4F8"></circle><circle cx="421.14" cy="442.29" r="1.95" fill="#F4F4F8"></circle><circle cx="442.29" cy="442.29" r="2.92" fill="#F4F4F8"></circle><circle cx="463.43" cy="442.29" r="3.89" fill="#F4F4F8"></circle><circle cx="484.57" cy="442.29" r="4.86" fill="#F4F4F8"></circle><circle cx="505.71" cy="442.29" r="5.84" fill="#F4F4F8"></circle><circle cx="526.86" cy="442.29" r="6.81" fill="#F4F4F8"></circle><circle cx="548.00" cy="442.29" r="7.78" fill="#F4F4F8"></circle><circle cx="569.14" cy="442.29" r="8.75" fill="#F4F4F8"></circle><circle cx="590.29" cy="442.29" r="9.73" fill="#F4F4F8"></circle><circle cx="611.43" cy="442.29" r="9.73" fill="#F4F4F8"></circle><circle cx="632.57" cy="442.29" r="9.73" fill="#F4F4F8"></circle><circle cx="653.71" cy="442.29" r="9.73" fill="#F4F4F8"></circle><circle cx="674.86" cy="442.29" r="9.73" fill="#F4F4F8"></circle><circle cx="252.00" cy="463.43" r="2.03" fill="#F4F4F8"></circle><circle cx="273.14" cy="463.43" r="2.06" fill="#F4F4F8"></circle><circle cx="357.71" cy="463.43" r="2.28" fill="#F4F4F8"></circle><circle cx="378.86" cy="463.43" r="2.25" fill="#F4F4F8"></circle><circle cx="421.14" cy="463.43" r="1.95" fill="#F4F4F8"></circle><circle cx="442.29" cy="463.43" r="2.92" fill="#F4F4F8"></circle><circle cx="463.43" cy="463.43" r="3.89" fill="#F4F4F8"></circle><circle cx="484.57" cy="463.43" r="4.86" fill="#F4F4F8"></circle><circle cx="505.71" cy="463.43" r="5.84" fill="#F4F4F8"></circle><circle cx="526.86" cy="463.43" r="6.81" fill="#F4F4F8"></circle><circle cx="548.00" cy="463.43" r="7.78" fill="#F4F4F8"></circle><circle cx="569.14" cy="463.43" r="8.75" fill="#F4F4F8"></circle><circle cx="590.29" cy="463.43" r="9.73" fill="#F4F4F8"></circle><circle cx="611.43" cy="463.43" r="9.73" fill="#F4F4F8"></circle><circle cx="632.57" cy="463.43" r="9.73" fill="#F4F4F8"></circle><circle cx="653.71" cy="463.43" r="9.73" fill="#F4F4F8"></circle><circle cx="674.86" cy="463.43" r="9.73" fill="#F4F4F8"></circle><circle cx="188.57" cy="484.57" r="1.98" fill="#F4F4F8"></circle><circle cx="209.71" cy="484.57" r="1.79" fill="#F4F4F8"></circle><circle cx="252.00" cy="484.57" r="1.80" fill="#F4F4F8"></circle><circle cx="315.43" cy="484.57" r="1.87" fill="#F4F4F8"></circle><circle cx="378.86" cy="484.57" r="2.34" fill="#F4F4F8"></circle><circle cx="421.14" cy="484.57" r="1.95" fill="#F4F4F8"></circle><circle cx="442.29" cy="484.57" r="2.92" fill="#F4F4F8"></circle><circle cx="463.43" cy="484.57" r="3.89" fill="#F4F4F8"></circle><circle cx="484.57" cy="484.57" r="4.86" fill="#F4F4F8"></circle><circle cx="505.71" cy="484.57" r="5.84" fill="#F4F4F8"></circle><circle cx="526.86" cy="484.57" r="6.81" fill="#F4F4F8"></circle><circle cx="548.00" cy="484.57" r="7.78" fill="#F4F4F8"></circle><circle cx="569.14" cy="484.57" r="8.75" fill="#F4F4F8"></circle><circle cx="590.29" cy="484.57" r="9.73" fill="#F4F4F8"></circle><circle cx="611.43" cy="484.57" r="9.73" fill="#F4F4F8"></circle><circle cx="632.57" cy="484.57" r="9.73" fill="#F4F4F8"></circle><circle cx="653.71" cy="484.57" r="9.73" fill="#F4F4F8"></circle><circle cx="674.86" cy="484.57" r="9.73" fill="#F4F4F8"></circle><circle cx="357.71" cy="505.71" r="2.05" fill="#F4F4F8"></circle><circle cx="421.14" cy="505.71" r="1.95" fill="#F4F4F8"></circle><circle cx="442.29" cy="505.71" r="2.92" fill="#F4F4F8"></circle><circle cx="463.43" cy="505.71" r="3.89" fill="#F4F4F8"></circle><circle cx="484.57" cy="505.71" r="4.86" fill="#F4F4F8"></circle><circle cx="505.71" cy="505.71" r="5.84" fill="#F4F4F8"></circle><circle cx="526.86" cy="505.71" r="6.81" fill="#F4F4F8"></circle><circle cx="548.00" cy="505.71" r="7.78" fill="#F4F4F8"></circle><circle cx="569.14" cy="505.71" r="8.75" fill="#F4F4F8"></circle><circle cx="590.29" cy="505.71" r="9.73" fill="#F4F4F8"></circle><circle cx="611.43" cy="505.71" r="9.73" fill="#F4F4F8"></circle><circle cx="632.57" cy="505.71" r="9.73" fill="#F4F4F8"></circle><circle cx="653.71" cy="505.71" r="9.73" fill="#F4F4F8"></circle><circle cx="674.86" cy="505.71" r="9.73" fill="#F4F4F8"></circle><circle cx="230.86" cy="526.86" r="2.04" fill="#F4F4F8"></circle><circle cx="252.00" cy="526.86" r="2.11" fill="#F4F4F8"></circle><circle cx="336.57" cy="526.86" r="1.88" fill="#F4F4F8"></circle><circle cx="357.71" cy="526.86" r="1.79" fill="#F4F4F8"></circle><circle cx="378.86" cy="526.86" r="1.83" fill="#F4F4F8"></circle><circle cx="400.00" cy="526.86" r="1.79" fill="#F4F4F8"></circle><circle cx="421.14" cy="526.86" r="1.95" fill="#F4F4F8"></circle><circle cx="442.29" cy="526.86" r="2.92" fill="#F4F4F8"></circle><circle cx="463.43" cy="526.86" r="3.89" fill="#F4F4F8"></circle><circle cx="484.57" cy="526.86" r="4.86" fill="#F4F4F8"></circle><circle cx="505.71" cy="526.86" r="5.84" fill="#F4F4F8"></circle><circle cx="526.86" cy="526.86" r="6.81" fill="#F4F4F8"></circle><circle cx="548.00" cy="526.86" r="7.78" fill="#F4F4F8"></circle><circle cx="569.14" cy="526.86" r="8.75" fill="#F4F4F8"></circle><circle cx="590.29" cy="526.86" r="9.73" fill="#F4F4F8"></circle><circle cx="611.43" cy="526.86" r="9.73" fill="#F4F4F8"></circle><circle cx="632.57" cy="526.86" r="9.73" fill="#F4F4F8"></circle><circle cx="653.71" cy="526.86" r="9.73" fill="#F4F4F8"></circle><circle cx="167.43" cy="548.00" r="1.83" fill="#F4F4F8"></circle><circle cx="209.71" cy="548.00" r="2.02" fill="#F4F4F8"></circle><circle cx="315.43" cy="548.00" r="2.36" fill="#F4F4F8"></circle><circle cx="336.57" cy="548.00" r="2.18" fill="#F4F4F8"></circle><circle cx="400.00" cy="548.00" r="2.43" fill="#F4F4F8"></circle><circle cx="421.14" cy="548.00" r="1.95" fill="#F4F4F8"></circle><circle cx="442.29" cy="548.00" r="2.92" fill="#F4F4F8"></circle><circle cx="463.43" cy="548.00" r="3.89" fill="#F4F4F8"></circle><circle cx="484.57" cy="548.00" r="4.86" fill="#F4F4F8"></circle><circle cx="505.71" cy="548.00" r="5.84" fill="#F4F4F8"></circle><circle cx="526.86" cy="548.00" r="6.81" fill="#F4F4F8"></circle><circle cx="548.00" cy="548.00" r="7.78" fill="#F4F4F8"></circle><circle cx="569.14" cy="548.00" r="8.75" fill="#F4F4F8"></circle><circle cx="590.29" cy="548.00" r="9.73" fill="#F4F4F8"></circle><circle cx="611.43" cy="548.00" r="9.73" fill="#F4F4F8"></circle><circle cx="632.57" cy="548.00" r="9.73" fill="#F4F4F8"></circle><circle cx="653.71" cy="548.00" r="9.73" fill="#F4F4F8"></circle><circle cx="230.86" cy="569.14" r="1.84" fill="#F4F4F8"></circle><circle cx="252.00" cy="569.14" r="2.15" fill="#F4F4F8"></circle><circle cx="273.14" cy="569.14" r="2.09" fill="#F4F4F8"></circle><circle cx="315.43" cy="569.14" r="2.05" fill="#F4F4F8"></circle><circle cx="378.86" cy="569.14" r="2.48" fill="#F4F4F8"></circle><circle cx="400.00" cy="569.14" r="2.26" fill="#F4F4F8"></circle><circle cx="421.14" cy="569.14" r="1.95" fill="#F4F4F8"></circle><circle cx="442.29" cy="569.14" r="2.92" fill="#F4F4F8"></circle><circle cx="463.43" cy="569.14" r="3.89" fill="#F4F4F8"></circle><circle cx="484.57" cy="569.14" r="4.86" fill="#F4F4F8"></circle><circle cx="505.71" cy="569.14" r="5.84" fill="#F4F4F8"></circle><circle cx="526.86" cy="569.14" r="6.81" fill="#F4F4F8"></circle><circle cx="548.00" cy="569.14" r="7.78" fill="#F4F4F8"></circle><circle cx="569.14" cy="569.14" r="8.75" fill="#F4F4F8"></circle><circle cx="590.29" cy="569.14" r="9.73" fill="#F4F4F8"></circle><circle cx="611.43" cy="569.14" r="9.73" fill="#F4F4F8"></circle><circle cx="632.57" cy="569.14" r="9.73" fill="#F4F4F8"></circle><circle cx="209.71" cy="590.29" r="1.81" fill="#F4F4F8"></circle><circle cx="230.86" cy="590.29" r="1.89" fill="#F4F4F8"></circle><circle cx="252.00" cy="590.29" r="1.95" fill="#F4F4F8"></circle><circle cx="294.29" cy="590.29" r="2.25" fill="#F4F4F8"></circle><circle cx="336.57" cy="590.29" r="2.12" fill="#F4F4F8"></circle><circle cx="421.14" cy="590.29" r="1.95" fill="#F4F4F8"></circle><circle cx="442.29" cy="590.29" r="2.92" fill="#F4F4F8"></circle><circle cx="463.43" cy="590.29" r="3.89" fill="#F4F4F8"></circle><circle cx="484.57" cy="590.29" r="4.86" fill="#F4F4F8"></circle><circle cx="505.71" cy="590.29" r="5.84" fill="#F4F4F8"></circle><circle cx="526.86" cy="590.29" r="6.81" fill="#F4F4F8"></circle><circle cx="548.00" cy="590.29" r="7.78" fill="#F4F4F8"></circle><circle cx="569.14" cy="590.29" r="8.75" fill="#F4F4F8"></circle><circle cx="590.29" cy="590.29" r="9.73" fill="#F4F4F8"></circle><circle cx="611.43" cy="590.29" r="9.73" fill="#F4F4F8"></circle><circle cx="273.14" cy="611.43" r="2.13" fill="#F4F4F8"></circle><circle cx="315.43" cy="611.43" r="2.31" fill="#F4F4F8"></circle><circle cx="378.86" cy="611.43" r="2.38" fill="#F4F4F8"></circle><circle cx="421.14" cy="611.43" r="1.95" fill="#F4F4F8"></circle><circle cx="442.29" cy="611.43" r="2.92" fill="#F4F4F8"></circle><circle cx="463.43" cy="611.43" r="3.89" fill="#F4F4F8"></circle><circle cx="484.57" cy="611.43" r="4.86" fill="#F4F4F8"></circle><circle cx="505.71" cy="611.43" r="5.84" fill="#F4F4F8"></circle><circle cx="526.86" cy="611.43" r="6.81" fill="#F4F4F8"></circle><circle cx="548.00" cy="611.43" r="7.78" fill="#F4F4F8"></circle><circle cx="569.14" cy="611.43" r="8.75" fill="#F4F4F8"></circle><circle cx="590.29" cy="611.43" r="9.73" fill="#F4F4F8"></circle><circle cx="230.86" cy="632.57" r="1.79" fill="#F4F4F8"></circle><circle cx="294.29" cy="632.57" r="2.21" fill="#F4F4F8"></circle><circle cx="421.14" cy="632.57" r="1.95" fill="#F4F4F8"></circle><circle cx="442.29" cy="632.57" r="2.92" fill="#F4F4F8"></circle><circle cx="463.43" cy="632.57" r="3.89" fill="#F4F4F8"></circle><circle cx="484.57" cy="632.57" r="4.86" fill="#F4F4F8"></circle><circle cx="505.71" cy="632.57" r="5.84" fill="#F4F4F8"></circle><circle cx="526.86" cy="632.57" r="6.81" fill="#F4F4F8"></circle><circle cx="548.00" cy="632.57" r="7.78" fill="#F4F4F8"></circle><circle cx="569.14" cy="632.57" r="8.75" fill="#F4F4F8"></circle><circle cx="294.29" cy="653.71" r="1.76" fill="#F4F4F8"></circle><circle cx="315.43" cy="653.71" r="1.78" fill="#F4F4F8"></circle><circle cx="336.57" cy="653.71" r="1.80" fill="#F4F4F8"></circle><circle cx="421.14" cy="653.71" r="1.95" fill="#F4F4F8"></circle><circle cx="442.29" cy="653.71" r="2.92" fill="#F4F4F8"></circle><circle cx="463.43" cy="653.71" r="3.89" fill="#F4F4F8"></circle><circle cx="484.57" cy="653.71" r="4.86" fill="#F4F4F8"></circle><circle cx="505.71" cy="653.71" r="5.84" fill="#F4F4F8"></circle><circle cx="526.86" cy="653.71" r="6.81" fill="#F4F4F8"></circle><circle cx="548.00" cy="653.71" r="7.78" fill="#F4F4F8"></circle><circle cx="378.86" cy="674.86" r="2.45" fill="#F4F4F8"></circle><circle cx="400.00" cy="674.86" r="1.99" fill="#F4F4F8"></circle><circle cx="421.14" cy="674.86" r="1.95" fill="#F4F4F8"></circle><circle cx="442.29" cy="674.86" r="2.92" fill="#F4F4F8"></circle><circle cx="463.43" cy="674.86" r="3.89" fill="#F4F4F8"></circle><circle cx="484.57" cy="674.86" r="4.86" fill="#F4F4F8"></circle><circle cx="505.71" cy="674.86" r="5.84" fill="#F4F4F8"></circle><circle cx="400.00" cy="696.00" r="1.88" fill="#F4F4F8"></circle></svg>