<svg xmlns="http://www.w3.org/2000/svg" viewBox="0 0 400 400" width="400" height="400"><rect width="400" height="400" fill="#EDEAE3"></rect><circle cx="200.00" cy="52.00" r="1.14" fill="#08090C"></circle><circle cx="178.86" cy="62.57" r="1.03" fill="#08090C"></circle><circle cx="200.00" cy="62.57" r="1.28" fill="#08090C"></circle><circle cx="210.57" cy="62.57" r="0.97" fill="#08090C"></circle><circle cx="221.14" cy="62.57" r="1.46" fill="#08090C"></circle><circle cx="231.71" cy="62.57" r="1.95" fill="#08090C"></circle><circle cx="242.29" cy="62.57" r="2.43" fill="#08090C"></circle><circle cx="252.86" cy="62.57" r="2.92" fill="#08090C"></circle><circle cx="136.57" cy="73.14" r="0.90" fill="#08090C"></circle><circle cx="147.14" cy="73.14" r="1.11" fill="#08090C"></circle><circle cx="210.57" cy="73.14" r="0.97" fill="#08090C"></circle><circle cx="221.14" cy="73.14" r="1.46" fill="#08090C"></circle><circle cx="231.71" cy="73.14" r="1.95" fill="#08090C"></circle><circle cx="242.29" cy="73.14" r="2.43" fill="#08090C"></circle><circle cx="252.86" cy="73.14" r="2.92" fill="#08090C"></circle><circle cx="263.43" cy="73.14" r="3.40" fill="#08090C"></circle><circle cx="274.00" cy="73.14" r="3.89" fill="#08090C"></circle><circle cx="136.57" cy="83.71" r="0.93" fill="#08090C"></circle><circle cx="178.86" cy="83.71" r="1.03" fill="#08090C"></circle><circle cx="200.00" cy="83.71" r="1.11" fill="#08090C"></circle><circle cx="210.57" cy="83.71" r="0.97" fill="#08090C"></circle><circle cx="221.14" cy="83.71" r="1.46" fill="#08090C"></circle><circle cx="231.71" cy="83.71" r="1.95" fill="#08090C"></circle><circle cx="242.29" cy="83.71" r="2.43" fill="#08090C"></circle><circle cx="252.86" cy="83.71" r="2.92" fill="#08090C"></circle><circle cx="263.43" cy="83.71" r="3.40" fill="#08090C"></circle><circle cx="274.00" cy="83.71" r="3.89" fill="#08090C"></circle><circle cx="284.57" cy="83.71" r="4.38" fill="#08090C"></circle><circle cx="157.71" cy="94.29" r="1.13" fill="#08090C"></circle><circle cx="168.29" cy="94.29" r="1.02" fill="#08090C"></circle><circle cx="200.00" cy="94.29" r="0.92" fill="#08090C"></circle><circle cx="210.57" cy="94.29" r="0.97" fill="#08090C"></circle><circle cx="221.14" cy="94.29" r="1.46" fill="#08090C"></circle><circle cx="231.71" cy="94.29" r="1.95" fill="#08090C"></circle><circle cx="242.29" cy="94.29" r="2.43" fill="#08090C"></circle><circle cx="252.86" cy="94.29" r="2.92" fill="#08090C"></circle><circle cx="263.43" cy="94.29" r="3.40" fill="#08090C"></circle><circle cx="274.00" cy="94.29" r="3.89" fill="#08090C"></circle><circle cx="284.57" cy="94.29" r="4.38" fill="#08090C"></circle><circle cx="295.14" cy="94.29" r="4.86" fill="#08090C"></circle><circle cx="126.00" cy="104.86" r="0.98" fill="#08090C"></circle><circle cx="178.86" cy="104.86" r="0.89" fill="#08090C"></circle><circle cx="210.57" cy="104.86" r="0.97" fill="#08090C"></circle><circle cx="221.14" cy="104.86" r="1.46" fill="#08090C"></circle><circle cx="231.71" cy="104.86" r="1.95" fill="#08090C"></circle><circle cx="242.29" cy="104.86" r="2.43" fill="#08090C"></circle><circle cx="252.86" cy="104.86" r="2.92" fill="#08090C"></circle><circle cx="263.43" cy="104.86" r="3.40" fill="#08090C"></circle><circle cx="274.00" cy="104.86" r="3.89" fill="#08090C"></circle><circle cx="284.57" cy="104.86" r="4.38" fill="#08090C"></circle><circle cx="295.14" cy="104.86" r="4.86" fill="#08090C"></circle><circle cx="305.71" cy="104.86" r="4.86" fill="#08090C"></circle><circle cx="115.43" cy="115.43" r="1.00" fill="#08090C"></circle><circle cx="126.00" cy="115.43" r="0.95" fill="#08090C"></circle><circle cx="147.14" cy="115.43" r="0.98" fill="#08090C"></circle><circle cx="157.71" cy="115.43" r="1.11" fill="#08090C"></circle><circle cx="200.00" cy="115.43" r="1.22" fill="#08090C"></circle><circle cx="210.57" cy="115.43" r="0.97" fill="#08090C"></circle><circle cx="221.14" cy="115.43" r="1.46" fill="#08090C"></circle><circle cx="231.71" cy="115.43" r="1.95" fill="#08090C"></circle><circle cx="242.29" cy="115.43" r="2.43" fill="#08090C"></circle><circle cx="252.86" cy="115.43" r="2.92" fill="#08090C"></circle><circle cx="263.43" cy="115.43" r="3.40" fill="#08090C"></circle><circle cx="274.00" cy="115.43" r="3.89" fill="#08090C"></circle><circle cx="284.57" cy="115.43" r="4.38" fill="#08090C"></circle><circle cx="295.14" cy="115.43" r="4.86" fill="#08090C"></circle><circle cx="305.71" cy="115.43" r="4.86" fill="#08090C"></circle><circle cx="316.29" cy="115.43" r="4.86" fill="#08090C"></circle><circle cx="136.57" cy="126.00" r="1.12" fill="#08090C"></circle><circle cx="189.43" cy="126.00" r="1.17" fill="#08090C"></circle><circle cx="210.57" cy="126.00" r="0.97" fill="#08090C"></circle><circle cx="221.14" cy="126.00" r="1.46" fill="#08090C"></circle><circle cx="231.71" cy="126.00" r="1.95" fill="#08090C"></circle><circle cx="242.29" cy="126.00" r="2.43" fill="#08090C"></circle><circle cx="252.86" cy="126.00" r="2.92" fill="#08090C"></circle><circle cx="263.43" cy="126.00" r="3.40" fill="#08090C"></circle><circle cx="274.00" cy="126.00" r="3.89" fill="#08090C"></circle><circle cx="284.57" cy="126.00" r="4.38" fill="#08090C"></circle><circle cx="295.14" cy="126.00" r="4.86" fill="#08090C"></circle><circle cx="305.71" cy="126.00" r="4.86" fill="#08090C"></circle><circle cx="316.29" cy="126.00" r="4.86" fill="#08090C"></circle><circle cx="326.86" cy="126.00" r="4.86" fill="#08090C"></circle><circle cx="126.00" cy="136.57" r="0.96" fill="#08090C"></circle><circle cx="147.14" cy="136.57" r="1.03" fill="#08090C"></circle><circle cx="157.71" cy="136.57" r="1.10" fill="#08090C"></circle><circle cx="178.86" cy="136.57" r="0.99" fill="#08090C"></circle><circle cx="210.57" cy="136.57" r="0.97" fill="#08090C"></circle><circle cx="221.14" cy="136.57" r="1.46" fill="#08090C"></circle><circle cx="231.71" cy="136.57" r="1.95" fill="#08090C"></circle><circle cx="242.29" cy="136.57" r="2.43" fill="#08090C"></circle><circle cx="252.86" cy="136.57" r="2.92" fill="#08090C"></circle><circle cx="263.43" cy="136.57" r="3.40" fill="#08090C"></circle><circle cx="274.00" cy="136.57" r="3.89" fill="#08090C"></circle><circle cx="284.57" cy="136.57" r="4.38" fill="#08090C"></circle><circle cx="295.14" cy="136.57" r="4.86" fill="#08090C"></circle><circle cx="305.71" cy="136.57" r="4.86" fill="#08090C"></circle><circle cx="316.29" cy="136.57" r="4.86" fill="#08090C"></circle><circle cx="326.86" cy="136.57" r="4.86" fill="#08090C"></circle><circle cx="104.86" cy="147.14" r="0.93" fill="#08090C"></circle><circle cx="147.14" cy="147.14" r="0.94" fill="#08090C"></circle><circle cx="157.71" cy="147.14" r="0.97" fill="#08090C"></circle><circle cx="168.29" cy="147.14" r="1.05" fill="#08090C"></circle><circle cx="178.86" cy="147.14" r="0.98" fill="#08090C"></circle><circle cx="189.43" cy="147.14" r="0.95" fill="#08090C"></circle><circle cx="200.00" cy="147.14" r="1.05" fill="#08090C"></circle><circle cx="210.57" cy="147.14" r="0.97" fill="#08090C"></circle><circle cx="221.14" cy="147.14" r="1.46" fill="#08090C"></circle><circle cx="231.71" cy="147.14" r="1.95" fill="#08090C"></circle><circle cx="242.29" cy="147.14" r="2.43" fill="#08090C"></circle><circle cx="252.86" cy="147.14" r="2.92" fill="#08090C"></circle><circle cx="263.43" cy="147.14" r="3.40" fill="#08090C"></circle><circle cx="274.00" cy="147.14" r="3.89" fill="#08090C"></circle><circle cx="284.57" cy="147.14" r="4.38" fill="#08090C"></circle><circle cx="295.14" cy="147.14" r="4.86" fill="#08090C"></circle><circle cx="305.71" cy="147.14" r="4.86" fill="#08090C"></circle><circle cx="316.29" cy="147.14" r="4.86" fill="#08090C"></circle><circle cx="326.86" cy="147.14" r="4.86" fill="#08090C"></circle><circle cx="337.43" cy="147.14" r="4.86" fill="#08090C"></circle><circle cx="73.14" cy="157.71" r="0.92" fill="#08090C"></circle><circle cx="94.29" cy="157.71" r="0.99" fill="#08090C"></circle><circle cx="126.00" cy="157.71" r="1.08" fill="#08090C"></circle><circle cx="157.71" cy="157.71" r="0.92" fill="#08090C"></circle><circle cx="178.86" cy="157.71" r="1.23" fill="#08090C"></circle><circle cx="189.43" cy="157.71" r="1.13" fill="#08090C"></circle><circle cx="210.57" cy="157.71" r="0.97" fill="#08090C"></circle><circle cx="221.14" cy="157.71" r="1.46" fill="#08090C"></circle><circle cx="231.71" cy="157.71" r="1.95" fill="#08090C"></circle><circle cx="242.29" cy="157.71" r="2.43" fill="#08090C"></circle><circle cx="252.86" cy="157.71" r="2.92" fill="#08090C"></circle><circle cx="263.43" cy="157.71" r="3.40" fill="#08090C"></circle><circle cx="274.00" cy="157.71" r="3.89" fill="#08090C"></circle><circle cx="284.57" cy="157.71" r="4.38" fill="#08090C"></circle><circle cx="295.14" cy="157.71" r="4.86" fill="#08090C"></circle><circle cx="305.71" cy="157.71" r="4.86" fill="#08090C"></circle><circle cx="316.29" cy="157.71" r="4.86" fill="#08090C"></circle><circle cx="326.86" cy="157.71" r="4.86" fill="#08090C"></circle><circle cx="337.43" cy="157.71" r="4.86" fill="#08090C"></circle><circle cx="94.29" cy="168.29" r="0.98" fill="#08090C"></circle><circle cx="115.43" cy="168.29" r="0.97" fill="#08090C"></circle><circle cx="157.71" cy="168.29" r="0.88" fill="#08090C"></circle><circle cx="168.29" cy="168.29" r="0.96" fill="#08090C"></circle><circle cx="178.86" cy="168.29" r="0.97" fill="#08090C"></circle><circle cx="189.43" cy="168.29" r="0.92" fill="#08090C"></circle><circle cx="210.57" cy="168.29" r="0.97" fill="#08090C"></circle><circle cx="221.14" cy="168.29" r="1.46" fill="#08090C"></circle><circle cx="231.71" cy="168.29" r="1.95" fill="#08090C"></circle><circle cx="242.29" cy="168.29" r="2.43" fill="#08090C"></circle><circle cx="252.86" cy="168.29" r="2.92" fill="#08090C"></circle><circle cx="263.43" cy="168.29" r="3.40" fill="#08090C"></circle><circle cx="274.00" cy="168.29" r="3.89" fill="#08090C"></circle><circle cx="284.57" cy="168.29" r="4.38" fill="#08090C"></circle><circle cx="295.14" cy="168.29" r="4.86" fill="#08090C"></circle><circle cx="305.71" cy="168.29" r="4.86" fill="#08090C"></circle><circle cx="316.29" cy="168.29" r="4.86" fill="#08090C"></circle><circle cx="326.86" cy="168.29" r="4.86" fill="#08090C"></circle><circle cx="337.43" cy="168.29" r="4.86" fill="#08090C"></circle><circle cx="115.43" cy="178.86" r="0.89" fill="#08090C"></circle><circle cx="126.00" cy="178.86" r="0.93" fill="#08090C"></circle><circle cx="210.57" cy="178.86" r="0.97" fill="#08090C"></circle><circle cx="221.14" cy="178.86" r="1.46" fill="#08090C"></circle><circle cx="231.71" cy="178.86" r="1.95" fill="#08090C"></circle><circle cx="242.29" cy="178.86" r="2.43" fill="#08090C"></circle><circle cx="252.86" cy="178.86" r="2.92" fill="#08090C"></circle><circle cx="263.43" cy="178.86" r="3.40" fill="#08090C"></circle><circle cx="274.00" cy="178.86" r="3.89" fill="#08090C"></circle><circle cx="284.57" cy="178.86" r="4.38" fill="#08090C"></circle><circle cx="295.14" cy="178.86" r="4.86" fill="#08090C"></circle><circle cx="305.71" cy="178.86" r="4.86" fill="#08090C"></circle><circle cx="316.29" cy="178.86" r="4.86" fill="#08090C"></circle><circle cx="326.86" cy="178.86" r="4.86" fill="#08090C"></circle><circle cx="337.43" cy="178.86" r="4.86" fill="#08090C"></circle><circle cx="178.86" cy="189.43" r="0.88" fill="#08090C"></circle><circle cx="189.43" cy="189.43" r="1.10" fill="#08090C"></circle><circle cx="200.00" cy="189.43" r="1.30" fill="#08090C"></circle><circle cx="210.57" cy="189.43" r="0.97" fill="#08090C"></circle><circle cx="221.14" cy="189.43" r="1.46" fill="#08090C"></circle><circle cx="231.71" cy="189.43" r="1.95" fill="#08090C"></circle><circle cx="242.29" cy="189.43" r="2.43" fill="#08090C"></circle><circle cx="252.86" cy="189.43" r="2.92" fill="#08090C"></circle><circle cx="263.43" cy="189.43" r="3.40" fill="#08090C"></circle><circle cx="274.00" cy="189.43" r="3.89" fill="#08090C"></circle><circle cx="284.57" cy="189.43" r="4.38" fill="#08090C"></circle><circle cx="295.14" cy="189.43" r="4.86" fill="#08090C"></circle><circle cx="305.71" cy="189.43" r="4.86" fill="#08090C"></circle><circle cx="316.29" cy="189.43" r="4.86" fill="#08090C"></circle><circle cx="326.86" cy="189.43" r="4.86" fill="#08090C"></circle><circle cx="337.43" cy="189.43" r="4.86" fill="#08090C"></circle><circle cx="115.43" cy="200.00" r="0.94" fill="#08090C"></circle><circle cx="136.57" cy="200.00" r="0.98" fill="#08090C"></circle><circle cx="168.29" cy="200.00" r="0.98" fill="#08090C"></circle><circle cx="178.86" cy="200.00" r="1.22" fill="#08090C"></circle><circle cx="189.43" cy="200.00" r="1.01" fill="#08090C"></circle><circle cx="210.57" cy="200.00" r="0.97" fill="#08090C"></circle><circle cx="221.14" cy="200.00" r="1.46" fill="#08090C"></circle><circle cx="231.71" cy="200.00" r="1.95" fill="#08090C"></circle><circle cx="242.29" cy="200.00" r="2.43" fill="#08090C"></circle><circle cx="252.86" cy="200.00" r="2.92" fill="#08090C"></circle><circle cx="263.43" cy="200.00" r="3.40" fill="#08090C"></circle><circle cx="274.00" cy="200.00" r="3.89" fill="#08090C"></circle><circle cx="284.57" cy="200.00" r="4.38" fill="#08090C"></circle><circle cx="295.14" cy="200.00" r="4.86" fill="#08090C"></circle><circle cx="305.71" cy="200.00" r="4.86" fill="#08090C"></circle><circle cx="316.29" cy="200.00" r="4.86" fill="#08090C"></circle><circle cx="326.86" cy="200.00" r="4.86" fill="#08090C"></circle><circle cx="337.43" cy="200.00" r="4.86" fill="#08090C"></circle><circle cx="348.00" cy="200.00" r="4.86" fill="#08090C"></circle><circle cx="126.00" cy="210.57" r="0.97" fill="#08090C"></circle><circle cx="157.71" cy="210.57" r="0.97" fill="#08090C"></circle><circle cx="168.29" cy="210.57" r="1.17" fill="#08090C"></circle><circle cx="189.43" cy="210.57" r="1.10" fill="#08090C"></circle><circle cx="200.00" cy="210.57" r="0.89" fill="#08090C"></circle><circle cx="210.57" cy="210.57" r="0.97" fill="#08090C"></circle><circle cx="221.14" cy="210.57" r="1.46" fill="#08090C"></circle><circle cx="231.71" cy="210.57" r="1.95" fill="#08090C"></circle><circle cx="242.29" cy="210.57" r="2.43" fill="#08090C"></circle><circle cx="252.86" cy="210.57" r="2.92" fill="#08090C"></circle><circle cx="263.43" cy="210.57" r="3.40" fill="#08090C"></circle><circle cx="274.00" cy="210.57" r="3.89" fill="#08090C"></circle><circle cx="284.57" cy="210.57" r="4.38" fill="#08090C"></circle><circle cx="295.14" cy="210.57" r="4.86" fill="#08090C"></circle><circle cx="305.71" cy="210.57" r="4.86" fill="#08090C"></circle><circle cx="316.29" cy="210.57" r="4.86" fill="#08090C"></circle><circle cx="326.86" cy="210.57" r="4.86" fill="#08090C"></circle><circle cx="337.43" cy="210.57" r="4.86" fill="#08090C"></circle><circle cx="136.57" cy="221.14" r="0.93" fill="#08090C"></circle><circle cx="147.14" cy="221.14" r="0.91" fill="#08090C"></circle><circle cx="189.43" cy="221.14" r="1.17" fill="#08090C"></circle><circle cx="210.57" cy="221.14" r="0.97" fill="#08090C"></circle><circle cx="221.14" cy="221.14" r="1.46" fill="#08090C"></circle><circle cx="231.71" cy="221.14" r="1.95" fill="#08090C"></circle><circle cx="242.29" cy="221.14" r="2.43" fill="#08090C"></circle><circle cx="252.86" cy="221.14" r="2.92" fill="#08090C"></circle><circle cx="263.43" cy="221.14" r="3.40" fill="#08090C"></circle><circle cx="274.00" cy="221.14" r="3.89" fill="#08090C"></circle><circle cx="284.57" cy="221.14" r="4.38" fill="#08090C"></circle><circle cx="295.14" cy="221.14" r="4.86" fill="#08090C"></circle><circle cx="305.71" cy="221.14" r="4.86" fill="#08090C"></circle><circle cx="316.29" cy="221.14" r="4.86" fill="#08090C"></circle><circle cx="326.86" cy="221.14" r="4.86" fill="#08090C"></circle><circle cx="337.43" cy="221.14" r="4.86" fill="#08090C"></circle><circle cx="126.00" cy="231.71" r="1.01" fill="#08090C"></circle><circle cx="136.57" cy="231.71" r="1.03" fill="#08090C"></circle><circle cx="178.86" cy="231.71" r="1.14" fill="#08090C"></circle><circle cx="189.43" cy="231.71" r="1.13" fill="#08090C"></circle><circle cx="210.57" cy="231.71" r="0.97" fill="#08090C"></circle><circle cx="221.14" cy="231.71" r="1.46" fill="#08090C"></circle><circle cx="231.71" cy="231.71" r="1.95" fill="#08090C"></circle><circle cx="242.29" cy="231.71" r="2.43" fill="#08090C"></circle><circle cx="252.86" cy="231.71" r="2.92" fill="#08090C"></circle><circle cx="263.43" cy="231.71" r="3.40" fill="#08090C"></circle><circle cx="274.00" cy="231.71" r="3.89" fill="#08090C"></circle><circle cx="284.57" cy="231.71" r="4.38" fill="#08090C"></circle><circle cx="295.14" cy="231.71" r="4.86" fill="#08090C"></circle><circle cx="305.71" cy="231.71" r="4.86" fill="#08090C"></circle><circle cx="316.29" cy="231.71" r="4.86" fill="#08090C"></circle><circle cx="326.86" cy="231.71" r="4.86" fill="#08090C"></circle><circle cx="337.43" cy="231.71" r="4.86" fill="#08090C"></circle><circle cx="94.29" cy="242.29" r="0.99" fill="#08090C"></circle><circle cx="104.86" cy="242.29" r="0.90" fill="#08090C"></circle><circle cx="126.00" cy="242.29" r="0.90" fill="#08090C"></circle><circle cx="157.71" cy="242.29" r="0.93" fill="#08090C"></circle><circle cx="189.43" cy="242.29" r="1.17" fill="#08090C"></circle><circle cx="210.57" cy="242.29" r="0.97" fill="#08090C"></circle><circle cx="221.14" cy="242.29" r="1.46" fill="#08090C"></circle><circle cx="231.71" cy="242.29" r="1.95" fill="#08090C"></circle><circle cx="242.29" cy="242.29" r="2.43" fill="#08090C"></circle><circle cx="252.86" cy="242.29" r="2.92" fill="#08090C"></circle><circle cx="263.43" cy="242.29" r="3.40" fill="#08090C"></circle><circle cx="274.00" cy="242.29" r="3.89" fill="#08090C"></circle><circle cx="284.57" cy="242.29" r="4.38" fill="#08090C"></circle><circle cx="295.14" cy="242.29" r="4.86" fill="#08090C"></circle><circle cx="305.71" cy="242.29" r="4.86" fill="#08090C"></circle><circle cx="316.29" cy="242.29" r="4.86" fill="#08090C"></circle><circle cx="326.86" cy="242.29" r="4.86" fill="#08090C"></circle><circle cx="337.43" cy="242.29" r="4.86" fill="#08090C"></circle><circle cx="178.86" cy="252.86" r="1.02" fill="#08090C"></circle><circle cx="210.57" cy="252.86" r="0.97" fill="#08090C"></circle><circle cx="221.14" cy="252.86" r="1.46" fill="#08090C"></circle><circle cx="231.71" cy="252.86" r="1.95" fill="#08090C"></circle><circle cx="242.29" cy="252.86" r="2.43" fill="#08090C"></circle><circle cx="252.86" cy="252.86" r="2.92" fill="#08090C"></circle><circle cx="263.43" cy="252.86" r="3.40" fill="#08090C"></circle><circle cx="274.00" cy="252.86" r="3.89" fill="#08090C"></circle><circle cx="284.57" cy="252.86" r="4.38" fill="#08090C"></circle><circle cx="295.14" cy="252.86" r="4.86" fill="#08090C"></circle><circle cx="305.71" cy="252.86" r="4.86" fill="#08090C"></circle><circle cx="316.29" cy="252.86" r="4.86" fill="#08090C"></circle><circle cx="326.86" cy="252.86" r="4.86" fill="#08090C"></circle><circle cx="337.43" cy="252.86" r="4.86" fill="#08090C"></circle><circle cx="115.43" cy="263.43" r="1.02" fill="#08090C"></circle><circle cx="126.00" cy="263.43" r="1.05" fill="#08090C"></circle><circle cx="168.29" cy="263.43" r="0.94" fill="#08090C"></circle><circle cx="178.86" cy="263.43" r="0.89" fill="#08090C"></circle><circle cx="189.43" cy="263.43" r="0.92" fill="#08090C"></circle><circle cx="200.00" cy="263.43" r="0.90" fill="#08090C"></circle><circle cx="210.57" cy="263.43" r="0.97" fill="#08090C"></circle><circle cx="221.14" cy="263.43" r="1.46" fill="#08090C"></circle><circle cx="231.71" cy="263.43" r="1.95" fill="#08090C"></circle><circle cx="242.29" cy="263.43" r="2.43" fill="#08090C"></circle><circle cx="252.86" cy="263.43" r="2.92" fill="#08090C"></circle><circle cx="263.43" cy="263.43" r="3.40" fill="#08090C"></circle><circle cx="274.00" cy="263.43" r="3.89" fill="#08090C"></circle><circle cx="284.57" cy="263.43" r="4.38" fill="#08090C"></circle><circle cx="295.14" cy="263.43" r="4.86" fill="#08090C"></circle><circle cx="305.71" cy="263.43" r="4.86" fill="#08090C"></circle><circle cx="316.29" cy="263.43" r="4.86" fill="#08090C"></circle><circle cx="326.86" cy="263.43" r="4.86" fill="#08090C"></circle><circle cx="83.71" cy="274.00" r="0.91" fill="#08090C"></circle><circle cx="104.86" cy="274.00" r="1.01" fill="#08090C"></circle><circle cx="157.71" cy="274.00" r="1.18" fill="#08090C"></circle><circle cx="168.29" cy="274.00" r="1.09" fill="#08090C"></circle><circle cx="200.00" cy="274.00" r="1.21" fill="#08090C"></circle><circle cx="210.57" cy="274.00" r="0.97" fill="#08090C"></circle><circle cx="221.14" cy="274.00" r="1.46" fill="#08090C"></circle><circle cx="231.71" cy="274.00" r="1.95" fill="#08090C"></circle><circle cx="242.29" cy="274.00" r="2.43" fill="#08090C"></circle><circle cx="252.86" cy="274.00" r="2.92" fill="#08090C"></circle><circle cx="263.43" cy="274.00" r="3.40" fill="#08090C"></circle><circle cx="274.00" cy="274.00" r="3.89" fill="#08090C"></circle><circle cx="284.57" cy="274.00" r="4.38" fill="#08090C"></circle><circle cx="295.14" cy="274.00" r="4.86" fill="#08090C"></circle><circle cx="305.71" cy="274.00" r="4.86" fill="#08090C"></circle><circle cx="316.29" cy="274.00" r="4.86" fill="#08090C"></circle><circle cx="326.86" cy="274.00" r="4.86" fill="#08090C"></circle><circle cx="115.43" cy="284.57" r="0.92" fill="#08090C"></circle><circle cx="126.00" cy="284.57" r="1.07" fill="#08090C"></circle><circle cx="136.57" cy="284.57" r="1.04" fill="#08090C"></circle><circle cx="157.71" cy="284.57" r="1.03" fill="#08090C"></circle><circle cx="189.43" cy="284.57" r="1.24" fill="#08090C"></circle><circle cx="200.00" cy="284.57" r="1.13" fill="#08090C"></circle><circle cx="210.57" cy="284.57" r="0.97" fill="#08090C"></circle><circle cx="221.14" cy="284.57" r="1.46" fill="#08090C"></circle><circle cx="231.71" cy="284.57" r="1.95" fill="#08090C"></circle><circle cx="242.29" cy="284.57" r="2.43" fill="#08090C"></circle><circle cx="252.86" cy="284.57" r="2.92" fill="#08090C"></circle><circle cx="263.43" cy="284.57" r="3.40" fill="#08090C"></circle><circle cx="274.00" cy="284.57" r="3.89" fill="#08090C"></circle><circle cx="284.57" cy="284.57" r="4.38" fill="#08090C"></circle><circle cx="295.14" cy="284.57" r="4.86" fill="#08090C"></circle><circle cx="305.71" cy="284.57" r="4.86" fill="#08090C"></circle><circle cx="316.29" cy="284.57" r="4.86" fill="#08090C"></circle><circle cx="104.86" cy="295.14" r="0.91" fill="#08090C"></circle><circle cx="115.43" cy="295.14" r="0.94" fill="#08090C"></circle><circle cx="126.00" cy="295.14" r="0.98" fill="#08090C"></circle><circle cx="147.14" cy="295.14" r="1.12" fill="#08090C"></circle><circle cx="168.29" cy="295.14" r="1.06" fill="#08090C"></circle><circle cx="210.57" cy="295.14" r="0.97" fill="#08090C"></circle><circle cx="221.14" cy="295.14" r="1.46" fill="#08090C"></circle><circle cx="231.71" cy="295.14" r="1.95" fill="#08090C"></circle><circle cx="242.29" cy="295.14" r="2.43" fill="#08090C"></circle><circle cx="252.86" cy="295.14" r="2.92" fill="#08090C"></circle><circle cx="263.43" cy="295.14" r="3.40" fill="#08090C"></circle><circle cx="274.00" cy="295.14" r="3.89" fill="#08090C"></circle><circle cx="284.57" cy="295.14" r="4.38" fill="#08090C"></circle><circle cx="295.14" cy="295.14" r="4.86" fill="#08090C"></circle><circle cx="305.71" cy="295.14" r="4.86" fill="#08090C"></circle><circle cx="136.57" cy="305.71" r="1.06" fill="#08090C"></circle><circle cx="157.71" cy="305.71" r="1.15" fill="#08090C"></circle><circle cx="189.43" cy="305.71" r="1.19" fill="#08090C"></circle><circle cx="210.57" cy="305.71" r="0.97" fill="#08090C"></circle><circle cx="221.14" cy="305.71" r="1.46" fill="#08090C"></circle><circle cx="231.71" cy="305.71" r="1.95" fill="#08090C"></circle><circle cx="242.29" cy="305.71" r="2.43" fill="#08090C"></circle><circle cx="252.86" cy="305.71" r="2.92" fill="#08090C"></circle><circle cx="263.43" cy="305.71" r="3.40" fill="#08090C"></circle><circle cx="274.00" cy="305.71" r="3.89" fill="#08090C"></circle><circle cx="284.57" cy="305.71" r="4.38" fill="#08090C"></circle><circle cx="295.14" cy="305.71" r="4.86" fill="#08090C"></circle><circle cx="115.43" cy="316.29" r="0.90" fill="#08090C"></circle><circle cx="147.14" cy="316.29" r="1.10" fill="#08090C"></circle><circle cx="210.57" cy="316.29" r="0.97" fill="#08090C"></circle><circle cx="221.14" cy="316.29" r="1.46" fill="#08090C"></circle><circle cx="231.71" cy="316.29" r="1.95" fill="#08090C"></circle><circle cx="242.29" cy="316.29" r="2.43" fill="#08090C"></circle><circle cx="252.86" cy="316.29" r="2.92" fill="#08090C"></circle><circle cx="263.43" cy="316.29" r="3.40" fill="#08090C"></circle><circle cx="274.00" cy="316.29" r="3.89" fill="#08090C"></circle><circle cx="284.57" cy="316.29" r="4.38" fill="#08090C"></circle><circle cx="147.14" cy="326.86" r="0.88" fill="#08090C"></circle><circle cx="157.71" cy="326.86" r="0.89" fill="#08090C"></circle><circle cx="168.29" cy="326.86" r="0.90" fill="#08090C"></circle><circle cx="210.57" cy="326.86" r="0.97" fill="#08090C"></circle><circle cx="221.14" cy="326.86" r="1.46" fill="#08090C"></circle><circle cx="231.71" cy="326.86" r="1.95" fill="#08090C"></circle><circle cx="242.29" cy="326.86" r="2.43" fill="#08090C"></circle><circle cx="252.86" cy="326.86" r="2.92" fill="#08090C"></circle><circle cx="263.43" cy="326.86" r="3.40" fill="#08090C"></circle><circle cx="274.00" cy="326.86" r="3.89" fill="#08090C"></circle><circle cx="189.43" cy="337.43" r="1.23" fill="#08090C"></circle><circle cx="200.00" cy="337.43" r="0.99" fill="#08090C"></circle><circle cx="210.57" cy="337.43" r="0.97" fill="#08090C"></circle><circle cx="221.14" cy="337.43" r="1.46" fill="#08090C"></circle><circle cx="231.71" cy="337.43" r="1.95" fill="#08090C"></circle><circle cx="242.29" cy="337.43" r="2.43" fill="#08090C"></circle><circle cx="252.86" cy="337.43" r="2.92" fill="#08090C"></circle><circle cx="200.00" cy="348.00" r="0.94" fill="#08090C"></circle></svg>