<svg xmlns="http://www.w3.org/2000/svg" viewBox="0 0 300 300" width="300" height="300"><rect width="300" height="300" fill="#08090C"></rect><circle cx="134.14" cy="46.93" r="0.78" fill="#F4F4F8"></circle><circle cx="157.93" cy="46.93" r="0.73" fill="#F4F4F8"></circle><circle cx="165.86" cy="46.93" r="1.09" fill="#F4F4F8"></circle><circle cx="173.79" cy="46.93" r="1.46" fill="#F4F4F8"></circle><circle cx="181.71" cy="46.93" r="1.82" fill="#F4F4F8"></circle><circle cx="189.64" cy="46.93" r="2.19" fill="#F4F4F8"></circle><circle cx="102.43" cy="54.86" r="0.67" fill="#F4F4F8"></circle><circle cx="110.36" cy="54.86" r="0.83" fill="#F4F4F8"></circle><circle cx="157.93" cy="54.86" r="0.73" fill="#F4F4F8"></circle><circle cx="165.86" cy="54.86" r="1.09" fill="#F4F4F8"></circle><circle cx="173.79" cy="54.86" r="1.46" fill="#F4F4F8"></circle><circle cx="181.71" cy="54.86" r="1.82" fill="#F4F4F8"></circle><circle cx="189.64" cy="54.86" r="2.19" fill="#F4F4F8"></circle><circle cx="197.57" cy="54.86" r="2.55" fill="#F4F4F8"></circle><circle cx="205.50" cy="54.86" r="2.92" fill="#F4F4F8"></circle><circle cx="102.43" cy="62.79" r="0.70" fill="#F4F4F8"></circle><circle cx="134.14" cy="62.79" r="0.77" fill="#F4F4F8"></circle><circle cx="157.93" cy="62.79" r="0.73" fill="#F4F4F8"></circle><circle cx="165.86" cy="62.79" r="1.09" fill="#F4F4F8"></circle><circle cx="173.79" cy="62.79" r="1.46" fill="#F4F4F8"></circle><circle cx="181.71" cy="62.79" r="1.82" fill="#F4F4F8"></circle><circle cx="189.64" cy="62.79" r="2.19" fill="#F4F4F8"></circle><circle cx="197.57" cy="62.79" r="2.55" fill="#F4F4F8"></circle><circle cx="205.50" cy="62.79" r="2.92" fill="#F4F4F8"></circle><circle cx="213.43" cy="62.79" r="3.28" fill="#F4F4F8"></circle><circle cx="118.29" cy="70.71" r="0.85" fill="#F4F4F8"></circle><circle cx="126.21" cy="70.71" r="0.77" fill="#F4F4F8"></circle><circle cx="157.93" cy="70.71" r="0.73" fill="#F4F4F8"></circle><circle cx="165.86" cy="70.71" r="1.09" fill="#F4F4F8"></circle><circle cx="173.79" cy="70.71" r="1.46" fill="#F4F4F8"></circle><circle cx="181.71" cy="70.71" r="1.82" fill="#F4F4F8"></circle><circle cx="189.64" cy="70.71" r="2.19" fill="#F4F4F8"></circle><circle cx="197.57" cy="70.71" r="2.55" fill="#F4F4F8"></circle><circle cx="205.50" cy="70.71" r="2.92" fill="#F4F4F8"></circle><circle cx="213.43" cy="70.71" r="3.28" fill="#F4F4F8"></circle><circle cx="221.36" cy="70.71" r="3.65" fill="#F4F4F8"></circle><circle cx="94.50" cy="78.64" r="0.74" fill="#F4F4F8"></circle><circle cx="134.14" cy="78.64" r="0.67" fill="#F4F4F8"></circle><circle cx="157.93" cy="78.64" r="0.73" fill="#F4F4F8"></circle><circle cx="165.86" cy="78.64" r="1.09" fill="#F4F4F8"></circle><circle cx="173.79" cy="78.64" r="1.46" fill="#F4F4F8"></circle><circle cx="181.71" cy="78.64" r="1.82" fill="#F4F4F8"></circle><circle cx="189.64" cy="78.64" r="2.19" fill="#F4F4F8"></circle><circle cx="197.57" cy="78.64" r="2.55" fill="#F4F4F8"></circle><circle cx="205.50" cy="78.64" r="2.92" fill="#F4F4F8"></circle><circle cx="213.43" cy="78.64" r="3.28" fill="#F4F4F8"></circle><circle cx="221.36" cy="78.64" r="3.65" fill="#F4F4F8"></circle><circle cx="229.29" cy="78.64" r="3.65" fill="#F4F4F8"></circle><circle cx="86.57" cy="86.57" r="0.75" fill="#F4F4F8"></circle><circle cx="94.50" cy="86.57" r="0.71" fill="#F4F4F8"></circle><circle cx="110.36" cy="86.57" r="0.74" fill="#F4F4F8"></circle><circle cx="118.29" cy="86.57" r="0.83" fill="#F4F4F8"></circle><circle cx="157.93" cy="86.57" r="0.73" fill="#F4F4F8"></circle><circle cx="165.86" cy="86.57" r="1.09" fill="#F4F4F8"></circle><circle cx="173.79" cy="86.57" r="1.46" fill="#F4F4F8"></circle><circle cx="181.71" cy="86.57" r="1.82" fill="#F4F4F8"></circle><circle cx="189.64" cy="86.57" r="2.19" fill="#F4F4F8"></circle><circle cx="197.57" cy="86.57" r="2.55" fill="#F4F4F8"></circle><circle cx="205.50" cy="86.57" r="2.92" fill="#F4F4F8"></circle><circle cx="213.43" cy="86.57" r="3.28" fill="#F4F4F8"></circle><circle cx="221.36" cy="86.57" r="3.65" fill="#F4F4F8"></circle><circle cx="229.29" cy="86.57" r="3.65" fill="#F4F4F8"></circle><circle cx="237.21" cy="86.57" r="3.65" fill="#F4F4F8"></circle><circle cx="102.43" cy="94.50" r="0.84" fill="#F4F4F8"></circle><circle cx="142.07" cy="94.50" r="0.88" fill="#F4F4F8"></circle><circle cx="157.93" cy="94.50" r="0.73" fill="#F4F4F8"></circle><circle cx="165.86" cy="94.50" r="1.09" fill="#F4F4F8"></circle><circle cx="173.79" cy="94.50" r="1.46" fill="#F4F4F8"></circle><circle cx="181.71" cy="94.50" r="1.82" fill="#F4F4F8"></circle><circle cx="189.64" cy="94.50" r="2.19" fill="#F4F4F8"></circle><circle cx="197.57" cy="94.50" r="2.55" fill="#F4F4F8"></circle><circle cx="205.50" cy="94.50" r="2.92" fill="#F4F4F8"></circle><circle cx="213.43" cy="94.50" r="3.28" fill="#F4F4F8"></circle><circle cx="221.36" cy="94.50" r="3.65" fill="#F4F4F8"></circle><circle cx="229.29" cy="94.50" r="3.65" fill="#F4F4F8"></circle><circle cx="237.21" cy="94.50" r="3.65" fill="#F4F4F8"></circle><circle cx="245.14" cy="94.50" r="3.65" fill="#F4F4F8"></circle><circle cx="94.50" cy="102.43" r="0.72" fill="#F4F4F8"></circle><circle cx="110.36" cy="102.43" r="0.77" fill="#F4F4F8"></circle><circle cx="118.29" cy="102.43" r="0.82" fill="#F4F4F8"></circle><circle cx="134.14" cy="102.43" r="0.74" fill="#F4F4F8"></circle><circle cx="157.93" cy="102.43" r="0.73" fill="#F4F4F8"></circle><circle cx="165.86" cy="102.43" r="1.09" fill="#F4F4F8"></circle><circle cx="173.79" cy="102.43" r="1.46" fill="#F4F4F8"></circle><circle cx="181.71" cy="102.43" r="1.82" fill="#F4F4F8"></circle><circle cx="189.64" cy="102.43" r="2.19" fill="#F4F4F8"></circle><circle cx="197.57" cy="102.43" r="2.55" fill="#F4F4F8"></circle><circle cx="205.50" cy="102.43" r="2.92" fill="#F4F4F8"></circle><circle cx="213.43" cy="102.43" r="3.28" fill="#F4F4F8"></circle><circle cx="221.36" cy="102.43" r="3.65" fill="#F4F4F8"></circle><circle cx="229.29" cy="102.43" r="3.65" fill="#F4F4F8"></circle><circle cx="237.21" cy="102.43" r="3.65" fill="#F4F4F8"></circle><circle cx="245.14" cy="102.43" r="3.65" fill="#F4F4F8"></circle><circle cx="78.64" cy="110.36" r="0.70" fill="#F4F4F8"></circle><circle cx="110.36" cy="110.36" r="0.70" fill="#F4F4F8"></circle><circle cx="118.29" cy="110.36" r="0.72" fill="#F4F4F8"></circle><circle cx="126.21" cy="110.36" r="0.79" fill="#F4F4F8"></circle><circle cx="134.14" cy="110.36" r="0.74" fill="#F4F4F8"></circle><circle cx="142.07" cy="110.36" r="0.71" fill="#F4F4F8"></circle><circle cx="157.93" cy="110.36" r="0.73" fill="#F4F4F8"></circle><circle cx="165.86" cy="110.36" r="1.09" fill="#F4F4F8"></circle><circle cx="173.79" cy="110.36" r="1.46" fill="#F4F4F8"></circle><circle cx="181.71" cy="110.36" r="1.82" fill="#F4F4F8"></circle><circle cx="189.64" cy="110.36" r="2.19" fill="#F4F4F8"></circle><circle cx="197.57" cy="110.36" r="2.55" fill="#F4F4F8"></circle><circle cx="205.50" cy="110.36" r="2.92" fill="#F4F4F8"></circle><circle cx="213.43" cy="110.36" r="3.28" fill="#F4F4F8"></circle><circle cx="221.36" cy="110.36" r="3.65" fill="#F4F4F8"></circle><circle cx="229.29" cy="110.36" r="3.65" fill="#F4F4F8"></circle><circle cx="237.21" cy="110.36" r="3.65" fill="#F4F4F8"></circle><circle cx="245.14" cy="110.36" r="3.65" fill="#F4F4F8"></circle><circle cx="253.07" cy="110.36" r="3.65" fill="#F4F4F8"></circle><circle cx="54.86" cy="118.29" r="0.69" fill="#F4F4F8"></circle><circle cx="70.71" cy="118.29" r="0.74" fill="#F4F4F8"></circle><circle cx="94.50" cy="118.29" r="0.81" fill="#F4F4F8"></circle><circle cx="118.29" cy="118.29" r="0.69" fill="#F4F4F8"></circle><circle cx="134.14" cy="118.29" r="0.92" fill="#F4F4F8"></circle><circle cx="142.07" cy="118.29" r="0.85" fill="#F4F4F8"></circle><circle cx="157.93" cy="118.29" r="0.73" fill="#F4F4F8"></circle><circle cx="165.86" cy="118.29" r="1.09" fill="#F4F4F8"></circle><circle cx="173.79" cy="118.29" r="1.46" fill="#F4F4F8"></circle><circle cx="181.71" cy="118.29" r="1.82" fill="#F4F4F8"></circle><circle cx="189.64" cy="118.29" r="2.19" fill="#F4F4F8"></circle><circle cx="197.57" cy="118.29" r="2.55" fill="#F4F4F8"></circle><circle cx="205.50" cy="118.29" r="2.92" fill="#F4F4F8"></circle><circle cx="213.43" cy="118.29" r="3.28" fill="#F4F4F8"></circle><circle cx="221.36" cy="118.29" r="3.65" fill="#F4F4F8"></circle><circle cx="229.29" cy="118.29" r="3.65" fill="#F4F4F8"></circle><circle cx="237.21" cy="118.29" r="3.65" fill="#F4F4F8"></circle><circle cx="245.14" cy="118.29" r="3.65" fill="#F4F4F8"></circle><circle cx="253.07" cy="118.29" r="3.65" fill="#F4F4F8"></circle><circle cx="70.71" cy="126.21" r="0.73" fill="#F4F4F8"></circle><circle cx="86.57" cy="126.21" r="0.72" fill="#F4F4F8"></circle><circle cx="118.29" cy="126.21" r="0.66" fill="#F4F4F8"></circle><circle cx="126.21" cy="126.21" r="0.72" fill="#F4F4F8"></circle><circle cx="134.14" cy="126.21" r="0.73" fill="#F4F4F8"></circle><circle cx="142.07" cy="126.21" r="0.69" fill="#F4F4F8"></circle><circle cx="157.93" cy="126.21" r="0.73" fill="#F4F4F8"></circle><circle cx="165.86" cy="126.21" r="1.09" fill="#F4F4F8"></circle><circle cx="173.79" cy="126.21" r="1.46" fill="#F4F4F8"></circle><circle cx="181.71" cy="126.21" r="1.82" fill="#F4F4F8"></circle><circle cx="189.64" cy="126.21" r="2.19" fill="#F4F4F8"></circle><circle cx="197.57" cy="126.21" r="2.55" fill="#F4F4F8"></circle><circle cx="205.50" cy="126.21" r="2.92" fill="#F4F4F8"></circle><circle cx="213.43" cy="126.21" r="3.28" fill="#F4F4F8"></circle><circle cx="221.36" cy="126.21" r="3.65" fill="#F4F4F8"></circle><circle cx="229.29" cy="126.21" r="3.65" fill="#F4F4F8"></circle><circle cx="237.21" cy="126.21" r="3.65" fill="#F4F4F8"></circle><circle cx="245.14" cy="126.21" r="3.65" fill="#F4F4F8"></circle><circle cx="253.07" cy="126.21" r="3.65" fill="#F4F4F8"></circle><circle cx="86.57" cy="134.14" r="0.67" fill="#F4F4F8"></circle><circle cx="94.50" cy="134.14" r="0.70" fill="#F4F4F8"></circle><circle cx="157.93" cy="134.14" r="0.73" fill="#F4F4F8"></circle><circle cx="165.86" cy="134.14" r="1.09" fill="#F4F4F8"></circle><circle cx="173.79" cy="134.14" r="1.46" fill="#F4F4F8"></circle><circle cx="181.71" cy="134.14" r="1.82" fill="#F4F4F8"></circle><circle cx="189.64" cy="134.14" r="2.19" fill="#F4F4F8"></circle><circle cx="197.57" cy="134.14" r="2.55" fill="#F4F4F8"></circle><circle cx="205.50" cy="134.14" r="2.92" fill="#F4F4F8"></circle><circle cx="213.43" cy="134.14" r="3.28" fill="#F4F4F8"></circle><circle cx="221.36" cy="134.14" r="3.65" fill="#F4F4F8"></circle><circle cx="229.29" cy="134.14" r="3.65" fill="#F4F4F8"></circle><circle cx="237.21" cy="134.14" r="3.65" fill="#F4F4F8"></circle><circle cx="245.14" cy="134.14" r="3.65" fill="#F4F4F8"></circle><circle cx="253.07" cy="134.14" r="3.65" fill="#F4F4F8"></circle><circle cx="134.14" cy="142.07" r="0.66" fill="#F4F4F8"></circle><circle cx="142.07" cy="142.07" r="0.82" fill="#F4F4F8"></circle><circle cx="157.93" cy="142.07" r="0.73" fill="#F4F4F8"></circle><circle cx="165.86" cy="142.07" r="1.09" fill="#F4F4F8"></circle><circle cx="173.79" cy="142.07" r="1.46" fill="#F4F4F8"></circle><circle cx="181.71" cy="142.07" r="1.82" fill="#F4F4F8"></circle><circle cx="189.64" cy="142.07" r="2.19" fill="#F4F4F8"></circle><circle cx="197.57" cy="142.07" r="2.55" fill="#F4F4F8"></circle><circle cx="205.50" cy="142.07" r="2.92" fill="#F4F4F8"></circle><circle cx="213.43" cy="142.07" r="3.28" fill="#F4F4F8"></circle><circle cx="221.36" cy="142.07" r="3.65" fill="#F4F4F8"></circle><circle cx="229.29" cy="142.07" r="3.65" fill="#F4F4F8"></circle><circle cx="237.21" cy="142.07" r="3.65" fill="#F4F4F8"></circle><circle cx="245.14" cy="142.07" r="3.65" fill="#F4F4F8"></circle><circle cx="253.07" cy="142.07" r="3.65" fill="#F4F4F8"></circle><circle cx="86.57" cy="150.00" r="0.70" fill="#F4F4F8"></circle><circle cx="102.43" cy="150.00" r="0.74" fill="#F4F4F8"></circle><circle cx="126.21" cy="150.00" r="0.74" fill="#F4F4F8"></circle><circle cx="134.14" cy="150.00" r="0.92" fill="#F4F4F8"></circle><circle cx="142.07" cy="150.00" r="0.76" fill="#F4F4F8"></circle><circle cx="157.93" cy="150.00" r="0.73" fill="#F4F4F8"></circle><circle cx="165.86" cy="150.00" r="1.09" fill="#F4F4F8"></circle><circle cx="173.79" cy="150.00" r="1.46" fill="#F4F4F8"></circle><circle cx="181.71" cy="150.00" r="1.82" fill="#F4F4F8"></circle><circle cx="189.64" cy="150.00" r="2.19" fill="#F4F4F8"></circle><circle cx="197.57" cy="150.00" r="2.55" fill="#F4F4F8"></circle><circle cx="205.50" cy="150.00" r="2.92" fill="#F4F4F8"></circle><circle cx="213.43" cy="150.00" r="3.28" fill="#F4F4F8"></circle><circle cx="221.36" cy="150.00" r="3.65" fill="#F4F4F8"></circle><circle cx="229.29" cy="150.00" r="3.65" fill="#F4F4F8"></circle><circle cx="237.21" cy="150.00" r="3.65" fill="#F4F4F8"></circle><circle cx="245.14" cy="150.00" r="3.65" fill="#F4F4F8"></circle><circle cx="253.07" cy="150.00" r="3.65" fill="#F4F4F8"></circle><circle cx="94.50" cy="157.93" r="0.73" fill="#F4F4F8"></circle><circle cx="118.29" cy="157.93" r="0.73" fill="#F4F4F8"></circle><circle cx="126.21" cy="157.93" r="0.88" fill="#F4F4F8"></circle><circle cx="142.07" cy="157.93" r="0.82" fill="#F4F4F8"></circle><circle cx="157.93" cy="157.93" r="0.73" fill="#F4F4F8"></circle><circle cx="165.86" cy="157.93" r="1.09" fill="#F4F4F8"></circle><circle cx="173.79" cy="157.93" r="1.46" fill="#F4F4F8"></circle><circle cx="181.71" cy="157.93" r="1.82" fill="#F4F4F8"></circle><circle cx="189.64" cy="157.93" r="2.19" fill="#F4F4F8"></circle><circle cx="197.57" cy="157.93" r="2.55" fill="#F4F4F8"></circle><circle cx="205.50" cy="157.93" r="2.92" fill="#F4F4F8"></circle><circle cx="213.43" cy="157.93" r="3.28" fill="#F4F4F8"></circle><circle cx="221.36" cy="157.93" r="3.65" fill="#F4F4F8"></circle><circle cx="229.29" cy="157.93" r="3.65" fill="#F4F4F8"></circle><circle cx="237.21" cy="157.93" r="3.65" fill="#F4F4F8"></circle><circle cx="245.14" cy="157.93" r="3.65" fill="#F4F4F8"></circle><circle cx="253.07" cy="157.93" r="3.65" fill="#F4F4F8"></circle><circle cx="102.43" cy="165.86" r="0.70" fill="#F4F4F8"></circle><circle cx="110.36" cy="165.86" r="0.69" fill="#F4F4F8"></circle><circle cx="142.07" cy="165.86" r="0.88" fill="#F4F4F8"></circle><circle cx="157.93" cy="165.86" r="0.73" fill="#F4F4F8"></circle><circle cx="165.86" cy="165.86" r="1.09" fill="#F4F4F8"></circle><circle cx="173.79" cy="165.86" r="1.46" fill="#F4F4F8"></circle><circle cx="181.71" cy="165.86" r="1.82" fill="#F4F4F8"></circle><circle cx="189.64" cy="165.86" r="2.19" fill="#F4F4F8"></circle><circle cx="197.57" cy="165.86" r="2.55" fill="#F4F4F8"></circle><circle cx="205.50" cy="165.86" r="2.92" fill="#F4F4F8"></circle><circle cx="213.43" cy="165.86" r="3.28" fill="#F4F4F8"></circle><circle cx="221.36" cy="165.86" r="3.65" fill="#F4F4F8"></circle><circle cx="229.29" cy="165.86" r="3.65" fill="#F4F4F8"></circle><circle cx="237.21" cy="165.86" r="3.65" fill="#F4F4F8"></circle><circle cx="245.14" cy="165.86" r="3.65" fill="#F4F4F8"></circle><circle cx="253.07" cy="165.86" r="3.65" fill="#F4F4F8"></circle><circle cx="94.50" cy="173.79" r="0.76" fill="#F4F4F8"></circle><circle cx="102.43" cy="173.79" r="0.77" fill="#F4F4F8"></circle><circle cx="134.14" cy="173.79" r="0.86" fill="#F4F4F8"></circle><circle cx="142.07" cy="173.79" r="0.85" fill="#F4F4F8"></circle><circle cx="157.93" cy="173.79" r="0.73" fill="#F4F4F8"></circle><circle cx="165.86" cy="173.79" r="1.09" fill="#F4F4F8"></circle><circle cx="173.79" cy="173.79" r="1.46" fill="#F4F4F8"></circle><circle cx="181.71" cy="173.79" r="1.82" fill="#F4F4F8"></circle><circle cx="189.64" cy="173.79" r="2.19" fill="#F4F4F8"></circle><circle cx="197.57" cy="173.79" r="2.55" fill="#F4F4F8"></circle><circle cx="205.50" cy="173.79" r="2.92" fill="#F4F4F8"></circle><circle cx="213.43" cy="173.79" r="3.28" fill="#F4F4F8"></circle><circle cx="221.36" cy="173.79" r="3.65" fill="#F4F4F8"></circle><circle cx="229.29" cy="173.79" r="3.65" fill="#F4F4F8"></circle><circle cx="237.21" cy="173.79" r="3.65" fill="#F4F4F8"></circle><circle cx="245.14" cy="173.79" r="3.65" fill="#F4F4F8"></circle><circle cx="253.07" cy="173.79" r="3.65" fill="#F4F4F8"></circle><circle cx="70.71" cy="181.71" r="0.74" fill="#F4F4F8"></circle><circle cx="78.64" cy="181.71" r="0.67" fill="#F4F4F8"></circle><circle cx="94.50" cy="181.71" r="0.68" fill="#F4F4F8"></circle><circle cx="118.29" cy="181.71" r="0.70" fill="#F4F4F8"></circle><circle cx="142.07" cy="181.71" r="0.88" fill="#F4F4F8"></circle><circle cx="157.93" cy="181.71" r="0.73" fill="#F4F4F8"></circle><circle cx="165.86" cy="181.71" r="1.09" fill="#F4F4F8"></circle><circle cx="173.79" cy="181.71" r="1.46" fill="#F4F4F8"></circle><circle cx="181.71" cy="181.71" r="1.82" fill="#F4F4F8"></circle><circle cx="189.64" cy="181.71" r="2.19" fill="#F4F4F8"></circle><circle cx="197.57" cy="181.71" r="2.55" fill="#F4F4F8"></circle><circle cx="205.50" cy="181.71" r="2.92" fill="#F4F4F8"></circle><circle cx="213.43" cy="181.71" r="3.28" fill="#F4F4F8"></circle><circle cx="221.36" cy="181.71" r="3.65" fill="#F4F4F8"></circle><circle cx="229.29" cy="181.71" r="3.65" fill="#F4F4F8"></circle><circle cx="237.21" cy="181.71" r="3.65" fill="#F4F4F8"></circle><circle cx="245.14" cy="181.71" r="3.65" fill="#F4F4F8"></circle><circle cx="253.07" cy="181.71" r="3.65" fill="#F4F4F8"></circle><circle cx="134.14" cy="189.64" r="0.77" fill="#F4F4F8"></circle><circle cx="157.93" cy="189.64" r="0.73" fill="#F4F4F8"></circle><circle cx="165.86" cy="189.64" r="1.09" fill="#F4F4F8"></circle><circle cx="173.79" cy="189.64" r="1.46" fill="#F4F4F8"></circle><circle cx="181.71" cy="189.64" r="1.82" fill="#F4F4F8"></circle><circle cx="189.64" cy="189.64" r="2.19" fill="#F4F4F8"></circle><circle cx="197.57" cy="189.64" r="2.55" fill="#F4F4F8"></circle><circle cx="205.50" cy="189.64" r="2.92" fill="#F4F4F8"></circle><circle cx="213.43" cy="189.64" r="3.28" fill="#F4F4F8"></circle><circle cx="221.36" cy="189.64" r="3.65" fill="#F4F4F8"></circle><circle cx="229.29" cy="189.64" r="3.65" fill="#F4F4F8"></circle><circle cx="237.21" cy="189.64" r="3.65" fill="#F4F4F8"></circle><circle cx="245.14" cy="189.64" r="3.65" fill="#F4F4F8"></circle><circle cx="253.07" cy="189.64" r="3.65" fill="#F4F4F8"></circle><circle cx="86.57" cy="197.57" r="0.76" fill="#F4F4F8"></circle><circle cx="94.50" cy="197.57" r="0.79" fill="#F4F4F8"></circle><circle cx="126.21" cy="197.57" r="0.70" fill="#F4F4F8"></circle><circle cx="134.14" cy="197.57" r="0.67" fill="#F4F4F8"></circle><circle cx="142.07" cy="197.57" r="0.69" fill="#F4F4F8"></circle><circle cx="157.93" cy="197.57" r="0.73" fill="#F4F4F8"></circle><circle cx="165.86" cy="197.57" r="1.09" fill="#F4F4F8"></circle><circle cx="173.79" cy="197.57" r="1.46" fill="#F4F4F8"></circle><circle cx="181.71" cy="197.57" r="1.82" fill="#F4F4F8"></circle><circle cx="189.64" cy="197.57" r="2.19" fill="#F4F4F8"></circle><circle cx="197.57" cy="197.57" r="2.55" fill="#F4F4F8"></circle><circle cx="205.50" cy="197.57" r="2.92" fill="#F4F4F8"></circle><circle cx="213.43" cy="197.57" r="3.28" fill="#F4F4F8"></circle><circle cx="221.36" cy="197.57" r="3.65" fill="#F4F4F8"></circle><circle cx="229.29" cy="197.57" r="3.65" fill="#F4F4F8"></circle><circle cx="237.21" cy="197.57" r="3.65" fill="#F4F4F8"></circle><circle cx="245.14" cy="197.57" r="3.65" fill="#F4F4F8"></circle><circle cx="62.79" cy="205.50" r="0.68" fill="#F4F4F8"></circle><circle cx="78.64" cy="205.50" r="0.76" fill="#F4F4F8"></circle><circle cx="118.29" cy="205.50" r="0.88" fill="#F4F4F8"></circle><circle cx="126.21" cy="205.50" r="0.82" fill="#F4F4F8"></circle><circle cx="157.93" cy="205.50" r="0.73" fill="#F4F4F8"></circle><circle cx="165.86" cy="205.50" r="1.09" fill="#F4F4F8"></circle><circle cx="173.79" cy="205.50" r="1.46" fill="#F4F4F8"></circle><circle cx="181.71" cy="205.50" r="1.82" fill="#F4F4F8"></circle><circle cx="189.64" cy="205.50" r="2.19" fill="#F4F4F8"></circle><circle cx="197.57" cy="205.50" r="2.55" fill="#F4F4F8"></circle><circle cx="205.50" cy="205.50" r="2.92" fill="#F4F4F8"></circle><circle cx="213.43" cy="205.50" r="3.28" fill="#F4F4F8"></circle><circle cx="221.36" cy="205.50" r="3.65" fill="#F4F4F8"></circle><circle cx="229.29" cy="205.50" r="3.65" fill="#F4F4F8"></circle><circle cx="237.21" cy="205.50" r="3.65" fill="#F4F4F8"></circle><circle cx="245.14" cy="205.50" r="3.65" fill="#F4F4F8"></circle><circle cx="86.57" cy="213.43" r="0.69" fill="#F4F4F8"></circle><circle cx="94.50" cy="213.43" r="0.81" fill="#F4F4F8"></circle><circle cx="102.43" cy="213.43" r="0.78" fill="#F4F4F8"></circle><circle cx="118.29" cy="213.43" r="0.77" fill="#F4F4F8"></circle><circle cx="142.07" cy="213.43" r="0.93" fill="#F4F4F8"></circle><circle cx="157.93" cy="213.43" r="0.73" fill="#F4F4F8"></circle><circle cx="165.86" cy="213.43" r="1.09" fill="#F4F4F8"></circle><circle cx="173.79" cy="213.43" r="1.46" fill="#F4F4F8"></circle><circle cx="181.71" cy="213.43" r="1.82" fill="#F4F4F8"></circle><circle cx="189.64" cy="213.43" r="2.19" fill="#F4F4F8"></circle><circle cx="197.57" cy="213.43" r="2.55" fill="#F4F4F8"></circle><circle cx="205.50" cy="213.43" r="2.92" fill="#F4F4F8"></circle><circle cx="213.43" cy="213.43" r="3.28" fill="#F4F4F8"></circle><circle cx="221.36" cy="213.43" r="3.65" fill="#F4F4F8"></circle><circle cx="229.29" cy="213.43" r="3.65" fill="#F4F4F8"></circle><circle cx="237.21" cy="213.43" r="3.65" fill="#F4F4F8"></circle><circle cx="78.64" cy="221.36" r="0.68" fill="#F4F4F8"></circle><circle cx="86.57" cy="221.36" r="0.71" fill="#F4F4F8"></circle><circle cx="94.50" cy="221.36" r="0.73" fill="#F4F4F8"></circle><circle cx="110.36" cy="221.36" r="0.84" fill="#F4F4F8"></circle><circle cx="126.21" cy="221.36" r="0.80" fill="#F4F4F8"></circle><circle cx="157.93" cy="221.36" r="0.73" fill="#F4F4F8"></circle><circle cx="165.86" cy="221.36" r="1.09" fill="#F4F4F8"></circle><circle cx="173.79" cy="221.36" r="1.46" fill="#F4F4F8"></circle><circle cx="181.71" cy="221.36" r="1.82" fill="#F4F4F8"></circle><circle cx="189.64" cy="221.36" r="2.19" fill="#F4F4F8"></circle><circle cx="197.57" cy="221.36" r="2.55" fill="#F4F4F8"></circle><circle cx="205.50" cy="221.36" r="2.92" fill="#F4F4F8"></circle><circle cx="213.43" cy="221.36" r="3.28" fill="#F4F4F8"></circle><circle cx="221.36" cy="221.36" r="3.65" fill="#F4F4F8"></circle><circle cx="229.29" cy="221.36" r="3.65" fill="#F4F4F8"></circle><circle cx="102.43" cy="229.29" r="0.80" fill="#F4F4F8"></circle><circle cx="118.29" cy="229.29" r="0.87" fill="#F4F4F8"></circle><circle cx="142.07" cy="229.29" r="0.89" fill="#F4F4F8"></circle><circle cx="157.93" cy="229.29" r="0.73" fill="#F4F4F8"></circle><circle cx="165.86" cy="229.29" r="1.09" fill="#F4F4F8"></circle><circle cx="173.79" cy="229.29" r="1.46" fill="#F4F4F8"></circle><circle cx="181.71" cy="229.29" r="1.82" fill="#F4F4F8"></circle><circle cx="189.64" cy="229.29" r="2.19" fill="#F4F4F8"></circle><circle cx="197.57" cy="229.29" r="2.55" fill="#F4F4F8"></circle><circle cx="205.50" cy="229.29" r="2.92" fill="#F4F4F8"></circle><circle cx="213.43" cy="229.29" r="3.28" fill="#F4F4F8"></circle><circle cx="221.36" cy="229.29" r="3.65" fill="#F4F4F8"></circle><circle cx="86.57" cy="237.21" r="0.67" fill="#F4F4F8"></circle><circle cx="110.36" cy="237.21" r="0.83" fill="#F4F4F8"></circle><circle cx="157.93" cy="237.21" r="0.73" fill="#F4F4F8"></circle><circle cx="165.86" cy="237.21" r="1.09" fill="#F4F4F8"></circle><circle cx="173.79" cy="237.21" r="1.46" fill="#F4F4F8"></circle><circle cx="181.71" cy="237.21" r="1.82" fill="#F4F4F8"></circle><circle cx="189.64" cy="237.21" r="2.19" fill="#F4F4F8"></circle><circle cx="197.57" cy="237.21" r="2.55" fill="#F4F4F8"></circle><circle cx="205.50" cy="237.21" r="2.92" fill="#F4F4F8"></circle><circle cx="213.43" cy="237.21" r="3.28" fill="#F4F4F8"></circle><circle cx="110.36" cy="245.14" r="0.66" fill="#F4F4F8"></circle><circle cx="118.29" cy="245.14" r="0.67" fill="#F4F4F8"></circle><circle cx="126.21" cy="245.14" r="0.68" fill="#F4F4F8"></circle><circle cx="157.93" cy="245.14" r="0.73" fill="#F4F4F8"></circle><circle cx="165.86" cy="245.14" r="1.09" fill="#F4F4F8"></circle><circle cx="173.79" cy="245.14" r="1.46" fill="#F4F4F8"></circle><circle cx="181.71" cy="245.14" r="1.82" fill="#F4F4F8"></circle><circle cx="189.64" cy="245.14" r="2.19" fill="#F4F4F8"></circle><circle cx="197.57" cy="245.14" r="2.55" fill="#F4F4F8"></circle><circle cx="205.50" cy="245.14" r="2.92" fill="#F4F4F8"></circle><circle cx="142.07" cy="253.07" r="0.92" fill="#F4F4F8"></circle><circle cx="157.93" cy="253.07" r="0.73" fill="#F4F4F8"></circle><circle cx="165.86" cy="253.07" r="1.09" fill="#F4F4F8"></circle><circle cx="173.79" cy="253.07" r="1.46" fill="#F4F4F8"></circle><circle cx="181.71" cy="253.07" r="1.82" fill="#F4F4F8"></circle><circle cx="189.64" cy="253.07" r="2.19" fill="#F4F4F8"></circle></svg>